<?xml version="1.0" standalone="no"?>
<!DOCTYPE svg PUBLIC "-//W3C//DTD SVG 20010904//EN"
 "http://www.w3.org/TR/2001/REC-SVG-20010904/DTD/svg10.dtd">
<svg version="1.0" xmlns="http://www.w3.org/2000/svg"
 width="300.000000px" height="300.000000px" viewBox="6 -310 300.000000 300.000000"
 preserveAspectRatio="xMidYMid meet">
<g transform="scale(0.105,-0.105)"
fill="#000000" stroke="none">
<path d="M1440 2733 c-29 -65 -96 -210 -147 -323 -52 -113 -109 -236 -126
-275 -78 -172 -77 -169 -132 -177 -84 -11 -325 -47 -425 -63 -52 -8 -158 -24
-235 -35 -77 -11 -149 -22 -160 -24 -11 -3 -42 -8 -69 -11 l-48 -7 347 -349
348 -349 -6 -48 c-3 -26 -13 -90 -22 -142 -8 -52 -24 -151 -35 -220 -11 -69
-27 -168 -35 -220 -37 -224 -45 -285 -43 -296 3 -10 201 81 686 317 78 38 151
69 162 69 10 0 101 -40 202 -89 101 -49 286 -139 412 -200 126 -61 231 -111
233 -111 4 0 0 24 -27 205 -10 66 -25 167 -34 225 -8 58 -25 168 -36 245 -11
77 -26 169 -32 204 l-11 63 344 344 c189 189 341 345 339 347 -3 2 -41 9 -85
15 -83 12 -280 41 -445 66 -52 8 -160 24 -240 36 -235 34 -206 16 -272 160
-31 69 -102 226 -158 350 -173 385 -184 410 -190 410 -4 0 -30 -53 -60 -117z
m201 -830 c81 -38 144 -100 183 -183 27 -57 31 -75 30 -150 -1 -116 -28 -186
-103 -260 -120 -120 -287 -148 -433 -74 -182 92 -257 313 -167 493 92 185 306
261 490 174z m54 -823 c211 -65 399 -240 464 -431 22 -65 48 -225 38 -235 -3
-3 -115 47 -249 112 -134 64 -289 139 -346 166 l-103 49 -337 -162 c-185 -89
-343 -164 -351 -167 -12 -4 -13 7 -8 66 29 307 271 565 585 622 75 14 228 4
307 -20z"/>
</g>
</svg>
