<?xml version="1.0" standalone="no"?>
<!DOCTYPE svg PUBLIC "-//W3C//DTD SVG 20010904//EN"
 "http://www.w3.org/TR/2001/REC-SVG-20010904/DTD/svg10.dtd">
<svg version="1.0" xmlns="http://www.w3.org/2000/svg"
 width="256.000000pt" height="256.000000pt" viewBox="0 -256 256 256"
 preserveAspectRatio="xMidYMid meet">
<metadata>
Created by potrace 1.10, written by Peter Selinger 2001-2011
</metadata>
<g transform="scale(0.100000,-0.100000)" fill="#000000" stroke="none">
<path d="M1373 2079 c-52 -33 -66 -63 -58 -126 8 -62 23 -73 105 -73 84 0 133
61 110 139 -22 78 -89 104 -157 60z m50 -16 c11 -10 -13 -33 -34 -33 -18 0
-26 20 -12 33 8 9 38 9 46 0z"/>
<path d="M956 2041 c-3 -5 1 -14 9 -21 21 -17 19 -27 -6 -35 -13 -4 -27 -1
-38 9 -45 41 -77 -58 -38 -118 24 -36 61 -49 124 -43 43 5 54 2 71 -16 20 -22
42 -85 42 -122 0 -15 -2 -17 -9 -6 -7 11 -12 9 -22 -10 -21 -41 -125 -174
-173 -222 -48 -47 -55 -62 -33 -70 6 -2 -5 -14 -25 -27 -44 -26 -47 -37 -13
-50 31 -12 33 -24 3 -14 -13 4 -34 8 -47 10 -21 2 -71 44 -71 59 0 3 26 3 58
0 l57 -5 -59 15 c-74 19 -85 28 -92 76 -12 74 -56 119 -118 119 -13 0 -29 -6
-35 -14 -10 -12 -8 -15 11 -18 27 -4 27 -18 0 -36 -17 -11 -22 -10 -36 4 -16
15 -18 15 -36 -1 -33 -30 -26 -81 15 -122 34 -34 38 -36 93 -30 31 3 66 9 77
13 18 7 19 6 5 -10 -12 -16 -12 -19 3 -27 9 -5 24 -34 33 -64 23 -73 53 -100
111 -100 32 0 47 5 54 18 8 13 22 17 57 16 45 -1 46 -1 14 -9 -19 -4 -38 -12
-42 -16 -4 -5 60 -59 143 -119 138 -100 155 -116 184 -170 17 -32 39 -65 50
-73 18 -14 86 -12 148 4 27 6 29 6 16 -9 -11 -14 -11 -18 3 -23 9 -3 21 -24
26 -45 7 -24 28 -57 56 -84 59 -59 89 -60 145 -5 38 37 41 43 36 77 -12 73
-60 113 -136 113 -25 0 -60 5 -78 12 -30 11 -33 15 -33 54 0 62 13 88 98 193
93 118 128 151 156 151 20 1 20 1 2 11 -10 6 -41 9 -70 7 -49 -5 -50 -5 -21 8
40 18 58 17 99 -2 31 -15 39 -16 80 -2 44 14 46 14 41 -2 -3 -9 1 -23 9 -29 8
-7 22 -37 31 -66 9 -33 25 -62 41 -74 80 -63 184 -14 184 86 0 33 -7 50 -31
78 -29 33 -35 35 -93 35 -69 0 -125 21 -127 48 -2 34 3 68 16 98 11 26 10 32
-4 42 -13 10 -4 11 40 6 86 -9 126 18 143 98 8 35 -15 90 -45 112 -27 19 -80
21 -97 4 -9 -9 -6 -14 10 -22 29 -15 28 -30 -4 -34 -18 -2 -27 2 -30 13 -2 14
-7 13 -30 -9 -30 -27 -35 -57 -18 -114 8 -29 7 -33 -7 -28 -8 4 -22 1 -30 -6
-27 -22 -104 -15 -163 15 -57 29 -181 116 -238 169 -23 21 -37 27 -45 20 -9
-8 -12 6 -11 58 1 38 5 73 8 79 4 6 -5 22 -21 35 -25 22 -29 23 -51 8 -14 -9
-47 -16 -82 -16 -70 -1 -93 16 -109 78 -6 23 -20 51 -32 62 -15 13 -20 14 -15
4 4 -8 -1 -5 -10 8 -17 22 -67 31 -78 13z m331 -178 c-4 -3 -10 -3 -14 0 -3 4
0 7 7 7 7 0 10 -3 7 -7z m-86 -33 c35 0 38 -17 4 -26 -15 -4 -30 -1 -40 9 -8
8 -20 17 -27 19 -6 2 -8 10 -4 16 5 9 11 8 22 -3 9 -8 29 -15 45 -15z m112
-180 c-3 -11 -1 -20 5 -20 11 0 232 -158 232 -166 0 -2 -10 2 -22 10 -13 8
-40 18 -61 21 -30 6 -40 14 -51 40 -12 28 -85 85 -109 85 -4 0 -8 -35 -8 -77
l-1 -78 -10 60 c-9 64 -5 110 13 132 16 18 18 16 12 -7z m-123 -21 c6 -10 15
-78 21 -151 12 -149 26 -188 70 -188 25 0 26 2 23 53 l-3 52 9 -44 c9 -40 34
-81 49 -81 4 0 5 18 3 40 -5 49 18 90 51 90 12 0 55 -9 95 -19 64 -17 74 -17
87 -4 16 15 14 23 -14 58 -9 12 -3 8 12 -8 15 -15 25 -32 22 -37 -4 -6 -1 -10
5 -10 27 0 -7 -20 -107 -65 -59 -26 -112 -51 -116 -55 -7 -7 17 -70 27 -70 2
0 37 16 79 35 79 37 115 47 61 17 -18 -9 -57 -47 -89 -84 -31 -37 -66 -70 -78
-74 -12 -4 -33 -15 -47 -24 -14 -10 -41 -21 -60 -24 -40 -7 -66 5 -167 78 -37
27 -86 55 -108 62 -22 7 -33 13 -24 13 9 1 38 -6 65 -14 46 -14 106 -20 75 -8
-8 3 -9 8 -3 12 5 3 12 16 16 27 8 25 -10 34 -117 60 -68 17 -132 53 -94 54 9
0 17 6 17 14 0 8 4 18 10 21 7 4 7 -2 1 -19 -7 -18 -6 -28 5 -36 11 -10 26 -7
71 15 32 16 83 36 113 45 44 14 55 22 54 39 0 11 -1 53 -2 92 -2 73 -15 85
-29 26 -7 -27 -19 -37 -81 -68 -40 -20 -85 -47 -100 -60 -38 -34 -15 -5 92
119 84 96 88 103 72 121 -9 9 -13 20 -10 24 9 9 34 -4 44 -24z m56 -140 c2
-102 1 -107 -7 -49 -21 169 -21 172 -7 168 10 -4 13 -33 14 -119z m561 -6 c-4
-3 -10 -3 -14 0 -3 4 0 7 7 7 7 0 10 -3 7 -7z m-79 -29 c29 -8 28 -25 -5 -55
-14 -13 -23 -19 -20 -13 4 7 0 15 -9 18 -8 3 -13 10 -9 15 3 5 1 12 -5 16 -5
3 -10 10 -10 16 0 10 24 12 58 3z m-55 -67 c-3 -5 1 -13 8 -18 7 -4 10 -11 6
-15 -4 -4 -14 1 -22 12 -18 24 -19 31 0 31 8 0 11 -5 8 -10z m305 -118 c26
-10 25 -32 -1 -37 -20 -4 -66 28 -67 46 0 13 12 12 68 -9z m-601 -276 c-4 -3
-7 0 -7 7 0 7 3 10 7 7 3 -4 3 -10 0 -14z m-97 -39 c0 -8 -4 -14 -10 -14 -5 0
-10 9 -10 21 0 11 5 17 10 14 6 -3 10 -13 10 -21z m271 -144 c21 0 39 -2 39
-4 0 -2 3 -11 6 -20 5 -12 0 -16 -20 -16 -32 0 -88 39 -79 54 4 6 8 6 11 -2 2
-7 21 -12 43 -12z"/>
<path d="M1224 1251 c-75 -42 -85 -111 -24 -172 51 -51 139 -35 172 31 25 50
22 85 -9 120 -44 47 -80 53 -139 21z m54 -32 c4 -22 -45 -32 -53 -12 -3 8 -2
19 1 24 9 16 48 6 52 -12z"/>
<path d="M680 1175 c-7 -8 -22 -15 -33 -15 -37 0 -115 -58 -127 -95 -20 -61
26 -130 90 -136 50 -4 69 2 99 32 27 27 31 37 31 87 0 31 5 64 10 72 7 11 2
22 -17 42 -31 32 -36 33 -53 13z m15 -25 c3 -5 -1 -10 -9 -10 -9 0 -16 5 -16
10 0 6 4 10 9 10 6 0 13 -4 16 -10z m-65 -50 c0 -15 -7 -20 -25 -20 -41 0 -30
37 13 39 6 1 12 -8 12 -19z"/>
<path d="M1140 789 c-84 -33 -110 -57 -110 -101 0 -85 68 -141 143 -118 62 18
87 52 87 119 0 32 5 62 12 69 9 9 6 17 -12 37 -28 30 -27 30 -120 -6z m70 1
c0 -5 -5 -10 -11 -10 -5 0 -7 5 -4 10 3 6 8 10 11 10 2 0 4 -4 4 -10z m-65
-50 c-21 -23 -45 -26 -45 -6 0 14 17 22 49 25 11 1 10 -4 -4 -19z"/>
</g>
</svg>
