<?xml version="1.0" standalone="no"?>
<!DOCTYPE svg PUBLIC "-//W3C//DTD SVG 20010904//EN"
 "http://www.w3.org/TR/2001/REC-SVG-20010904/DTD/svg10.dtd">
<svg version="1.0" xmlns="http://www.w3.org/2000/svg"
 width="256.000000pt" height="256.000000pt" viewBox="0 -256 256.000000 256.000000"
 preserveAspectRatio="xMidYMid meet">
<metadata>
Created by potrace 1.10, written by Peter Selinger 2001-2011
</metadata>
<g transform="scale(0.100000,-0.100000)" fill="#000000" stroke="none">
<path d="M1159 1880 c-42 -5 -118 -48 -120 -68 0 -4 -3 -29 -5 -55 -4 -32 0
-63 12 -93 15 -38 15 -52 5 -98 -6 -29 -18 -62 -26 -72 -13 -18 -14 -18 -8 4
11 45 -15 20 -57 -55 -72 -128 -169 -275 -210 -318 -43 -46 -87 -111 -120
-174 -39 -78 -4 -173 77 -207 41 -17 127 -18 145 -1 7 6 31 21 53 32 22 10 49
28 59 38 17 17 29 19 100 14 45 -4 102 -9 129 -13 l47 -7 1 39 1 39 11 -30
c24 -62 49 -96 89 -125 74 -54 156 -52 214 4 19 18 31 36 27 39 -3 4 -1 7 5 7
23 0 52 67 52 119 0 67 -8 81 -95 166 l-73 70 -46 140 c-67 203 -72 238 -46
324 21 67 21 74 7 136 -17 72 -36 107 -70 129 -27 17 -96 24 -158 16z m59 -75
c2 -15 -6 -23 -30 -30 -42 -13 -68 -8 -68 14 0 28 22 42 60 39 26 -2 36 -8 38
-23z m-2 -400 c21 -32 94 -244 93 -270 -1 -11 -5 -4 -11 15 -7 26 -24 45 -64
73 -30 21 -54 46 -54 55 -1 10 -6 5 -15 -13 l-13 -30 -1 26 c-1 15 12 51 27
81 31 57 31 78 2 78 -26 0 -85 -71 -153 -184 -72 -118 -80 -159 -42 -204 32
-39 77 -52 175 -52 69 0 90 6 129 37 2 1 10 24 17 50 8 31 13 39 13 23 1 -30
-39 -120 -61 -138 -13 -10 -17 -10 -22 3 -4 12 -24 15 -92 15 -71 0 -96 4
-144 26 -37 16 -62 35 -71 52 -7 15 -15 32 -18 37 -3 6 2 4 11 -3 13 -11 17
-7 30 31 17 53 131 245 176 298 28 33 37 37 53 29 10 -6 26 -22 35 -35z m188
-317 c9 -32 13 -65 9 -74 -4 -12 -2 -15 8 -12 8 3 19 -1 26 -8 15 -15 18 -38
4 -29 -5 3 -12 1 -16 -5 -3 -5 -18 -10 -32 -10 -22 0 -24 3 -18 23 14 43 10
73 -22 197 -18 69 -32 130 -32 135 1 14 55 -147 73 -217z m-550 71 c-34 -69
-36 -71 -48 -48 -10 20 -9 29 8 56 11 17 23 30 27 27 3 -2 14 5 24 16 10 11
20 20 22 20 2 0 -13 -32 -33 -71z m-84 -144 c10 -12 9 -16 -2 -20 -20 -8 -71
13 -63 25 9 15 51 12 65 -5z m375 -74 c35 -8 31 -9 -37 -10 -46 -1 -78 3 -78
9 0 12 59 12 115 1z"/>
<path d="M1402 1536 c-29 -80 -10 -148 66 -231 67 -74 80 -99 62 -120 -7 -8
-21 -15 -31 -15 -11 0 -19 -3 -19 -7 0 -13 43 -58 96 -101 54 -44 82 -89 91
-150 8 -47 16 -52 65 -41 117 27 150 71 156 212 5 106 0 113 -120 183 -48 27
-116 81 -177 139 -54 52 -100 92 -103 89 -3 -3 -21 13 -40 35 l-34 40 -12 -33z"/>
</g>
</svg>
