<?xml version="1.0" standalone="no"?>
<!DOCTYPE svg PUBLIC "-//W3C//DTD SVG 20010904//EN"
 "http://www.w3.org/TR/2001/REC-SVG-20010904/DTD/svg10.dtd">
<svg version="1.0" xmlns="http://www.w3.org/2000/svg"
 width="256.000000pt" height="256.000000pt" viewBox="0 -256 256.000000 256.000000"
 preserveAspectRatio="xMidYMid meet">
<metadata>
Created by potrace 1.10, written by Peter Selinger 2001-2011
</metadata>
<g transform="scale(0.100000,-0.100000)" fill="#000000" stroke="none">
<path d="M1440 2112 c0 -4 5 -13 12 -20 10 -9 8 -16 -6 -30 -16 -16 -18 -16
-31 2 -17 23 -41 15 -57 -19 -10 -21 -9 -35 5 -71 12 -33 14 -51 7 -70 -14
-36 -5 -44 43 -44 34 0 44 4 52 22 6 13 22 28 36 35 44 21 62 50 62 98 0 59
-39 105 -90 105 -18 0 -33 -4 -33 -8z m-43 -229 c-4 -3 -10 -3 -14 0 -3 4 0 7
7 7 7 0 10 -3 7 -7z"/>
<path d="M844 2030 c-33 -13 -54 -50 -54 -96 0 -34 6 -49 31 -73 17 -17 37
-31 46 -31 8 0 27 -7 42 -16 24 -14 31 -14 62 -1 l35 14 -4 69 c-5 80 -20 110
-67 130 -38 16 -60 17 -91 4z m53 -34 c-6 -17 -47 -20 -47 -3 0 9 6 17 13 20
18 6 38 -4 34 -17z"/>
<path d="M1647 1873 c-4 -3 2 -17 14 -29 41 -43 30 -153 -17 -171 -23 -9 -17
-21 45 -96 67 -81 131 -146 131 -131 0 17 -42 89 -86 145 -50 62 -52 69 -24
69 30 0 89 57 95 93 11 55 -7 81 -70 105 -60 23 -77 26 -88 15z"/>
<path d="M1238 1858 c-3 -8 -29 -13 -69 -14 -99 -3 -97 -3 -79 -15 12 -8 10
-9 -7 -4 -52 14 -177 -82 -190 -147 -4 -21 -8 -26 -14 -16 -6 9 -9 6 -9 -10 0
-13 -16 -47 -35 -77 -51 -80 -90 -161 -115 -242 -16 -49 -30 -75 -46 -83 -15
-8 -20 -18 -16 -29 3 -9 -8 -1 -25 17 -25 26 -39 32 -73 32 -34 0 -46 -6 -71
-32 -16 -18 -32 -43 -35 -55 -15 -58 39 -118 106 -118 31 0 47 8 74 34 43 42
74 37 107 -16 58 -93 213 -263 241 -263 9 0 22 -9 28 -21 52 -97 204 -140 369
-105 76 16 198 76 194 95 -2 5 3 8 11 5 22 -8 25 20 8 71 -13 40 -13 56 -3 94
14 54 27 66 80 75 38 6 39 7 87 113 44 99 48 114 46 177 -2 87 -14 110 -117
225 -77 88 -82 91 -123 91 -34 0 -49 7 -78 33 -32 29 -36 38 -37 89 -1 31 -4
54 -6 52 -7 -6 -42 17 -37 25 3 4 0 8 -7 8 -7 0 -39 5 -71 12 -75 14 -83 14
-88 -1z m-101 -24 c-3 -3 -12 -4 -19 -1 -8 3 -5 6 6 6 11 1 17 -2 13 -5z m230
-30 c71 -28 65 -101 -13 -154 -23 -17 -46 -30 -51 -30 -4 0 7 10 25 21 18 12
31 24 28 26 -9 9 -92 -7 -111 -21 -16 -12 -16 -14 -1 -44 9 -18 22 -32 28 -32
9 0 9 -3 0 -12 -7 -7 -12 -21 -12 -31 0 -51 -62 -107 -120 -107 -92 0 -155
108 -105 183 15 24 15 26 -11 52 -22 22 -25 32 -21 63 l6 37 -34 -37 c-37 -40
-46 -82 -22 -108 6 -8 2 -6 -10 4 -13 11 -23 14 -23 8 0 -7 -4 -12 -9 -12 -14
0 36 94 66 122 83 79 282 116 390 72z m98 -144 c3 -5 4 -10 1 -10 -3 0 -8 5
-11 10 -3 6 -4 10 -1 10 3 0 8 -4 11 -10z m-585 -74 c0 -3 -5 -8 -12 -12 -7
-4 -8 -3 -4 4 7 12 16 16 16 8z m715 -85 c25 -17 49 -46 67 -81 24 -47 28 -68
28 -138 0 -96 -16 -140 -64 -177 -17 -13 -44 -26 -61 -29 -23 -5 -25 -4 -10 3
17 8 13 12 -37 36 -58 26 -70 37 -75 65 -1 8 -9 44 -18 80 -25 104 -7 197 50
252 33 33 59 30 120 -11z m-587 -55 c66 -35 116 -119 127 -216 14 -128 10
-120 65 -120 62 0 95 -13 116 -45 22 -34 34 -111 20 -125 -17 -17 12 -30 66
-30 26 0 50 5 53 10 3 6 0 10 -7 11 -10 0 -10 2 -1 6 19 7 90 -36 102 -63 33
-74 -114 -159 -269 -156 -63 1 -162 19 -122 21 9 1 7 9 -8 28 -23 29 -21 65 7
95 13 15 12 18 -10 33 -32 21 -50 65 -45 110 2 19 2 35 0 35 -3 0 -19 -9 -36
-19 -31 -19 -32 -19 -71 0 -93 46 -145 125 -145 224 0 70 26 134 73 183 35 36
46 38 85 18z m-450 -214 c5 -17 -27 -27 -41 -13 -9 9 -8 14 3 21 18 11 32 8
38 -8z m282 -197 c13 -14 21 -25 18 -25 -2 0 -15 11 -28 25 -13 14 -21 25 -18
25 2 0 15 -11 28 -25z m537 -82 c-4 -3 -10 -3 -14 0 -3 4 0 7 7 7 7 0 10 -3 7
-7z m50 -9 c-3 -3 -12 -4 -19 -1 -8 3 -5 6 6 6 11 1 17 -2 13 -5z m-351 -76
c-22 -31 -20 -57 7 -87 l22 -26 -27 24 c-32 28 -36 65 -11 93 22 25 27 23 9
-4z"/>
<path d="M1142 1623 c1 -10 -1 -24 -5 -30 -13 -20 -37 -15 -37 7 0 27 -25 25
-44 -2 -35 -50 -14 -127 42 -154 72 -34 147 17 147 99 0 31 -7 45 -33 68 -37
33 -75 39 -70 12z"/>
<path d="M1225 1070 c11 -34 -13 -52 -56 -45 -32 6 -38 4 -44 -14 -10 -33 3
-76 31 -102 20 -19 36 -24 72 -23 38 1 50 6 75 34 25 28 29 38 24 74 -4 29
-15 49 -37 69 -37 33 -75 37 -65 7z"/>
<path d="M1499 1841 c-23 -23 -29 -38 -29 -71 0 -52 13 -76 50 -95 45 -23 85
-19 122 14 28 25 33 36 33 76 0 40 -5 51 -33 76 -45 41 -102 41 -143 0z m71
-10 c0 -6 -5 -13 -10 -16 -15 -9 -43 3 -35 15 8 13 45 13 45 1z"/>
<path d="M1423 1833 c4 -3 10 -3 14 0 3 4 0 7 -7 7 -7 0 -10 -3 -7 -7z"/>
<path d="M818 1753 c-23 -6 -22 -12 6 -46 l23 -29 21 33 c27 43 9 58 -50 42z"/>
<path d="M689 1733 c-80 -49 -79 -160 1 -193 63 -26 130 11 145 80 9 42 -21
99 -61 116 -42 18 -53 17 -85 -3z m41 -33 c0 -13 -7 -20 -18 -20 -26 0 -34 11
-21 27 17 20 39 16 39 -7z"/>
<path d="M1966 1482 c-3 -6 3 -13 13 -17 11 -3 32 -20 46 -36 29 -36 34 -93
10 -139 -20 -39 -7 -38 39 3 66 58 58 141 -18 172 -51 22 -83 27 -90 17z"/>
<path d="M1859 1429 c-23 -24 -29 -40 -29 -74 0 -34 6 -50 29 -74 62 -66 181
-25 181 63 0 73 -42 116 -115 116 -28 0 -44 -7 -66 -31z m76 -8 c3 -6 -3 -15
-14 -21 -21 -11 -37 2 -26 20 8 13 32 13 40 1z"/>
<path d="M600 1291 c0 -5 12 -16 26 -26 23 -15 28 -15 41 -2 9 8 12 20 9 26
-8 13 -76 15 -76 2z"/>
<path d="M1818 1228 c-7 -13 -29 -60 -49 -105 l-37 -83 34 -21 c64 -39 82
-113 43 -175 l-21 -34 34 6 c68 13 118 62 118 116 0 62 -74 118 -140 105 l-28
-6 33 82 c39 98 49 137 36 137 -6 0 -16 -10 -23 -22z"/>
<path d="M644 1089 l-29 -31 35 7 c47 10 64 24 49 41 -16 20 -22 18 -55 -17z"/>
<path d="M1703 992 c23 -26 4 -42 -50 -42 l-43 0 0 -42 c0 -61 37 -98 101 -98
37 0 52 5 73 26 60 61 18 174 -66 174 -29 0 -30 -1 -15 -18z"/>
<path d="M825 882 c-26 -5 -63 -39 -82 -75 -43 -83 68 -174 147 -120 40 27 49
45 50 91 0 36 -5 49 -30 72 -32 30 -54 38 -85 32z m13 -49 c2 -8 -6 -13 -22
-13 -25 0 -33 10 -19 24 10 10 36 3 41 -11z"/>
<path d="M950 751 c0 -17 -5 -33 -10 -36 -16 -10 -1 -25 25 -25 13 0 36 5 52
11 l28 11 -40 34 c-22 18 -43 34 -47 34 -5 0 -8 -13 -8 -29z"/>
<path d="M1567 746 l-39 -24 32 -23 c30 -23 32 -27 28 -77 -4 -47 -2 -55 20
-73 34 -27 94 -25 127 4 54 46 40 148 -24 177 -14 7 -39 18 -54 26 -38 18 -45
18 -90 -10z m96 -43 c11 -10 -13 -32 -29 -26 -11 4 -12 9 -3 19 13 15 22 18
32 7z"/>
<path d="M1059 647 c-56 -70 -64 -143 -18 -181 85 -72 202 14 162 120 -8 21
-17 49 -20 61 -10 44 -88 44 -124 0z m51 -17 c-6 -11 -8 -20 -4 -20 3 0 1 -7
-6 -15 -10 -12 -16 -13 -27 -3 -12 10 -12 13 1 20 9 5 16 16 16 23 0 8 7 15
15 15 13 0 14 -4 5 -20z"/>
</g>
</svg>
