<?xml version="1.0" standalone="no"?>
<!DOCTYPE svg PUBLIC "-//W3C//DTD SVG 20010904//EN"
 "http://www.w3.org/TR/2001/REC-SVG-20010904/DTD/svg10.dtd">
<svg version="1.0" xmlns="http://www.w3.org/2000/svg"
 width="256.000000pt" height="256.000000pt" viewBox="0 -256 256.000000 256.000000"
 preserveAspectRatio="xMidYMid meet">
<metadata>
Created by potrace 1.10, written by Peter Selinger 2001-2011
</metadata>
<g transform="scale(0.100000,-0.100000)" fill="#000000" stroke="none">
<path d="M1324 1961 c-56 -41 -72 -61 -97 -127 -23 -59 -24 -60 -137 -128 -63
-38 -158 -91 -209 -119 -80 -41 -101 -48 -132 -43 -49 8 -142 -27 -174 -66
-29 -35 -34 -102 -10 -148 19 -36 66 -70 98 -70 54 0 85 -12 91 -35 3 -12 34
-65 69 -116 128 -188 141 -215 143 -283 2 -91 30 -186 61 -215 22 -19 35 -22
73 -19 67 7 96 31 134 112 19 39 45 81 58 92 31 29 251 166 321 200 32 16 52
31 46 35 -7 4 23 7 66 8 42 1 81 3 85 6 5 3 28 7 51 9 49 5 75 31 85 84 16 83
-16 139 -95 169 -70 26 -87 39 -144 115 -28 39 -66 88 -84 111 -17 23 -48 74
-68 113 -23 45 -42 71 -50 68 -10 -4 -9 9 2 58 24 104 5 161 -67 198 -52 27
-70 25 -116 -9z m41 -30 c0 -8 -8 -19 -17 -25 -22 -13 -44 5 -34 29 7 20 51
16 51 -4z m125 -185 c0 -3 -5 -8 -12 -12 -7 -4 -8 -3 -4 4 7 12 16 16 16 8z
m-52 -52 c-14 -24 -18 -41 -12 -49 28 -40 204 -314 204 -319 0 -9 -100 32
-169 70 -35 19 -65 34 -66 32 -2 -2 -6 -30 -10 -63 l-7 -60 103 -48 c70 -33
110 -47 128 -44 89 17 106 18 87 6 -10 -6 -62 -18 -115 -26 -52 -8 -99 -19
-103 -26 -4 -7 -8 -24 -8 -40 0 -26 2 -27 38 -22 20 3 77 7 126 8 86 2 89 1
91 -20 2 -26 -7 -28 -37 -12 -12 6 -51 11 -86 10 -78 -2 -143 -30 -179 -78
-15 -19 -43 -39 -71 -49 -99 -34 -120 -57 -131 -139 -5 -36 -9 -40 -36 -42
-16 -1 -24 0 -17 3 6 3 12 12 12 20 0 8 11 37 25 64 14 27 22 57 19 67 -5 15
-4 16 5 3 6 -9 11 -10 11 -3 0 6 -13 21 -29 32 l-29 21 -40 -68 c-23 -38 -48
-74 -56 -81 -24 -20 -14 34 12 62 11 12 32 41 45 65 l24 44 -18 38 c-11 22
-19 43 -19 48 0 12 -39 47 -45 41 -2 -3 -8 -38 -11 -77 -4 -40 -10 -75 -14
-77 -4 -3 -47 56 -95 130 -83 129 -88 135 -138 154 -29 11 -43 20 -32 20 11 1
65 -22 120 -50 54 -29 113 -58 131 -65 l33 -14 12 38 c6 20 16 40 21 43 5 3
-50 35 -124 71 -73 36 -142 73 -153 82 -14 12 -6 10 24 -5 38 -18 55 -20 110
-15 l66 7 28 -35 c15 -19 27 -42 27 -51 0 -16 55 -45 87 -45 10 0 31 10 46 23
25 20 30 33 42 117 8 52 18 149 23 215 6 75 10 98 11 62 1 -59 -26 -344 -34
-358 -7 -10 89 -17 96 -7 3 5 11 63 18 131 16 165 30 237 53 270 28 39 31 33
6 -9z m-308 12 c0 -3 -5 -8 -12 -12 -7 -4 -8 -3 -4 4 7 12 16 16 16 8z m-30
-20 c0 -7 -262 -157 -266 -153 -3 3 253 155 264 157 1 0 2 -2 2 -4z m242 -98
c-6 -51 -14 -123 -18 -159 -6 -65 -17 -99 -29 -87 -3 3 -2 34 4 69 5 35 15
100 21 144 15 108 21 137 27 131 3 -3 1 -47 -5 -98z m-172 -23 c-7 -9 -15 -13
-19 -10 -3 3 1 10 9 15 21 14 24 12 10 -5z m-142 -47 c-6 -17 -36 -34 -44 -25
-4 4 1 14 12 22 23 18 37 19 32 3z m-345 -22 c7 -19 -18 -40 -38 -32 -18 7
-20 32 -2 39 22 10 35 7 40 -7z m407 4 c11 -7 4 -10 -25 -10 -29 0 -36 3 -25
10 8 5 20 10 25 10 6 0 17 -5 25 -10z m-221 -157 c30 -18 51 -33 47 -33 -14 0
-126 64 -126 73 0 4 6 5 13 0 6 -4 36 -22 66 -40z m889 -65 c-3 -7 -15 -14
-29 -16 -23 -2 -23 -2 -5 13 24 18 39 20 34 3z m-628 -450 c0 -36 -4 -35 -14
5 -4 16 -2 27 4 27 5 0 10 -14 10 -32z"/>
<path d="M1228 1242 c-21 -12 -28 -25 -28 -47 0 -16 -9 -41 -20 -55 -32 -41
-26 -83 18 -130 35 -36 43 -40 89 -40 63 0 97 25 129 93 26 56 23 94 -8 140
-37 53 -127 72 -180 39z m55 -36 c6 -16 -11 -36 -30 -36 -7 0 -13 11 -13 25 0
18 5 25 19 25 10 0 21 -6 24 -14z"/>
</g>
</svg>
