<?xml version="1.0" standalone="no"?>
<!DOCTYPE svg PUBLIC "-//W3C//DTD SVG 20010904//EN"
 "http://www.w3.org/TR/2001/REC-SVG-20010904/DTD/svg10.dtd">
<svg version="1.0" xmlns="http://www.w3.org/2000/svg"
 width="256.000000pt" height="256.000000pt" viewBox="0 -256 256.000000 256.000000"
 preserveAspectRatio="xMidYMid meet">
<metadata>
Created by potrace 1.10, written by Peter Selinger 2001-2011
</metadata>
<g transform="scale(0.100000,-0.100000)" fill="#000000" stroke="none">
<path d="M1119 1891 c-38 -12 -89 -52 -104 -81 -11 -22 -11 -39 1 -105 7 -44
14 -83 14 -87 0 -4 26 -36 59 -70 72 -78 80 -92 88 -168 9 -88 -18 -180 -68
-232 -38 -40 -38 -41 -24 -74 14 -34 9 -44 -13 -22 -9 9 -18 9 -37 0 -14 -7
-63 -12 -109 -12 -70 0 -88 -3 -111 -22 -33 -25 -55 -75 -55 -120 0 -53 43
-134 82 -154 42 -22 133 -23 173 -2 55 29 100 97 75 113 -5 3 -10 11 -10 17 0
6 6 6 15 -2 14 -11 15 -6 14 41 -1 30 4 68 11 84 11 29 12 30 27 10 11 -15 17
-16 20 -7 3 7 16 25 30 40 13 15 22 21 18 15 -9 -18 2 -16 33 6 15 11 38 22
52 26 21 5 22 4 7 -5 -65 -41 -60 -169 9 -241 22 -23 37 -28 109 -34 97 -8
134 5 166 60 12 19 26 32 33 29 8 -3 16 3 20 12 5 12 -3 26 -26 45 -18 16 -36
28 -40 29 -3 0 -20 22 -37 50 -30 49 -46 58 -131 73 -14 3 1 3 33 1 l57 -4 0
34 c0 21 8 40 21 52 l22 19 -7 -53 c-6 -44 -3 -62 14 -97 21 -44 75 -89 121
-100 43 -11 137 23 175 62 30 30 34 41 34 86 0 66 -41 151 -83 172 -78 39
-131 31 -223 -32 -61 -42 -66 -44 -61 -22 5 21 1 26 -38 42 -56 24 -98 72
-141 161 -38 79 -40 101 -19 183 23 87 20 173 -8 214 -36 54 -128 88 -188 70z
m34 -55 c16 -13 16 -15 2 -30 -19 -19 -61 -21 -71 -4 -4 6 3 19 16 30 26 21
29 22 53 4z m137 -502 c24 -56 25 -51 -2 -58 -13 -3 -39 -29 -58 -58 -34 -53
-67 -87 -84 -88 -4 0 7 19 26 43 55 67 71 104 64 152 -3 23 -2 45 1 49 16 16
35 2 53 -40z m130 -94 l35 -19 -30 -1 c-30 0 -55 15 -55 32 0 12 11 9 50 -12z
m264 4 c19 -7 22 -44 4 -44 -7 0 -23 -3 -35 -6 -19 -5 -23 -2 -23 18 0 37 16
46 54 32z m-337 -151 c-4 -3 -10 -3 -14 0 -3 4 0 7 7 7 7 0 10 -3 7 -7z m-418
-81 c13 -25 -4 -42 -41 -42 -23 0 -28 4 -28 23 0 13 3 27 7 30 13 14 53 6 62
-11z"/>
</g>
</svg>
