<?xml version="1.0" standalone="no"?>
<!DOCTYPE svg PUBLIC "-//W3C//DTD SVG 20010904//EN"
 "http://www.w3.org/TR/2001/REC-SVG-20010904/DTD/svg10.dtd">
<svg version="1.0" xmlns="http://www.w3.org/2000/svg"
 width="128.000000pt" height="128.000000pt" viewBox="10 -139 128.000000 128.000000"
 preserveAspectRatio="xMidYMid meet">
<metadata>
Created by potrace 1.15, written by Peter Selinger 2001-2017
</metadata>
<g transform="scale(0.1175,-0.1175)"
fill="#000000" stroke="none">
<path d="M380 962 c-70 -73 -71 -107 -7 -156 45 -35 98 -44 120 -21 16 15 22
14 92 -20 62 -29 75 -39 75 -59 0 -31 -20 -46 -61 -48 -38 -1 -84 20 -210 98
-48 30 -93 56 -102 59 -10 5 -28 -16 -63 -72 -26 -43 -54 -86 -63 -96 -17 -21
-24 -14 101 -107 85 -63 99 -78 109 -114 18 -66 30 -84 68 -102 31 -15 40 -15
74 -3 39 14 45 24 83 140 4 12 -8 26 -39 48 -37 25 -55 31 -100 31 -47 0 -63
6 -117 41 -67 46 -91 79 -71 103 15 18 38 12 192 -49 163 -64 172 -65 214 -21
36 39 72 132 62 161 -4 9 -43 33 -87 52 -73 33 -81 40 -90 73 -13 48 -81 110
-121 110 -7 0 -34 -22 -59 -48z m97 -48 c18 -28 12 -48 -20 -68 -12 -8 -21 -5
-36 8 -26 24 -26 41 -1 66 26 26 36 25 57 -6z m36 -456 c15 -24 -6 -68 -33
-68 -35 0 -46 61 -16 82 16 11 37 5 49 -14z"/>
<path d="M808 708 c-77 -98 -228 -332 -218 -342 5 -5 119 -11 255 -14 279 -5
267 -10 214 80 -53 91 -204 318 -211 318 -3 0 -21 -19 -40 -42z m53 -44 c28
-34 6 -205 -23 -176 -14 14 -32 134 -24 165 7 31 27 35 47 11z m9 -244 c0 -28
-27 -45 -45 -30 -20 16 -19 37 2 48 22 13 43 4 43 -18z"/>
</g>
</svg>
