<?xml version="1.0" standalone="no"?>
<!DOCTYPE svg PUBLIC "-//W3C//DTD SVG 20010904//EN"
 "http://www.w3.org/TR/2001/REC-SVG-20010904/DTD/svg10.dtd">
<svg version="1.0" xmlns="http://www.w3.org/2000/svg"
 width="128.000000pt" height="128.000000pt" viewBox="10 -139 128.000000 128.000000"
 preserveAspectRatio="xMidYMid meet">
<metadata>
Created by potrace 1.10, written by Peter Selinger 2001-2011
</metadata>
<g transform="scale(0.1175,-0.1175)"
fill="#000000" stroke="none">
<path d="M902 972 c-138 -194 -138 -194 -82 -205 l30 -6 0 -190 c0 -149 3
-191 14 -200 9 -8 51 -11 122 -9 l109 3 5 190 c3 105 9 196 13 203 5 6 19 12
33 12 14 0 24 6 24 15 0 18 -170 272 -187 279 -8 3 -41 -35 -81 -92z"/>
<path d="M330 1032 c-75 -22 -130 -78 -158 -162 -27 -78 -27 -127 -3 -206 31
-99 72 -164 171 -268 69 -73 207 -186 228 -186 18 0 100 60 160 118 34 33 42
47 42 76 0 46 -19 47 -63 3 -48 -49 -122 -107 -137 -107 -27 0 -169 129 -242
220 -84 105 -117 225 -89 325 13 47 61 102 97 111 52 13 141 -1 181 -29 48
-33 54 -33 103 -1 28 18 60 29 104 33 35 4 71 13 80 20 26 21 20 50 -11 57
-16 3 -34 8 -41 10 -18 5 -121 -25 -147 -42 -25 -18 -54 -18 -74 0 -15 13
-119 47 -138 45 -4 0 -33 -8 -63 -17z"/>
<path d="M509 833 c0 -4 -2 -31 -3 -59 -2 -28 -6 -56 -10 -62 -4 -7 -31 -12
-61 -12 -60 0 -75 -14 -75 -67 0 -41 17 -53 72 -53 40 0 50 -4 64 -25 11 -16
15 -37 12 -58 -3 -17 -3 -37 -1 -44 6 -18 64 -26 96 -14 24 9 27 15 27 58 0
67 10 77 77 83 l58 5 3 49 c4 58 -4 66 -70 66 -26 0 -50 5 -55 13 -4 6 -10 37
-13 67 l-5 55 -57 3 c-32 2 -58 -1 -59 -5z"/>
</g>
</svg>
