<?xml version="1.0" standalone="no"?>
<!DOCTYPE svg PUBLIC "-//W3C//DTD SVG 20010904//EN"
 "http://www.w3.org/TR/2001/REC-SVG-20010904/DTD/svg10.dtd">
<svg version="1.0" xmlns="http://www.w3.org/2000/svg"
 width="128.000000pt" height="128.000000pt" viewBox="10 -139 128.000000 128.000000"
 preserveAspectRatio="xMidYMid meet">
<metadata>
Created by potrace 1.15, written by Peter Selinger 2001-2017
</metadata>
<g transform="scale(0.1175,-0.1175)"
fill="#000000" stroke="none">
<path d="M638 1101 c-67 -26 -141 -83 -183 -141 -95 -130 -100 -306 -11 -395
36 -36 47 -31 29 12 -11 27 -14 58 -11 109 6 91 40 155 125 234 77 72 136 93
267 94 53 1 91 5 93 12 4 13 -71 67 -116 82 -50 17 -139 14 -193 -7z"/>
<path d="M713 955 c-28 -14 -73 -45 -99 -68 -46 -40 -104 -112 -104 -128 0 -4
19 1 43 11 139 62 242 17 298 -129 42 -109 33 -206 -31 -348 -24 -53 -26 -63
-12 -63 9 0 42 26 73 58 42 44 72 90 115 177 59 117 59 118 58 204 -1 97 -21
150 -88 228 -71 82 -162 103 -253 58z"/>
<path d="M328 860 c-55 -89 -71 -155 -72 -295 -1 -113 11 -147 66 -186 46 -33
87 -29 150 12 67 45 177 150 162 155 -6 3 -35 -7 -65 -21 -81 -37 -113 -34
-164 18 -28 28 -47 58 -55 87 -17 64 -9 210 14 244 9 15 16 35 14 44 -2 11
-20 -10 -50 -58z"/>
<path d="M650 756 c0 -2 9 -25 20 -51 40 -92 14 -196 -72 -290 -98 -108 -193
-138 -282 -90 -27 14 -51 24 -53 21 -21 -20 95 -134 180 -177 53 -28 127 -21
198 17 85 47 140 129 161 243 22 118 -27 268 -101 309 -38 22 -51 26 -51 18z"/>
</g>
</svg>
