<?xml version="1.0" standalone="no"?>
<!DOCTYPE svg PUBLIC "-//W3C//DTD SVG 20010904//EN"
 "http://www.w3.org/TR/2001/REC-SVG-20010904/DTD/svg10.dtd">
<svg version="1.0" xmlns="http://www.w3.org/2000/svg"
 width="124.000000pt" height="124.000000pt" viewBox="0 -100 124.000000 124.000000"
 preserveAspectRatio="xMidYMid meet">
<metadata>
Created by potrace 1.10, written by Peter Selinger 2001-2011
</metadata>
<g transform="scale(0.100000,-0.100000)"
fill="#000000" stroke="none">
<path d="M391 848 c-24 -79 -46 -146 -49 -150 -4 -3 -44 20 -90 53 -45 32 -86
59 -91 59 -5 0 -12 -53 -16 -117 -4 -65 -9 -121 -11 -125 -3 -4 -23 0 -46 8
-23 8 -43 12 -45 10 -8 -7 190 -306 198 -300 5 3 9 18 9 35 0 46 15 34 45 -36
15 -36 32 -68 37 -71 6 -4 50 33 99 82 49 49 89 85 89 80 0 -4 -6 -34 -14 -65
-29 -117 -29 -111 -1 -111 30 0 31 -4 4 -74 -12 -31 -20 -59 -17 -62 3 -3 42
4 86 15 105 27 107 27 78 -12 -15 -19 -26 -37 -26 -40 0 -4 100 -7 223 -7
l222 1 -54 28 -53 27 108 99 c60 54 113 102 119 107 6 5 -67 8 -178 6 -142 -2
-186 0 -183 9 3 6 28 43 55 81 28 39 51 74 51 78 0 5 -45 8 -100 6 -78 -3
-100 0 -100 10 0 11 129 386 156 453 10 24 30 37 -196 -129 -88 -65 -163 -116
-165 -114 -3 3 -25 71 -49 152 -25 81 -46 150 -49 152 -2 2 -23 -60 -46 -138z"/>
<path d="M1001 694 c-47 -8 -86 -16 -87 -17 -2 -2 -15 -29 -29 -60 l-25 -57
64 0 65 0 58 66 c32 36 60 70 61 75 4 11 -1 11 -107 -7z"/>
</g>
</svg>
