<?xml version="1.0" standalone="no"?>
<!DOCTYPE svg PUBLIC "-//W3C//DTD SVG 20010904//EN"
 "http://www.w3.org/TR/2001/REC-SVG-20010904/DTD/svg10.dtd">
<svg version="1.0" xmlns="http://www.w3.org/2000/svg"
 width="128.000000pt" height="128.000000pt" viewBox="0 -129 128.000000 128.000000"
 preserveAspectRatio="xMidYMid meet">
<metadata>
Created by potrace 1.15, written by Peter Selinger 2001-2017
</metadata>
<g transform="scale(0.1000,-0.1000)"
fill="#000000" stroke="none">
<path d="M234 1128 c-11 -17 -18 -170 -10 -212 5 -26 13 -37 36 -45 17 -5 30
-14 30 -20 0 -5 12 -23 26 -40 l25 -30 -33 -21 c-39 -24 -40 -24 -103 -5 -79
24 -158 2 -142 -39 8 -19 96 -64 167 -86 51 -15 57 -20 92 -81 20 -35 37 -74
37 -86 1 -25 -22 -31 -129 -36 l-65 -2 -3 -62 -3 -63 -60 0 c-60 0 -60 0 -57
-27 3 -27 5 -28 52 -26 32 1 59 9 77 22 l28 21 21 -40 c26 -52 54 -54 70 -5 6
19 27 47 46 61 18 14 49 48 69 75 55 78 75 63 75 -58 0 -64 13 -112 33 -125
19 -12 92 -9 111 5 17 12 17 14 -1 45 -17 29 -17 32 -1 48 23 23 38 9 38 -35
0 -56 19 -75 65 -68 62 10 75 29 75 109 0 38 5 78 11 89 10 19 13 17 57 -22
26 -22 61 -48 77 -56 36 -19 45 -31 45 -60 0 -12 8 -29 17 -38 16 -16 18 -16
35 5 10 12 18 28 18 35 0 7 7 19 16 26 14 11 18 11 28 -2 18 -25 52 -39 95
-39 31 0 41 4 46 20 9 30 -1 38 -53 46 -63 9 -72 18 -72 75 l0 49 -81 0 c-44
0 -89 5 -101 11 -25 13 -19 42 23 116 26 45 37 54 72 64 84 22 124 40 147 64
13 14 29 25 37 25 7 0 13 7 13 15 0 28 -49 37 -162 30 -98 -6 -107 -5 -116 12
-8 15 -4 29 18 65 16 25 40 57 53 70 17 17 26 41 31 81 8 61 -1 144 -16 153
-14 9 -78 -65 -100 -115 -32 -78 -62 -87 -140 -46 -42 22 -59 25 -159 25 -93
0 -117 -3 -143 -20 -18 -10 -51 -22 -73 -26 -40 -6 -44 -4 -82 37 -24 26 -43
58 -47 79 -12 64 -40 91 -60 58z m249 -492 c18 -7 45 -29 60 -49 47 -62 132
-58 183 9 38 49 112 65 136 30 15 -22 7 -43 -29 -79 -28 -29 -44 -37 -72 -37
-57 0 -81 -10 -97 -41 -19 -37 -33 -37 -47 1 -10 25 -18 30 -57 35 -99 13
-109 16 -134 46 -28 33 -33 68 -14 87 15 15 31 15 71 -2z"/>
</g>
</svg>
