<?xml version="1.0" standalone="no"?>
<!DOCTYPE svg PUBLIC "-//W3C//DTD SVG 20010904//EN"
 "http://www.w3.org/TR/2001/REC-SVG-20010904/DTD/svg10.dtd">
<svg version="1.0" xmlns="http://www.w3.org/2000/svg"
 width="128.000000pt" height="128.000000pt" viewBox="10 -139 128.000000 128.000000"
 preserveAspectRatio="xMidYMid meet">
<metadata>
Created by potrace 1.15, written by Peter Selinger 2001-2017
</metadata>
<g transform="scale(0.1175,-0.1175)"
fill="#000000" stroke="none">
<path d="M605 1148 c-11 -6 -39 -28 -61 -50 -31 -30 -52 -41 -85 -45 -24 -3
-52 -10 -61 -15 -25 -13 -51 -66 -44 -93 8 -31 88 -119 143 -156 24 -17 43
-32 41 -34 -2 -2 -49 3 -104 12 -115 19 -146 14 -186 -29 -41 -44 -38 -81 12
-127 38 -35 40 -39 40 -98 0 -84 20 -109 88 -107 77 3 109 24 211 144 37 44
48 35 27 -22 -23 -61 -37 -183 -25 -218 12 -32 75 -80 105 -80 12 0 29 9 40
21 30 33 69 49 123 49 39 0 56 6 80 26 62 52 37 118 -92 251 l-50 52 119 -2
c82 -1 129 2 151 12 90 37 82 158 -14 197 -37 16 -40 25 -18 57 29 46 -35 117
-106 117 -28 0 -43 -10 -91 -60 -31 -33 -62 -76 -69 -95 -7 -19 -16 -35 -20
-35 -13 0 -15 32 -11 142 l5 108 -45 45 c-46 46 -68 53 -103 33z m-8 -169 c45
-28 63 -66 63 -136 l0 -58 -36 65 c-20 36 -47 78 -60 93 -26 30 -31 57 -13 57
7 0 27 -9 46 -21z m313 -190 c-46 -22 -92 -47 -102 -56 -28 -25 -33 -8 -8 31
33 55 56 66 130 66 l65 -1 -85 -40z m-320 -129 c0 -10 -45 -24 -115 -36 -22
-3 -54 -15 -72 -26 -46 -27 -54 -4 -11 31 43 33 198 58 198 31z m183 -118 c30
-31 43 -98 29 -147 -14 -49 -34 -36 -48 30 -6 33 -19 78 -28 99 -20 47 -20 46
2 46 10 0 30 -13 45 -28z"/>
<path d="M499 395 c-103 -72 -160 -104 -212 -115 -63 -13 -107 -37 -107 -57 0
-13 9 -15 58 -11 72 7 176 53 231 103 48 44 106 114 99 121 -3 2 -34 -16 -69
-41z"/>
</g>
</svg>
