<?xml version="1.0" standalone="no"?>
<!DOCTYPE svg PUBLIC "-//W3C//DTD SVG 20010904//EN"
 "http://www.w3.org/TR/2001/REC-SVG-20010904/DTD/svg10.dtd">
<svg version="1.0" xmlns="http://www.w3.org/2000/svg"
 width="128.000000pt" height="128.000000pt" viewBox="10 -139 128.000000 128.000000"
 preserveAspectRatio="xMidYMid meet">
<metadata>
Created by potrace 1.10, written by Peter Selinger 2001-2011
</metadata>
<g transform="scale(0.1175,-0.1175)"
fill="#000000" stroke="none">
<path d="M464 1061 c-112 -52 -159 -151 -152 -327 4 -121 16 -143 92 -178 30
-14 60 -34 65 -45 6 -11 11 -58 11 -105 0 -75 2 -87 20 -96 53 -28 252 -19
272 13 4 6 8 51 8 99 0 57 4 91 13 99 6 6 39 25 72 42 56 30 61 35 73 82 15
59 10 210 -9 269 -7 21 -33 60 -56 87 -61 67 -123 89 -251 89 -85 -1 -105 -4
-158 -29z m106 -286 c17 -20 6 -102 -19 -135 -10 -15 -30 -26 -47 -28 -68 -7
-143 88 -114 143 15 29 26 32 106 34 44 1 65 -3 74 -14z m278 -1 c16 -11 22
-25 22 -54 0 -64 -79 -124 -139 -105 -40 12 -69 133 -39 163 18 18 129 15 156
-4z m-194 -166 c26 -36 20 -47 -24 -46 -44 0 -53 18 -23 50 21 23 29 23 47 -4z"/>
<path d="M170 590 c-11 -11 -20 -33 -20 -50 0 -17 -7 -41 -15 -54 -13 -19 -14
-28 -4 -50 15 -32 44 -41 111 -32 50 7 158 -17 158 -34 0 -13 -56 -20 -107
-13 -58 6 -79 -10 -69 -54 3 -16 9 -39 12 -53 6 -29 12 -36 40 -44 15 -5 31 1
53 20 18 15 47 30 64 33 l32 7 0 97 c0 54 -3 106 -6 116 -4 9 -27 24 -50 31
-26 9 -61 32 -86 57 -46 48 -81 55 -113 23z"/>
<path d="M986 569 c-24 -24 -58 -47 -84 -54 -61 -19 -72 -31 -72 -79 0 -58 14
-69 59 -49 25 11 63 16 126 15 69 -1 93 2 107 15 22 20 23 66 2 84 -9 8 -14
22 -11 37 6 30 -31 72 -64 72 -12 0 -40 -18 -63 -41z"/>
<path d="M826 319 c-8 -49 -5 -55 35 -63 17 -3 50 -20 75 -38 37 -27 47 -30
68 -20 14 6 26 22 29 39 20 94 20 90 -7 108 -22 15 -31 15 -56 5 -22 -9 -37
-9 -61 -1 -60 21 -76 15 -83 -30z"/>
</g>
</svg>
