<?xml version="1.0" standalone="no"?>
<!DOCTYPE svg PUBLIC "-//W3C//DTD SVG 20010904//EN"
 "http://www.w3.org/TR/2001/REC-SVG-20010904/DTD/svg10.dtd">
<svg version="1.0" xmlns="http://www.w3.org/2000/svg"
 width="128.000000pt" height="128.000000pt" viewBox="10 -139 128.000000 128.000000"
 preserveAspectRatio="xMidYMid meet">
<metadata>
Created by potrace 1.15, written by Peter Selinger 2001-2017
</metadata>
<g transform="scale(0.1175,-0.1175)"
fill="#000000" stroke="none">
<path d="M582 1113 c-62 -36 -220 -66 -308 -59 l-71 6 -6 -63 c-7 -80 8 -254
29 -326 29 -102 92 -208 177 -297 77 -81 227 -214 242 -214 17 0 197 154 256
219 82 90 133 175 166 276 22 69 27 102 31 240 l4 160 -108 1 c-120 0 -211 20
-283 60 -53 29 -74 29 -129 -3z m108 -138 c3 -20 16 -36 39 -50 66 -40 119
-95 128 -133 8 -35 11 -37 53 -40 56 -4 72 -17 68 -56 -2 -22 -9 -32 -23 -34
-54 -8 -65 -15 -95 -62 -34 -52 -92 -110 -113 -110 -26 0 -41 -20 -46 -62 -6
-42 -7 -43 -41 -40 -40 3 -58 16 -62 45 -2 13 -25 36 -61 60 -37 24 -70 57
-92 91 -40 64 -52 73 -90 78 -27 3 -30 7 -33 41 l-3 37 44 0 c44 0 46 1 75 53
32 58 76 100 129 125 27 13 33 21 33 47 0 41 7 47 50 43 30 -3 36 -7 40 -33z"/>
<path d="M548 813 c-24 -27 -48 -65 -48 -78 0 -3 12 -2 26 1 50 13 61 -47 14
-71 -38 -19 -38 -39 -1 -76 38 -38 61 -38 61 0 0 22 5 30 23 33 39 7 71 -6 77
-32 8 -36 40 -32 67 9 29 43 29 49 -2 61 -20 8 -25 16 -25 45 0 32 3 36 31 42
l30 6 -42 43 c-49 50 -64 54 -73 19 -7 -26 -43 -42 -72 -31 -11 4 -14 13 -10
31 9 35 -22 34 -56 -2z m140 -106 c2 -18 -3 -29 -19 -37 -42 -23 -87 18 -61
56 21 32 75 19 80 -19z"/>
</g>
</svg>
