<?xml version="1.0" standalone="no"?>
<!DOCTYPE svg PUBLIC "-//W3C//DTD SVG 20010904//EN"
 "http://www.w3.org/TR/2001/REC-SVG-20010904/DTD/svg10.dtd">
<svg version="1.0" xmlns="http://www.w3.org/2000/svg"
 width="128.000000pt" height="128.000000pt" viewBox="10 -130 128.000000 128.000000"
 preserveAspectRatio="xMidYMid meet">
<metadata>
Created by potrace 1.10, written by Peter Selinger 2001-2011
</metadata>
<g transform="scale(0.1175,-0.1175)"
fill="#000000" stroke="none">
<path d="M715 1139 c-64 -49 -111 -69 -160 -69 -48 0 -141 26 -151 41 -9 15
-51 10 -58 -7 -3 -9 -6 -30 -6 -48 0 -59 -29 -134 -65 -169 -19 -19 -65 -47
-102 -62 -38 -15 -71 -31 -76 -35 -4 -3 11 -31 34 -61 87 -116 94 -152 53
-264 -39 -107 -39 -109 26 -116 88 -9 157 -37 184 -72 14 -18 41 -65 61 -105
24 -49 40 -70 48 -65 7 4 38 26 70 49 31 23 74 48 93 54 49 17 123 7 185 -25
28 -14 54 -23 58 -21 3 3 8 28 9 56 2 61 32 133 70 173 25 26 86 61 155 86 15
6 27 15 27 21 0 6 -17 34 -39 63 -54 72 -71 110 -71 155 0 42 24 123 48 159
22 34 9 53 -36 53 -54 0 -141 27 -180 57 -29 22 -78 107 -96 166 -8 25 -36 20
-81 -14z m-161 -319 c40 -38 79 -70 87 -70 8 0 46 32 84 70 38 39 77 70 85 70
9 0 33 -18 54 -39 46 -47 45 -50 -48 -138 -36 -35 -66 -69 -66 -76 0 -7 34
-46 75 -87 41 -41 75 -77 75 -81 0 -9 -83 -89 -91 -89 -4 0 -42 34 -86 75 -43
41 -81 75 -84 75 -4 0 -41 -34 -82 -75 -42 -41 -80 -75 -85 -75 -11 0 -92 79
-92 89 0 4 34 40 75 81 41 41 75 80 75 86 0 6 -34 45 -75 86 -41 41 -75 80
-75 86 0 13 77 82 91 82 6 0 44 -31 83 -70z"/>
</g>
</svg>
