<?xml version="1.0" standalone="no"?>
<!DOCTYPE svg PUBLIC "-//W3C//DTD SVG 20010904//EN"
 "http://www.w3.org/TR/2001/REC-SVG-20010904/DTD/svg10.dtd">
<svg version="1.0" xmlns="http://www.w3.org/2000/svg"
 width="128.000000pt" height="128.000000pt" viewBox="10 -139 128.000000 128.000000"
 preserveAspectRatio="xMidYMid meet">
<metadata>
Created by potrace 1.15, written by Peter Selinger 2001-2017
</metadata>
<g transform="scale(0.1175,-0.1175)"
fill="#000000" stroke="none">
<path d="M523 1045 c-57 -22 -167 -41 -273 -47 -44 -3 -45 -3 -53 -48 -19
-102 17 -294 78 -415 53 -106 237 -304 328 -351 26 -14 31 -13 75 12 26 15 97
77 158 138 93 94 117 124 153 196 23 47 48 110 56 140 17 63 31 264 21 304 -6
25 -10 26 -70 26 -76 0 -187 20 -270 49 -75 27 -126 26 -203 -4z m154 -180
c39 -74 61 -92 121 -100 99 -14 101 -17 37 -100 -57 -72 -61 -90 -40 -161 24
-83 2 -89 -102 -28 -54 31 -63 30 -133 -9 -48 -26 -63 -30 -77 -21 -19 12 -19
18 -8 104 7 56 7 56 -39 110 -26 30 -45 61 -44 69 2 10 29 21 77 32 54 12 79
24 92 40 10 13 19 27 19 31 1 23 42 99 53 96 6 -2 26 -31 44 -63z"/>
</g>
</svg>
