<?xml version="1.0" standalone="no"?>
<!DOCTYPE svg PUBLIC "-//W3C//DTD SVG 20010904//EN"
 "http://www.w3.org/TR/2001/REC-SVG-20010904/DTD/svg10.dtd">
<svg version="1.0" xmlns="http://www.w3.org/2000/svg"
 width="128.000000pt" height="128.000000pt" viewBox="10 -139 128.000000 128.000000"
 preserveAspectRatio="xMidYMid meet">
<metadata>
Created by potrace 1.15, written by Peter Selinger 2001-2017
</metadata>
<g transform="scale(0.1175,-0.1175)"
fill="#000000" stroke="none">
<path d="M556 1018 c-57 -65 -59 -92 -11 -112 43 -18 55 -47 55 -129 l1 -62
23 29 c36 43 96 148 96 167 0 9 -17 24 -37 35 -49 24 -53 31 -53 82 0 57 -17
55 -74 -10z"/>
<path d="M786 840 c-42 -60 -76 -114 -76 -120 0 -6 11 -15 24 -21 32 -15 36
-32 36 -176 0 -67 4 -133 10 -147 9 -25 12 -26 104 -26 63 0 97 4 104 13 5 6
14 82 19 167 8 151 9 155 33 167 14 7 24 18 22 24 -2 10 -117 174 -147 212
-30 36 -51 21 -129 -93z"/>
<path d="M220 896 c0 -10 46 -106 67 -139 l23 -37 40 20 c49 25 53 25 98 -4
47 -31 92 -43 92 -25 0 17 -72 137 -100 167 -22 23 -25 23 -72 -12 l-28 -19
-49 26 c-44 25 -71 33 -71 23z"/>
<path d="M302 631 c-8 -5 -12 -24 -10 -51 2 -44 3 -43 -64 -92 l-23 -16 25
-10 c14 -5 58 -12 99 -15 l74 -6 -6 39 c-6 47 10 73 62 99 20 11 43 26 49 34
10 12 6 15 -25 21 -54 8 -166 7 -181 -3z"/>
<path d="M647 604 c-8 -8 52 -124 63 -124 10 0 20 26 20 52 0 11 -13 33 -29
49 -30 29 -42 34 -54 23z"/>
<path d="M520 501 c-48 -81 -56 -124 -24 -129 34 -5 52 -33 56 -87 4 -72 26
-71 77 6 45 68 51 95 21 104 -34 11 -50 35 -50 74 0 58 -11 101 -26 101 -7 0
-32 -31 -54 -69z"/>
</g>
</svg>
