<?xml version="1.0" standalone="no"?>
<!DOCTYPE svg PUBLIC "-//W3C//DTD SVG 20010904//EN"
 "http://www.w3.org/TR/2001/REC-SVG-20010904/DTD/svg10.dtd">
<svg version="1.0" xmlns="http://www.w3.org/2000/svg"
 width="128.000000pt" height="128.000000pt" viewBox="10 -139 128.000000 128.000000"
 preserveAspectRatio="xMidYMid meet">
<metadata>
Created by potrace 1.15, written by Peter Selinger 2001-2017
</metadata>
<g transform="scale(0.1175,-0.1175)"
fill="#000000" stroke="none">
<path d="M352 1039 c-4 -11 -19 -25 -32 -32 -34 -17 -36 -35 -3 -39 21 -2 29
-9 31 -28 6 -43 21 -46 37 -7 13 31 20 37 45 37 40 0 38 18 -4 35 -19 8 -37
24 -41 35 -8 26 -24 26 -33 -1z"/>
<path d="M889 1028 c-15 -29 -28 -38 -56 -38 -32 0 -28 -17 7 -35 17 -9 39
-29 49 -45 18 -31 31 -30 31 2 0 11 15 27 35 39 40 24 45 39 12 39 -28 0 -47
17 -47 42 0 25 -17 23 -31 -4z"/>
<path d="M655 980 c-3 -5 -15 -10 -26 -10 -10 0 -19 -4 -19 -10 0 -5 -7 -10
-15 -10 -51 0 -175 -92 -175 -130 0 -5 -3 -10 -7 -10 -5 0 -26 -34 -48 -75
-22 -41 -43 -75 -47 -75 -5 0 -8 -9 -8 -19 0 -11 -4 -23 -10 -26 -19 -12 -6
-84 19 -105 3 -3 15 -23 27 -45 22 -42 21 -49 -13 -182 -4 -17 0 -24 13 -29
11 -3 27 -10 36 -15 10 -5 27 -9 37 -9 11 0 23 -5 26 -10 3 -6 21 -10 39 -10
17 0 36 -4 41 -9 6 -6 50 -18 99 -27 70 -14 92 -15 105 -5 9 6 24 14 34 17 9
4 17 10 17 15 0 5 9 9 20 9 11 0 20 5 20 10 0 6 7 10 15 10 8 0 15 5 15 10 0
6 5 10 11 10 12 0 102 68 169 128 l45 40 -17 58 c-21 74 -59 180 -79 219 -9
18 -42 47 -89 76 -60 36 -79 55 -96 90 -12 24 -44 63 -72 87 -55 46 -58 47
-67 32z m18 -100 c-2 -56 -16 -141 -27 -158 -10 -17 -101 -62 -125 -62 -11 0
-23 -4 -26 -10 -3 -5 -18 -10 -33 -10 -15 0 -47 -14 -71 -30 -52 -35 -61 -37
-61 -10 0 11 5 20 10 20 6 0 10 7 10 15 0 8 5 15 10 15 6 0 10 5 10 11 0 7 16
31 35 55 19 23 35 49 35 58 0 9 5 16 10 16 6 0 10 7 10 15 0 8 4 15 9 15 5 0
11 9 14 20 3 11 18 25 34 31 15 6 39 16 53 21 14 6 36 17 50 24 42 23 55 14
53 -36z m44 -237 c14 -35 14 -35 -31 -83 -41 -43 -46 -54 -46 -94 0 -42 -3
-47 -32 -60 -18 -7 -64 -37 -102 -65 -88 -65 -112 -65 -109 0 2 64 17 89 98
160 113 100 185 170 185 180 0 19 22 -4 37 -38z"/>
<path d="M505 960 c-3 -5 -1 -10 4 -10 6 0 11 5 11 10 0 6 -2 10 -4 10 -3 0
-8 -4 -11 -10z"/>
<path d="M232 846 c-16 -26 -28 -36 -47 -36 -36 0 -31 -19 10 -36 24 -10 37
-23 41 -42 11 -44 16 -47 28 -12 7 22 23 40 46 53 52 28 58 37 24 37 -36 0
-47 8 -66 44 l-15 28 -21 -36z"/>
</g>
</svg>
