<?xml version="1.0" standalone="no"?>
<!DOCTYPE svg PUBLIC "-//W3C//DTD SVG 20010904//EN"
 "http://www.w3.org/TR/2001/REC-SVG-20010904/DTD/svg10.dtd">
<svg version="1.0" xmlns="http://www.w3.org/2000/svg"
 width="128.000000pt" height="128.000000pt" viewBox="10 -139 128.000000 128.000000"
 preserveAspectRatio="xMidYMid meet">
<metadata>
Created by potrace 1.15, written by Peter Selinger 2001-2017
</metadata>
<g transform="scale(0.1175,-0.1175)"
fill="#000000" stroke="none">
<path d="M575 1045 c-62 -30 -222 -58 -292 -53 l-53 5 0 -116 c0 -268 74 -431
270 -595 50 -42 103 -82 120 -91 29 -15 30 -14 87 34 87 72 226 221 257 274
65 111 102 282 90 418 l-7 81 -53 -7 c-71 -9 -191 10 -288 46 -44 16 -80 29
-80 28 -1 0 -24 -11 -51 -24z m155 -167 c60 -31 90 -88 90 -175 0 -55 -4 -66
-29 -96 -39 -43 -101 -66 -135 -48 -30 17 -51 54 -42 77 6 16 8 15 22 -4 18
-26 36 -28 70 -6 73 48 70 144 -6 207 -50 43 -93 50 -159 26 -31 -12 -67 -24
-81 -27 -23 -5 -24 -4 -10 13 47 57 198 74 280 33z m-68 -64 c31 -16 68 -60
68 -82 0 -17 -38 -62 -52 -62 -4 0 -8 13 -8 29 0 37 -40 71 -84 71 -70 0 -126
-67 -126 -152 0 -54 23 -93 90 -149 54 -46 54 -59 -2 -36 -85 36 -138 117
-138 212 0 144 129 230 252 169z m222 -132 c-2 -97 -51 -176 -123 -201 -50
-16 -156 -14 -192 5 -39 19 -68 84 -69 147 0 61 24 87 80 87 22 0 40 -3 40 -6
0 -3 -11 -19 -25 -36 -28 -34 -32 -66 -10 -107 17 -33 39 -41 119 -41 54 0 61
3 96 38 40 40 60 91 60 157 0 31 2 36 13 26 7 -7 12 -35 11 -69z"/>
</g>
</svg>
