<?xml version="1.0" standalone="no"?>
<!DOCTYPE svg PUBLIC "-//W3C//DTD SVG 20010904//EN"
 "http://www.w3.org/TR/2001/REC-SVG-20010904/DTD/svg10.dtd">
<svg version="1.0" xmlns="http://www.w3.org/2000/svg"
 width="128.000000pt" height="128.000000pt" viewBox="10 -139 128.000000 128.000000"
 preserveAspectRatio="xMidYMid meet">
<metadata>
Created by potrace 1.15, written by Peter Selinger 2001-2017
</metadata>
<g transform="scale(0.1175,-0.1175)"
fill="#000000" stroke="none">
<path d="M909 1071 c-23 -19 -24 -24 -25 -178 0 -148 -2 -163 -28 -233 -36
-96 -60 -142 -107 -210 -31 -45 -41 -69 -50 -133 -13 -88 -43 -137 -84 -137
-54 0 -70 -23 -37 -53 44 -40 131 1 145 68 13 62 40 115 89 175 65 80 124 178
188 315 48 103 65 127 108 164 29 23 52 50 52 58 0 8 -13 28 -29 44 -22 22
-39 29 -68 29 -21 0 -43 -4 -49 -8 -18 -12 -34 -49 -34 -79 -1 -69 -37 -67
-47 3 -4 33 0 45 27 79 25 31 28 41 17 43 -9 2 -27 -4 -41 -14 -25 -16 -26
-16 -26 4 0 29 35 45 86 39 33 -3 44 -1 44 9 0 35 -93 46 -131 15z"/>
<path d="M132 1038 c-6 -6 -12 -17 -12 -23 0 -6 32 -65 71 -131 103 -172 183
-340 230 -487 50 -154 66 -177 119 -177 111 0 147 80 60 135 -49 31 -78 75
-152 236 -60 129 -98 274 -98 373 0 56 -26 92 -59 81 -15 -5 -21 -12 -17 -23
33 -102 32 -132 -6 -140 -12 -2 -17 10 -20 53 -6 68 -33 109 -74 113 -16 2
-35 -3 -42 -10z"/>
</g>
</svg>
