<?xml version="1.0" standalone="no"?>
<!DOCTYPE svg PUBLIC "-//W3C//DTD SVG 20010904//EN"
 "http://www.w3.org/TR/2001/REC-SVG-20010904/DTD/svg10.dtd">
<svg version="1.0" xmlns="http://www.w3.org/2000/svg"
 width="128.000000pt" height="128.000000pt" viewBox="10 -139 128.000000 128.000000"
 preserveAspectRatio="xMidYMid meet">
<metadata>
Created by potrace 1.10, written by Peter Selinger 2001-2011
</metadata>
<g transform="scale(0.1175,-0.1175)"
fill="#000000" stroke="none">
<path d="M595 1123 c-89 -47 -162 -64 -291 -70 l-122 -6 -6 -51 c-29 -247 50
-472 234 -657 78 -78 218 -189 239 -189 20 0 170 119 239 188 164 167 234 332
235 557 1 168 5 161 -99 157 -107 -4 -205 16 -303 63 -40 19 -73 35 -74 35 -1
-1 -24 -13 -52 -27z m105 -197 c71 -29 107 -99 95 -188 -6 -44 -11 -51 -46
-68 -37 -20 -39 -22 -39 -70 0 -56 -4 -60 -63 -65 -72 -5 -87 6 -87 65 0 49
-1 52 -35 66 -43 17 -58 51 -53 114 6 66 35 118 77 140 39 21 108 24 151 6z
m-241 -250 c13 -13 34 -27 47 -30 20 -5 24 -13 24 -45 0 -22 3 -46 6 -55 4
-10 -2 -19 -17 -26 -13 -5 -32 -15 -41 -22 -22 -16 -38 -1 -41 38 -2 27 1 29
43 34 41 5 43 6 20 14 -14 5 -44 8 -66 7 -41 -1 -63 17 -48 40 3 5 7 19 9 31
4 19 21 37 36 38 3 0 16 -11 28 -24z m426 -32 c3 -20 3 -40 -2 -44 -12 -11
-142 -19 -149 -9 -10 17 7 48 29 55 12 4 35 17 50 30 36 31 62 19 72 -32z
m-45 -90 c13 -13 -4 -64 -21 -64 -7 0 -30 8 -50 18 -27 12 -39 23 -39 39 0 19
5 21 50 20 27 -1 54 -7 60 -13z"/>
<path d="M524 775 c-21 -15 -11 -50 22 -72 23 -14 26 -14 44 2 19 17 28 74 13
76 -44 6 -66 4 -79 -6z"/>
<path d="M664 781 c-18 -19 10 -91 36 -91 31 0 72 72 49 86 -12 7 -78 11 -85
5z"/>
<path d="M620 690 c-9 -18 -8 -20 15 -20 23 0 24 2 15 20 -6 11 -13 20 -15 20
-2 0 -9 -9 -15 -20z"/>
</g>
</svg>
