<?xml version="1.0" standalone="no"?>
<!DOCTYPE svg PUBLIC "-//W3C//DTD SVG 20010904//EN"
 "http://www.w3.org/TR/2001/REC-SVG-20010904/DTD/svg10.dtd">
<svg version="1.0" xmlns="http://www.w3.org/2000/svg"
 width="128.000000pt" height="128.000000pt" viewBox="10 -139 128.000000 128.000000"
 preserveAspectRatio="xMidYMid meet">
<metadata>
Created by potrace 1.15, written by Peter Selinger 2001-2017
</metadata>
<g transform="scale(0.1175,-0.1175)"
fill="#000000" stroke="none">
<path d="M678 1121 c-13 -11 -50 -49 -82 -86 l-59 -66 51 -142 c29 -78 61
-173 72 -210 28 -92 45 -107 118 -107 93 0 214 43 286 103 35 29 37 65 6 163
-11 37 -20 77 -20 90 0 23 -91 207 -114 232 -12 12 -163 42 -212 42 -12 0 -32
-9 -46 -19z m235 -277 c19 -16 42 -34 52 -40 24 -13 11 -34 -21 -34 -36 0 -76
23 -113 65 -24 28 -31 45 -31 78 0 24 6 49 12 55 10 10 18 1 40 -41 14 -30 42
-67 61 -83z"/>
<path d="M529 683 c-8 -9 -65 -59 -126 -110 -69 -58 -115 -103 -119 -119 -7
-28 10 -54 36 -54 19 0 216 134 263 178 29 27 35 68 17 103 -13 23 -53 25 -71
2z"/>
<path d="M315 360 c-3 -5 -37 -19 -75 -30 -65 -19 -70 -23 -76 -54 -12 -67 12
-91 90 -88 134 6 210 89 141 157 -24 25 -69 33 -80 15z m35 -70 c0 -22 -38
-37 -66 -26 -15 6 -15 8 1 26 24 27 65 27 65 0z"/>
</g>
</svg>
