<?xml version="1.0" standalone="no"?>
<!DOCTYPE svg PUBLIC "-//W3C//DTD SVG 20010904//EN"
 "http://www.w3.org/TR/2001/REC-SVG-20010904/DTD/svg10.dtd">
<svg version="1.0" xmlns="http://www.w3.org/2000/svg"
 width="128.000000pt" height="128.000000pt" viewBox="10 -139 128.000000 128.000000"
 preserveAspectRatio="xMidYMid meet">
<metadata>
Created by potrace 1.15, written by Peter Selinger 2001-2017
</metadata>
<g transform="scale(0.1175,-0.1175)"
fill="#000000" stroke="none">
<path d="M523 1095 c-38 -16 -41 -35 -16 -85 22 -45 30 -174 12 -196 -7 -9
-37 -27 -66 -40 -71 -31 -133 -83 -178 -149 -31 -44 -38 -65 -42 -118 -5 -55
-2 -73 19 -118 33 -72 97 -132 185 -176 64 -31 84 -36 167 -41 167 -8 288 31
379 124 152 154 94 367 -130 472 -37 18 -75 36 -83 41 -11 6 -16 30 -18 92 -2
71 0 87 18 111 49 67 8 98 -127 98 -53 -1 -101 -6 -120 -15z m95 -381 c12 -8
29 -28 37 -44 27 -52 19 -78 -40 -141 -68 -74 -78 -114 -45 -175 12 -24 40
-55 61 -70 21 -15 39 -30 39 -34 0 -27 -109 -13 -195 24 -105 47 -164 125
-165 219 0 61 17 94 76 146 88 78 184 109 232 75z"/>
</g>
</svg>
