<?xml version="1.0" standalone="no"?>
<!DOCTYPE svg PUBLIC "-//W3C//DTD SVG 20010904//EN"
 "http://www.w3.org/TR/2001/REC-SVG-20010904/DTD/svg10.dtd">
<svg version="1.0" xmlns="http://www.w3.org/2000/svg"
 width="128.000000pt" height="128.000000pt" viewBox="10 -139 128.000000 128.000000"
 preserveAspectRatio="xMidYMid meet">
<metadata>
Created by potrace 1.15, written by Peter Selinger 2001-2017
</metadata>
<g transform="scale(0.1175,-0.1175)"
fill="#000000" stroke="none">
<path d="M600 1009 c-43 -29 -48 -30 -125 -25 -44 3 -92 8 -106 12 -25 6 -26
4 -33 -47 -12 -86 -42 -127 -123 -168 -23 -11 -45 -26 -48 -32 -4 -6 7 -28 24
-49 55 -69 64 -120 35 -201 -21 -59 -15 -76 33 -85 83 -15 150 -67 162 -126 9
-46 43 -48 113 -9 61 35 104 39 169 16 24 -9 49 -13 56 -11 14 6 18 185 6 309
-5 62 -8 68 -32 73 -69 14 -70 36 -6 133 l46 68 -39 62 c-22 33 -43 72 -46 86
-8 33 -31 32 -86 -6z m-105 -133 c27 -27 50 -70 95 -179 21 -51 43 -86 61 -99
24 -18 29 -29 29 -65 0 -23 10 -63 22 -87 18 -38 19 -47 8 -61 -20 -25 -41
-14 -70 35 -21 37 -33 46 -61 50 -32 5 -34 7 -37 49 -3 36 -15 61 -62 126 -33
44 -66 97 -75 118 -15 37 -21 118 -8 130 16 16 75 6 98 -17z"/>
<path d="M909 937 c-34 -43 -83 -115 -102 -153 -16 -30 -15 -33 5 -60 20 -25
23 -42 26 -186 l4 -158 99 0 c55 0 99 1 100 3 0 1 4 73 8 160 7 144 10 160 31
182 13 14 20 31 17 40 -19 47 -140 206 -156 204 -4 0 -18 -15 -32 -32z"/>
</g>
</svg>
