<?xml version="1.0" standalone="no"?>
<!DOCTYPE svg PUBLIC "-//W3C//DTD SVG 20010904//EN"
 "http://www.w3.org/TR/2001/REC-SVG-20010904/DTD/svg10.dtd">
<svg version="1.0" xmlns="http://www.w3.org/2000/svg"
 width="128.000000pt" height="128.000000pt" viewBox="10 -129 128.000000 128.000000"
 preserveAspectRatio="xMidYMid meet">
<metadata>
Created by potrace 1.10, written by Peter Selinger 2001-2011
</metadata>
<g transform="scale(0.1175,-0.1175)"
fill="#000000" stroke="none">
<path d="M570 1066 c0 -51 -1 -54 -29 -59 -117 -24 -244 -142 -273 -254 l-10
-43 -49 0 -49 0 0 -70 0 -70 48 0 48 0 17 -52 c33 -105 131 -199 243 -235 l54
-17 0 -53 0 -53 70 0 70 0 0 53 0 53 54 17 c112 36 210 130 243 235 l17 52 48
0 48 0 0 70 0 70 -49 0 -49 0 -10 43 c-29 112 -156 230 -273 254 -28 5 -29 8
-29 59 l0 54 -70 0 -70 0 0 -54z m0 -221 l0 -65 70 0 70 0 0 65 c0 36 2 65 5
65 16 0 80 -32 111 -56 31 -24 94 -115 94 -136 0 -5 -31 -8 -70 -8 l-70 0 0
-70 0 -70 70 0 c39 0 70 -2 70 -5 0 -12 -33 -71 -57 -103 -24 -31 -115 -92
-140 -92 -9 0 -13 20 -13 65 l0 65 -70 0 -70 0 0 -65 c0 -39 -4 -65 -10 -65
-16 0 -70 29 -108 57 -28 21 -92 115 -92 136 0 4 32 7 70 7 l70 0 0 70 0 70
-70 0 c-38 0 -70 3 -70 8 0 21 63 112 94 136 33 25 91 55 109 56 4 0 7 -29 7
-65z"/>
<path d="M592 687 c-28 -30 -28 -68 1 -95 30 -28 68 -28 95 1 28 30 28 68 -1
95 -30 28 -68 28 -95 -1z"/>
</g>
</svg>
