<?xml version="1.0" standalone="no"?>
<!DOCTYPE svg PUBLIC "-//W3C//DTD SVG 20010904//EN"
 "http://www.w3.org/TR/2001/REC-SVG-20010904/DTD/svg10.dtd">
<svg version="1.0" xmlns="http://www.w3.org/2000/svg"
 width="100.000000pt" height="100.000000pt" viewBox="0 -100 100.000000 100.000000"
 preserveAspectRatio="xMidYMid meet">
<metadata>
Created by potrace 1.10, written by Peter Selinger 2001-2011
</metadata>
<g transform="scale(0.100000,-0.100000)"
fill="#000000" stroke="none">
<path d="M254 885 c-58 -35 -74 -74 -74 -182 l0 -89 -75 -52 c-41 -29 -75 -58
-75 -65 0 -47 216 -284 314 -346 40 -25 61 -31 105 -31 39 0 73 -8 110 -25 51
-24 55 -25 73 -8 10 9 27 44 36 77 22 79 87 148 207 219 83 49 90 56 93 88 8
78 -39 149 -99 149 -41 0 -79 -37 -86 -85 -9 -63 -45 -93 -72 -61 -9 11 -7 33
9 96 25 98 23 103 -71 145 -57 25 -61 26 -85 10 -14 -9 -32 -32 -40 -51 -13
-30 -12 -39 1 -71 9 -21 23 -45 32 -55 12 -14 14 -30 10 -70 -11 -94 -58 -103
-96 -19 -12 27 -33 61 -48 75 l-26 26 31 68 c17 37 35 79 41 94 28 74 -61 188
-146 188 -15 0 -47 -11 -69 -25z"/>
</g>
</svg>
