<?xml version="1.0" standalone="no"?>
<!DOCTYPE svg PUBLIC "-//W3C//DTD SVG 20010904//EN"
 "http://www.w3.org/TR/2001/REC-SVG-20010904/DTD/svg10.dtd">
<svg version="1.0" xmlns="http://www.w3.org/2000/svg"
 width="128.000000pt" height="128.000000pt" viewBox="10 -139 128.000000 128.000000"
 preserveAspectRatio="xMidYMid meet">
<metadata>
Created by potrace 1.10, written by Peter Selinger 2001-2011
</metadata>
<g transform="scale(0.1175,-0.1175)"
fill="#000000" stroke="none">
<path d="M515 1096 c-69 -22 -122 -54 -152 -93 -64 -82 -83 -145 -83 -284 0
-158 19 -199 110 -234 76 -29 80 -37 86 -161 4 -79 10 -112 21 -121 8 -6 44
-16 80 -23 73 -12 204 2 227 26 8 7 15 54 19 120 7 121 10 126 84 158 70 30
87 46 101 92 17 60 15 249 -4 303 -43 126 -98 179 -223 217 -57 17 -212 17
-266 0z m21 -336 c13 0 34 -10 45 -21 18 -18 20 -28 14 -73 -10 -78 -45 -126
-93 -126 -32 0 -102 42 -122 74 -25 42 -26 97 -1 120 19 17 96 37 119 30 8 -2
25 -4 38 -4z m324 -1 c25 -6 53 -17 62 -26 24 -21 23 -80 -1 -119 -20 -33 -92
-74 -130 -74 -31 0 -67 42 -80 95 -21 82 -9 111 49 125 48 11 49 11 100 -1z
m-176 -211 c8 -13 17 -32 20 -44 6 -19 2 -21 -55 -21 -49 -1 -59 2 -55 14 3 8
6 18 6 22 0 13 41 51 55 51 8 0 21 -10 29 -22z"/>
</g>
</svg>
