<?xml version="1.0" standalone="no"?>
<!DOCTYPE svg PUBLIC "-//W3C//DTD SVG 20010904//EN"
 "http://www.w3.org/TR/2001/REC-SVG-20010904/DTD/svg10.dtd">
<svg version="1.0" xmlns="http://www.w3.org/2000/svg"
 width="128.000000pt" height="128.000000pt" viewBox="10 -139 128.000000 128.000000"
 preserveAspectRatio="xMidYMid meet">
<metadata>
Created by potrace 1.15, written by Peter Selinger 2001-2017
</metadata>
<g transform="scale(0.1175,-0.1175)"
fill="#000000" stroke="none">
<path d="M553 1095 c-105 -53 -182 -173 -209 -327 -22 -126 0 -248 56 -308 31
-33 59 -38 95 -14 39 25 45 60 29 168 -23 154 1 252 78 321 73 67 126 72 210
19 32 -19 62 -33 67 -29 16 9 -8 61 -50 109 -77 87 -178 109 -276 61z"/>
<path d="M669 855 c-14 -8 -32 -28 -39 -45 -22 -52 -4 -72 119 -135 172 -88
251 -171 253 -268 0 -24 -7 -58 -16 -75 -15 -29 -31 -42 -120 -97 -28 -17 -29
-18 -11 -31 30 -22 109 -17 163 10 99 50 150 139 136 234 -24 167 -149 318
-318 385 -85 35 -134 41 -167 22z"/>
<path d="M227 593 c-33 -38 -67 -117 -67 -157 0 -90 81 -201 168 -230 116 -40
309 -6 431 75 133 89 177 177 109 219 -18 11 -40 20 -49 20 -8 0 -55 -25 -104
-56 -226 -142 -326 -158 -420 -69 l-35 32 0 92 c0 50 -4 91 -8 91 -5 0 -16 -8
-25 -17z"/>
</g>
</svg>
