<?xml version="1.0" standalone="no"?>
<!DOCTYPE svg PUBLIC "-//W3C//DTD SVG 20010904//EN"
 "http://www.w3.org/TR/2001/REC-SVG-20010904/DTD/svg10.dtd">
<svg version="1.0" xmlns="http://www.w3.org/2000/svg"
 width="128.000000pt" height="128.000000pt" viewBox="10 -139 128.000000 128.000000"
 preserveAspectRatio="xMidYMid meet">
<metadata>
Created by potrace 1.10, written by Peter Selinger 2001-2011
</metadata>
<g transform="scale(0.1175,-0.1175)"
fill="#000000" stroke="none">
<path d="M541 1065 c-39 -52 -71 -99 -71 -104 0 -6 24 -22 54 -35 62 -29 69
-41 66 -129 -1 -34 -2 -75 -1 -92 l1 -29 20 20 c34 33 147 237 143 255 -3 9
-22 21 -42 28 -53 15 -69 38 -69 91 1 119 -8 118 -101 -5z"/>
<path d="M805 978 c-3 -7 -6 -101 -7 -208 l-3 -194 -33 -7 c-54 -11 -58 -23
-25 -66 17 -21 62 -83 100 -138 76 -109 97 -130 112 -120 14 8 211 282 214
297 1 6 -16 17 -38 23 l-40 12 -5 204 -5 204 -133 3 c-100 2 -134 -1 -137 -10z"/>
<path d="M145 928 c-7 -18 78 -220 98 -232 11 -7 26 0 55 22 22 18 47 32 56
32 8 0 45 -18 81 -40 74 -45 119 -61 113 -39 -1 8 -34 69 -73 137 -47 82 -76
122 -87 122 -10 0 -33 -13 -51 -30 -19 -16 -40 -30 -47 -30 -6 0 -41 16 -76
36 -50 28 -65 33 -69 22z"/>
<path d="M686 691 c-26 -15 -48 -31 -47 -36 0 -6 27 -10 59 -10 54 0 57 1 60
26 5 44 -17 50 -72 20z"/>
<path d="M237 613 c-16 -4 -18 -12 -12 -68 l7 -63 -66 -37 c-69 -38 -78 -50
-48 -59 28 -9 162 -25 210 -26 l44 0 -7 63 -7 63 88 50 c48 28 89 55 91 61 2
5 -13 13 -34 17 -43 7 -238 6 -266 -1z"/>
<path d="M557 548 c-65 -105 -137 -231 -137 -238 0 -5 26 -22 58 -37 l57 -28
5 -70 c4 -52 9 -71 20 -73 15 -2 150 174 150 195 0 5 -24 20 -52 34 l-53 24
-3 108 c-2 85 -6 107 -17 107 -8 0 -21 -10 -28 -22z"/>
</g>
</svg>
