<?xml version="1.0" standalone="no"?>
<!DOCTYPE svg PUBLIC "-//W3C//DTD SVG 20010904//EN"
 "http://www.w3.org/TR/2001/REC-SVG-20010904/DTD/svg10.dtd">
<svg version="1.0" xmlns="http://www.w3.org/2000/svg"
 width="128.000000pt" height="128.000000pt" viewBox="10 -139 128.000000 128.000000"
 preserveAspectRatio="xMidYMid meet">
<metadata>
Created by potrace 1.15, written by Peter Selinger 2001-2017
</metadata>
<g transform="scale(0.1175,-0.1175)"
fill="#000000" stroke="none">
<path d="M445 1058 c-13 -74 -42 -114 -130 -172 -29 -19 -53 -26 -87 -26 -52
0 -71 -16 -42 -36 10 -7 26 -20 35 -28 22 -23 52 -131 46 -169 -16 -87 -21
-99 -53 -124 -19 -14 -34 -29 -34 -34 0 -5 18 -9 40 -9 55 0 87 -18 137 -77
57 -68 83 -113 83 -145 0 -59 10 -63 49 -18 34 40 39 42 102 47 37 3 92 2 123
-1 52 -7 57 -10 71 -42 8 -20 21 -34 31 -34 14 0 16 7 11 42 -7 56 10 95 64
141 61 53 67 57 78 57 5 0 17 7 26 16 13 14 21 15 41 5 62 -28 72 -1 19 52
-34 34 -35 37 -35 114 0 102 21 165 66 199 19 15 34 30 34 35 0 12 -44 11 -73
-2 -19 -8 -31 -8 -54 4 -38 20 -143 123 -143 141 0 8 -5 16 -10 18 -13 4 -15
34 -5 66 6 17 3 22 -11 22 -11 0 -25 -9 -31 -19 -16 -26 -73 -41 -153 -41 -79
0 -131 13 -155 40 -26 29 -32 25 -40 -22z m288 -111 c-16 -27 -25 -32 -63 -35
-65 -5 -119 14 -130 44 -6 14 -10 27 -10 30 0 2 39 4 88 5 48 0 96 4 107 8 28
11 31 -11 8 -52z m-239 1 c22 -42 22 -42 -24 -92 -53 -57 -89 -73 -126 -54
-32 15 -43 38 -19 38 9 0 21 4 28 10 56 44 87 73 87 81 0 7 28 44 37 48 1 1 9
-13 17 -31z m340 -6 c23 -37 74 -86 112 -108 17 -10 17 -12 -8 -28 -37 -24
-81 -9 -138 49 -39 39 -42 47 -33 67 6 13 14 31 17 41 8 27 24 20 50 -21z
m-170 -82 c34 0 36 -8 14 -57 -27 -62 -52 -58 -84 13 -28 65 -24 80 16 59 16
-8 40 -15 54 -15z m-120 -32 c9 -17 16 -38 16 -48 0 -9 5 -21 11 -27 29 -29
-31 -45 -67 -18 -10 8 -27 15 -36 15 -33 0 -29 22 14 65 23 25 44 45 45 45 1
0 9 -14 17 -32z m240 -8 c20 -22 36 -46 36 -53 0 -14 -96 -48 -116 -40 -16 6
-18 19 -4 28 6 3 10 15 10 26 0 10 5 19 10 19 6 0 10 14 10 30 0 40 11 38 54
-10z m-459 -60 c3 -5 17 -10 30 -10 30 0 33 -10 23 -88 -9 -75 -29 -112 -61
-112 -21 0 -22 3 -18 90 2 56 -1 96 -8 104 -6 7 -8 16 -4 19 10 10 31 8 38 -3z
m685 1 c0 -6 -4 -12 -8 -15 -5 -3 -12 -53 -15 -112 -3 -58 -8 -108 -10 -111
-9 -8 -75 38 -79 55 -2 9 -1 47 2 85 5 61 8 69 35 86 32 21 75 27 75 12z
m-540 -63 c19 -9 43 -19 53 -22 44 -14 -12 -61 -97 -82 -26 -6 -28 -5 -21 12
5 10 10 41 13 67 2 26 7 47 10 45 4 -2 23 -11 42 -20z m395 -40 c-2 -36 -9
-64 -16 -67 -16 -5 -107 39 -114 56 -7 20 2 33 23 33 9 0 31 9 47 20 54 35 63
28 60 -42z m-287 -82 c2 -10 -1 -28 -6 -40 -5 -11 -17 -38 -26 -58 -10 -21
-20 -38 -24 -37 -9 0 -72 87 -72 99 0 12 91 59 110 57 8 -1 16 -11 18 -21z
m156 9 c11 -8 27 -15 35 -15 9 0 26 -8 39 -18 l23 -18 -41 -33 c-40 -32 -42
-32 -61 -15 -10 9 -19 23 -19 31 0 7 -5 22 -12 32 -11 18 -6 51 9 51 4 0 17
-7 27 -15z m-84 -30 c0 -8 3 -15 8 -15 4 0 12 -15 18 -32 22 -66 23 -63 -38
-66 -61 -3 -66 1 -43 32 8 11 15 28 15 39 0 23 18 57 30 57 6 0 10 -7 10 -15z
m-221 -51 c17 -14 31 -31 31 -37 0 -6 9 -20 19 -31 11 -12 20 -28 21 -36 4
-23 -11 -80 -21 -80 -4 0 -34 32 -65 70 -31 39 -69 77 -83 85 l-26 13 27 11
c14 5 29 15 33 20 10 18 31 13 64 -15z m502 -4 c27 0 24 -29 -4 -39 -13 -5
-49 -33 -81 -62 -55 -50 -59 -52 -72 -34 -31 42 -16 70 71 133 33 24 42 26 53
15 7 -7 22 -13 33 -13z m-258 -99 c30 -12 67 -49 67 -68 0 -10 -20 -13 -74
-13 -41 0 -87 -5 -101 -10 -37 -14 -46 -5 -30 32 9 22 26 38 52 50 46 20 54
21 86 9z"/>
</g>
</svg>
