<?xml version="1.0" standalone="no"?>
<!DOCTYPE svg PUBLIC "-//W3C//DTD SVG 20010904//EN"
 "http://www.w3.org/TR/2001/REC-SVG-20010904/DTD/svg10.dtd">
<svg version="1.0" xmlns="http://www.w3.org/2000/svg"
 width="128.000000pt" height="128.000000pt" viewBox="10 -139 128.000000 128.000000"
 preserveAspectRatio="xMidYMid meet">
<metadata>
Created by potrace 1.15, written by Peter Selinger 2001-2017
</metadata>
<g transform="scale(0.1175,-0.1175)"
fill="#000000" stroke="none">
<path d="M597 1004 c-14 -14 -28 -43 -32 -65 -9 -53 -34 -66 -83 -42 -27 13
-44 32 -62 70 l-25 52 -100 0 c-55 1 -110 -2 -122 -5 -28 -8 -29 -34 -4 -65
15 -19 32 -24 90 -30 39 -3 75 -9 78 -13 4 -4 -12 -24 -35 -45 -23 -21 -42
-44 -42 -49 0 -19 41 -34 74 -28 59 11 71 -25 20 -59 -50 -33 -19 -65 65 -65
27 0 53 -5 57 -11 4 -7 -10 -25 -32 -44 -33 -28 -37 -35 -25 -49 7 -9 27 -16
44 -16 l30 0 -7 -51 -7 -51 40 7 39 6 -1 -68 c-1 -103 46 -184 91 -157 34 20
62 94 62 162 l0 63 37 -3 c36 -3 36 -3 37 36 1 38 9 48 49 60 26 8 21 42 -10
65 -27 20 -28 21 -9 36 11 8 31 15 45 15 74 1 93 33 45 77 -34 31 -26 48 22
49 67 2 72 4 78 21 5 11 -5 29 -30 54 -35 36 -35 37 -16 48 11 6 39 11 61 11
23 0 46 7 55 16 25 25 38 54 32 71 -5 13 -24 15 -120 11 -122 -5 -140 -11
-151 -56 -11 -44 -44 -72 -85 -72 -42 0 -60 14 -60 48 0 17 8 27 30 35 36 14
37 20 5 41 -38 25 -98 21 -128 -10z"/>
</g>
</svg>
