<?xml version="1.0" standalone="no"?>
<!DOCTYPE svg PUBLIC "-//W3C//DTD SVG 20010904//EN"
 "http://www.w3.org/TR/2001/REC-SVG-20010904/DTD/svg10.dtd">
<svg version="1.0" xmlns="http://www.w3.org/2000/svg"
 width="128.000000pt" height="128.000000pt" viewBox="10 -139 128.000000 128.000000"
 preserveAspectRatio="xMidYMid meet">
<metadata>
Created by potrace 1.15, written by Peter Selinger 2001-2017
</metadata>
<g transform="scale(0.1175,-0.1175)"
fill="#000000" stroke="none">
<path d="M564 1096 c-58 -26 -102 -108 -90 -170 3 -18 19 -44 34 -58 31 -30
103 -52 138 -44 31 8 118 -11 186 -41 58 -26 84 -60 76 -99 -3 -15 -12 -17
-62 -15 -123 6 -144 14 -304 114 l-153 96 -45 -69 c-59 -91 -105 -190 -96
-206 4 -7 39 -36 77 -65 114 -85 164 -138 200 -215 41 -85 77 -110 148 -102
117 13 176 138 99 210 -40 38 -63 47 -143 58 -80 12 -140 40 -212 101 -50 43
-57 66 -35 114 6 14 18 24 27 23 9 -2 71 -40 137 -85 l122 -83 166 0 166 0 0
149 0 149 -65 7 c-84 9 -117 32 -174 124 -25 41 -57 83 -71 93 -34 25 -88 31
-126 14z m66 -131 c0 -27 -4 -35 -18 -35 -37 0 -57 51 -30 78 20 20 48 -4 48
-43z m46 -583 c11 -6 18 -39 15 -68 -1 -15 -27 -25 -46 -18 -20 8 -27 37 -16
68 11 26 26 32 47 18z"/>
<path d="M318 3 c177 -2 467 -2 645 0 177 1 32 2 -323 2 -355 0 -500 -1 -322
-2z"/>
</g>
</svg>
