<?xml version="1.0" standalone="no"?>
<!DOCTYPE svg PUBLIC "-//W3C//DTD SVG 20010904//EN"
 "http://www.w3.org/TR/2001/REC-SVG-20010904/DTD/svg10.dtd">
<svg version="1.0" xmlns="http://www.w3.org/2000/svg"
 width="128.000000pt" height="128.000000pt" viewBox="10 -139 128.000000 128.000000"
 preserveAspectRatio="xMidYMid meet">
<metadata>
Created by potrace 1.10, written by Peter Selinger 2001-2011
</metadata>
<g transform="scale(0.1175,-0.1175)"
fill="#000000" stroke="none">
<path d="M593 1080 c-61 -36 -165 -62 -273 -67 -79 -4 -108 -9 -117 -21 -16
-19 -17 -199 -4 -284 22 -131 105 -282 221 -399 79 -80 196 -169 222 -169 29
0 153 97 239 186 164 171 230 351 221 600 -3 68 -26 100 -64 85 -19 -7 -54 -6
-123 4 -106 16 -163 33 -219 64 -44 25 -61 25 -103 1z m-22 -146 c30 -15 59
-65 59 -100 0 -9 -12 -41 -27 -70 l-27 -54 23 -23 c12 -14 25 -37 30 -53 11
-43 46 -45 55 -3 9 47 8 54 -14 79 -11 13 -20 36 -20 52 0 29 30 68 53 68 24
-1 97 -39 103 -55 4 -8 -1 -38 -11 -66 -11 -35 -13 -55 -6 -62 16 -16 41 1 41
28 0 43 28 75 66 75 40 0 63 -29 71 -89 5 -39 5 -40 -48 -67 -88 -44 -146 -99
-154 -145 -4 -21 -14 -48 -24 -60 l-17 -21 -40 19 c-26 13 -51 19 -76 16 -30
-4 -45 1 -90 35 -83 62 -198 192 -198 224 0 8 24 31 53 49 l52 34 -3 55 c-4
70 9 105 50 130 40 24 59 25 99 4z"/>
</g>
</svg>
