<?xml version="1.0" standalone="no"?>
<!DOCTYPE svg PUBLIC "-//W3C//DTD SVG 20010904//EN"
 "http://www.w3.org/TR/2001/REC-SVG-20010904/DTD/svg10.dtd">
<svg version="1.0" xmlns="http://www.w3.org/2000/svg"
 width="128.000000pt" height="128.000000pt" viewBox="10 -139 128.000000 128.000000"
 preserveAspectRatio="xMidYMid meet">
<metadata>
Created by potrace 1.15, written by Peter Selinger 2001-2017
</metadata>
<g transform="scale(0.1175,-0.1175)"
fill="#000000" stroke="none">
<path d="M313 974 c-48 -104 -34 -187 44 -267 33 -34 38 -36 57 -24 30 20 32
45 6 72 l-23 24 24 6 c14 3 55 5 92 3 l67 -3 -134 -123 c-78 -71 -141 -137
-151 -159 -21 -44 -16 -153 8 -178 9 -8 19 -24 22 -35 3 -11 17 -23 30 -26 48
-12 58 19 25 74 -11 18 -20 35 -20 38 0 2 28 2 63 -2 58 -6 65 -4 93 20 24 22
27 27 14 36 -8 5 -34 10 -58 10 -26 0 -41 4 -37 10 3 6 31 10 61 10 61 0 89
20 115 82 12 28 11 32 -10 49 -28 23 -41 24 -66 5 -16 -12 -17 -16 -6 -30 11
-13 9 -17 -14 -26 -14 -5 -45 -10 -68 -10 l-42 1 30 25 c244 210 273 259 225
387 -29 77 -42 91 -73 83 -31 -7 -34 -23 -9 -42 28 -22 -3 -34 -93 -34 -123 0
-149 30 -32 38 34 2 66 8 72 13 10 10 5 11 -80 14 -33 1 -70 5 -83 9 -20 8
-25 2 -49 -50z m288 -100 c24 -15 -14 -28 -93 -32 -122 -6 -203 22 -116 40 38
8 193 2 209 -8z"/>
<path d="M772 693 c-120 -163 -223 -336 -209 -350 12 -11 517 -17 529 -5 13
13 -1 40 -105 200 -46 70 -95 148 -110 175 -15 26 -34 47 -41 47 -8 0 -37 -30
-64 -67z m75 -44 c15 -29 17 -118 3 -154 -16 -42 -36 -16 -56 71 -15 71 -15
76 2 95 21 24 35 20 51 -12z m11 -232 c4 -21 -15 -47 -33 -47 -7 0 -23 8 -36
19 l-23 18 30 16 c35 20 58 18 62 -6z"/>
</g>
</svg>
