<?xml version="1.0" standalone="no"?>
<!DOCTYPE svg PUBLIC "-//W3C//DTD SVG 20010904//EN"
 "http://www.w3.org/TR/2001/REC-SVG-20010904/DTD/svg10.dtd">
<svg version="1.0" xmlns="http://www.w3.org/2000/svg"
 width="128.000000pt" height="128.000000pt" viewBox="10 -139 128.000000 128.000000"
 preserveAspectRatio="xMidYMid meet">
<metadata>
Created by potrace 1.10, written by Peter Selinger 2001-2011
</metadata>
<g transform="scale(0.1175,-0.1175)"
fill="#000000" stroke="none">
<path d="M584 1108 c-41 -39 -53 -81 -54 -188 0 -55 -6 -87 -21 -120 l-21 -45
-12 50 c-22 91 -49 120 -61 66 -3 -15 -30 -57 -60 -92 -58 -69 -80 -123 -73
-188 2 -26 0 -37 -6 -31 -23 23 -28 6 -24 -68 8 -147 89 -267 223 -333 65 -32
76 -34 170 -34 94 0 104 2 168 34 86 43 165 126 195 205 22 59 29 112 13 102
-5 -3 -7 30 -4 78 5 81 4 89 -36 197 -33 88 -42 123 -39 161 1 26 -1 48 -5 48
-20 0 -67 -32 -86 -59 l-21 -29 -87 83 c-85 82 -86 83 -91 139 -5 66 -17 70
-68 24z"/>
<path d="M380 1049 c0 -6 -21 -32 -46 -56 -49 -49 -52 -67 -17 -119 21 -33 36
-30 66 14 34 48 42 91 27 136 -11 34 -30 49 -30 25z"/>
</g>
</svg>
