<?xml version="1.0" standalone="no"?>
<!DOCTYPE svg PUBLIC "-//W3C//DTD SVG 20010904//EN"
 "http://www.w3.org/TR/2001/REC-SVG-20010904/DTD/svg10.dtd">
<svg version="1.0" xmlns="http://www.w3.org/2000/svg"
 width="128.000000pt" height="128.000000pt" viewBox="10 -139 128.000000 128.000000"
 preserveAspectRatio="xMidYMid meet">
<metadata>
Created by potrace 1.10, written by Peter Selinger 2001-2011
</metadata>
<g transform="scale(0.1175,-0.1175)"
fill="#000000" stroke="none">
<path d="M531 1064 c-169 -45 -294 -183 -324 -358 -31 -180 70 -374 237 -456
267 -132 578 29 629 324 52 303 -244 570 -542 490z m28 -101 c0 -10 -17 -103
-38 -208 -21 -104 -37 -191 -36 -193 2 -2 36 11 75 28 40 16 75 28 78 26 2 -3
-9 -60 -26 -128 -17 -67 -30 -124 -28 -125 1 -2 67 92 145 208 79 116 141 212
139 213 -1 2 -50 -11 -108 -29 -58 -18 -106 -31 -108 -30 -7 7 150 215 162
215 29 0 106 -83 138 -148 30 -59 33 -76 33 -152 0 -76 -4 -93 -33 -152 -38
-77 -92 -130 -171 -167 -47 -22 -70 -26 -141 -26 -71 0 -94 4 -141 26 -79 37
-133 90 -171 167 -29 59 -33 76 -33 152 0 71 4 94 26 141 37 77 89 133 161
169 71 35 78 36 77 13z"/>
</g>
</svg>
