<?xml version="1.0" standalone="no"?>
<!DOCTYPE svg PUBLIC "-//W3C//DTD SVG 20010904//EN"
 "http://www.w3.org/TR/2001/REC-SVG-20010904/DTD/svg10.dtd">
<svg version="1.0" xmlns="http://www.w3.org/2000/svg"
 width="128.000000pt" height="128.000000pt" viewBox="10 -139 128.000000 128.000000"
 preserveAspectRatio="xMidYMid meet">
<metadata>
Created by potrace 1.10, written by Peter Selinger 2001-2011
</metadata>
<g transform="scale(0.1175,-0.1175)"
fill="#000000" stroke="none">
<path d="M356 1058 c-61 -17 -140 -100 -160 -167 -22 -74 -20 -166 4 -243 38
-124 183 -293 354 -415 101 -72 81 -75 221 33 143 109 263 253 308 368 15 37
20 76 21 142 0 82 -2 97 -29 150 -35 67 -94 118 -158 135 -64 17 -169 6 -227
-24 l-50 -26 -46 26 c-37 21 -63 27 -123 29 -42 2 -94 -2 -115 -8z m198 -95
c17 -8 43 -26 57 -40 l27 -25 50 37 c71 51 139 63 212 39 79 -27 111 -76 118
-177 5 -89 -9 -140 -64 -224 -46 -69 -190 -216 -258 -263 -48 -33 -49 -33 -80
-16 -93 50 -265 231 -314 330 -74 148 -37 308 83 351 46 17 122 12 169 -12z"/>
<path d="M570 785 l0 -75 -75 0 -75 0 0 -75 0 -75 75 0 75 0 0 -75 0 -75 75 0
75 0 0 75 0 75 75 0 75 0 0 75 0 75 -75 0 -75 0 0 75 0 75 -75 0 -75 0 0 -75z"/>
</g>
</svg>
