<?xml version="1.0" standalone="no"?>
<!DOCTYPE svg PUBLIC "-//W3C//DTD SVG 20010904//EN"
 "http://www.w3.org/TR/2001/REC-SVG-20010904/DTD/svg10.dtd">
<svg version="1.0" xmlns="http://www.w3.org/2000/svg"
 width="128.000000pt" height="128.000000pt" viewBox="10 -139 128.000000 128.000000"
 preserveAspectRatio="xMidYMid meet">
<metadata>
Created by potrace 1.10, written by Peter Selinger 2001-2011
</metadata>
<g transform="scale(0.1175,-0.1175)"
fill="#000000" stroke="none">
<path d="M720 1139 c-104 -78 -161 -84 -293 -25 l-54 24 -11 -80 c-7 -44 -19
-95 -29 -115 -21 -45 -77 -85 -157 -114 l-64 -23 48 -62 c26 -34 56 -83 65
-109 l18 -46 -30 -87 c-16 -48 -33 -95 -37 -104 -7 -16 -2 -18 36 -18 24 0 71
-7 103 -15 78 -20 115 -58 159 -158 l33 -77 49 40 c81 67 124 83 204 78 48 -4
82 -13 115 -32 26 -14 48 -26 49 -26 0 0 2 25 2 55 3 118 66 201 187 245 34
13 64 25 66 26 2 2 -19 33 -47 70 -67 90 -79 134 -57 210 9 32 25 75 36 96 10
20 19 39 19 41 0 2 -28 7 -62 11 -143 14 -195 51 -244 173 -16 40 -31 72 -34
72 -3 0 -34 -23 -70 -50z m-196 -155 l74 -35 51 -109 c28 -60 65 -144 82 -187
17 -43 32 -79 34 -81 2 -2 15 4 30 14 23 15 28 15 36 3 14 -22 11 -27 -21 -44
-16 -9 -30 -20 -30 -25 0 -23 27 -69 64 -108 45 -47 43 -63 -8 -92 -26 -14
-28 -14 -46 8 -11 13 -22 38 -26 57 -3 18 -18 48 -33 66 -28 33 -28 33 -55 15
-15 -9 -34 -15 -42 -12 -21 8 -17 34 9 47 12 6 23 13 25 14 2 2 -28 43 -66 92
-39 48 -93 121 -121 162 -50 73 -51 76 -51 147 0 67 6 104 17 104 2 0 37 -16
77 -36z"/>
</g>
</svg>
