<?xml version="1.0" standalone="no"?>
<!DOCTYPE svg PUBLIC "-//W3C//DTD SVG 20010904//EN"
 "http://www.w3.org/TR/2001/REC-SVG-20010904/DTD/svg10.dtd">
<svg version="1.0" xmlns="http://www.w3.org/2000/svg"
 width="128.000000pt" height="128.000000pt" viewBox="10 -139 128.000000 128.000000"
 preserveAspectRatio="xMidYMid meet">
<metadata>
Created by potrace 1.10, written by Peter Selinger 2001-2011
</metadata>
<g transform="scale(0.1175,-0.1175)"
fill="#000000" stroke="none">
<path d="M575 940 c-159 -19 -294 -94 -382 -213 -50 -68 -53 -90 -18 -138 111
-150 249 -226 427 -236 121 -7 200 7 297 55 126 61 253 198 236 254 -14 46
-90 127 -174 189 -70 50 -246 105 -316 97 -5 0 -37 -4 -70 -8z m161 -81 c89
-16 180 -65 253 -135 76 -75 76 -84 -10 -166 -97 -94 -203 -138 -335 -138
-105 0 -182 24 -273 85 -64 42 -141 123 -141 147 0 17 82 98 133 131 115 75
240 100 373 76z"/>
<path d="M597 829 c-88 -21 -137 -86 -137 -184 0 -118 67 -185 183 -185 54 0
70 4 103 29 22 15 47 40 57 54 29 44 18 90 -12 53 -33 -39 -121 -22 -160 32
-32 46 -28 97 12 136 17 18 39 35 47 39 13 5 12 8 -4 21 -22 18 -33 18 -89 5z"/>
</g>
</svg>
