<?xml version="1.0" standalone="no"?>
<!DOCTYPE svg PUBLIC "-//W3C//DTD SVG 20010904//EN"
 "http://www.w3.org/TR/2001/REC-SVG-20010904/DTD/svg10.dtd">
<svg version="1.0" xmlns="http://www.w3.org/2000/svg"
 width="128.000000pt" height="128.000000pt" viewBox="45 -170 128.0 128.0"
 preserveAspectRatio="xMidYMid meet">
<metadata>
Created by potrace 1.10, written by Peter Selinger 2001-2011
</metadata>
<g transform="scale(0.110000,-0.110000)"
fill="#000000" stroke="none">
<path d="M1301 1451 c-52 -49 -38 -121 31 -157 64 -33 122 1 135 80 5 31 1 40
-30 71 -46 46 -91 48 -136 6z"/>
<path d="M592 1333 l3 -38 135 -6 c74 -3 140 -4 147 -1 14 4 25 45 17 66 -5
14 -29 16 -156 16 l-149 0 3 -37z"/>
<path d="M973 1293 c-10 -16 -34 -51 -55 -80 -21 -29 -38 -61 -38 -71 0 -20
29 -52 47 -52 5 0 31 27 57 60 26 33 48 60 49 60 86 12 107 11 107 -2 0 -8
-31 -61 -70 -119 l-70 -104 0 -103 0 -103 -111 2 c-120 1 -129 -2 -129 -52 0
-45 14 -49 163 -49 179 0 181 1 173 91 -9 83 -3 85 91 37 l63 -33 0 -108 0
-108 57 3 57 3 -3 129 c-3 120 -12 166 -34 166 -15 0 -127 84 -127 94 1 6 10
22 21 35 18 23 23 24 42 11 27 -17 255 -23 275 -8 17 14 15 73 -3 88 -11 9
-38 11 -88 8 -39 -3 -78 -3 -84 -1 -9 3 -13 28 -13 78 l0 74 -57 40 -56 41
-123 0 -124 0 -17 -27z"/>
<path d="M537 1232 c-20 -22 -22 -55 -4 -70 6 -5 72 -11 146 -13 l134 -4 7 25
c4 14 3 36 -1 48 -8 21 -14 22 -123 22 -63 0 -121 2 -128 5 -8 3 -22 -3 -31
-13z"/>
<path d="M448 1096 c-10 -11 -18 -27 -18 -37 0 -35 23 -40 171 -37 l144 3 3
31 c2 17 -3 36 -10 42 -8 6 -68 12 -143 14 -117 3 -131 1 -147 -16z"/>
</g>
</svg>
