<?xml version="1.0" standalone="no"?>
<!DOCTYPE svg PUBLIC "-//W3C//DTD SVG 20010904//EN"
 "http://www.w3.org/TR/2001/REC-SVG-20010904/DTD/svg10.dtd">
<svg version="1.0" xmlns="http://www.w3.org/2000/svg"
 width="128.000000pt" height="128.000000pt" viewBox="10 -139 128.000000 128.000000"
 preserveAspectRatio="xMidYMid meet">
<metadata>
Created by potrace 1.10, written by Peter Selinger 2001-2011
</metadata>
<g transform="scale(0.1175,-0.1175)"
fill="#000000" stroke="none">
<path d="M450 973 c-23 -8 -70 -55 -86 -85 -18 -35 -18 -82 1 -146 22 -73 58
-112 102 -112 108 0 185 184 118 283 -37 54 -89 77 -135 60z"/>
<path d="M754 961 c-64 -40 -94 -161 -58 -237 25 -53 78 -94 121 -94 28 0 43
8 69 35 74 79 69 201 -13 277 -39 37 -80 44 -119 19z"/>
<path d="M278 624 c-52 -16 -47 -5 -68 -144 -5 -36 -10 -68 -10 -72 0 -10 118
-75 170 -93 63 -23 154 -21 221 5 l56 20 49 -22 c37 -17 68 -23 124 -23 65 0
84 4 140 33 36 18 80 45 97 60 l33 28 -22 99 c-22 93 -25 99 -55 112 -45 18
-80 16 -105 -7 -48 -44 -143 -45 -187 -1 -16 16 -20 16 -37 4 -13 -10 -34 -13
-63 -10 -25 3 -62 -1 -84 -9 -57 -20 -98 -17 -151 11 -54 29 -47 28 -108 9z"/>
</g>
</svg>
