<?xml version="1.0" standalone="no"?>
<!DOCTYPE svg PUBLIC "-//W3C//DTD SVG 20010904//EN"
 "http://www.w3.org/TR/2001/REC-SVG-20010904/DTD/svg10.dtd">
<svg version="1.0" xmlns="http://www.w3.org/2000/svg"
 width="128.000000pt" height="128.000000pt" viewBox="10 -139 128.000000 128.000000"
 preserveAspectRatio="xMidYMid meet">
<metadata>
Created by potrace 1.15, written by Peter Selinger 2001-2017
</metadata>
<g transform="scale(0.1175,-0.1175)"
fill="#000000" stroke="none">
<path d="M580 1184 c0 -3 12 -25 26 -49 56 -96 39 -225 -40 -310 -58 -62 -74
-57 -96 31 -12 47 -64 124 -84 124 -9 0 -17 -21 -25 -62 -6 -36 -27 -94 -47
-133 -104 -196 -99 -183 -98 -270 2 -117 29 -182 113 -266 66 -66 127 -103
191 -115 l34 -7 -23 34 c-48 73 -72 138 -72 194 0 73 9 115 31 140 10 11 21
29 24 41 3 11 19 33 35 48 l28 27 6 -60 c13 -118 61 -184 78 -104 3 17 15 42
25 56 91 116 116 155 134 214 23 74 25 110 9 185 -23 110 -86 208 -168 259
-41 26 -81 38 -81 23z"/>
<path d="M937 819 c-4 -13 -7 -60 -7 -104 0 -97 -4 -103 -130 -240 -119 -128
-140 -171 -140 -288 l0 -87 28 6 c148 33 198 53 268 110 108 87 157 248 123
404 -10 46 -54 123 -112 194 l-24 29 -6 -24z"/>
</g>
</svg>
