<?xml version="1.0" standalone="no"?>
<!DOCTYPE svg PUBLIC "-//W3C//DTD SVG 20010904//EN"
 "http://www.w3.org/TR/2001/REC-SVG-20010904/DTD/svg10.dtd">
<svg version="1.0" xmlns="http://www.w3.org/2000/svg"
 width="128.000000pt" height="128.000000pt" viewBox="10 -139 128.000000 128.000000"
 preserveAspectRatio="xMidYMid meet">
<metadata>
Created by potrace 1.10, written by Peter Selinger 2001-2011
</metadata>
<g transform="scale(0.1175,-0.1175)"
fill="#000000" stroke="none">
<path d="M385 1091 c-112 -28 -175 -121 -175 -261 0 -104 34 -186 126 -309
l47 -62 51 6 c28 3 75 11 104 17 l52 11 0 49 0 48 -90 0 -90 0 0 85 0 85 90 0
90 0 0 90 0 90 85 0 85 0 0 -90 0 -90 90 0 89 0 3 -62 3 -63 65 0 c36 -1 71 1
77 3 20 6 53 129 53 197 0 148 -75 243 -207 261 -66 8 -148 -16 -207 -61 -26
-19 -48 -35 -51 -35 -3 0 -25 16 -50 35 -71 54 -161 75 -240 56z"/>
<path d="M153 682 c-62 -84 -86 -186 -64 -270 7 -24 28 -61 48 -83 124 -137
358 -155 673 -50 104 35 116 37 127 22 44 -61 34 -70 122 113 45 93 81 173 81
179 0 6 -74 8 -207 4 -115 -3 -209 -6 -211 -6 -2 -1 6 -14 17 -30 12 -16 21
-32 21 -36 0 -12 -114 -56 -198 -76 -97 -23 -222 -27 -279 -9 -99 32 -135 94
-116 203 6 34 10 63 8 64 -1 2 -11 -10 -22 -25z"/>
</g>
</svg>
