<?xml version="1.0" standalone="no"?>
<!DOCTYPE svg PUBLIC "-//W3C//DTD SVG 20010904//EN"
 "http://www.w3.org/TR/2001/REC-SVG-20010904/DTD/svg10.dtd">
<svg version="1.0" xmlns="http://www.w3.org/2000/svg"
 width="128.000000pt" height="128.000000pt" viewBox="10 -139 128.000000 128.000000"
 preserveAspectRatio="xMidYMid meet">
<metadata>
Created by potrace 1.15, written by Peter Selinger 2001-2017
</metadata>
<g transform="scale(0.1175,-0.1175)"
fill="#000000" stroke="none">
<path d="M550 1061 c-19 -4 -61 -19 -93 -34 l-58 -26 62 -118 c81 -154 75
-148 137 -132 40 10 59 10 90 1 22 -7 44 -12 49 -12 14 0 136 247 128 261 -14
22 -91 48 -175 58 -92 12 -89 12 -140 2z"/>
<path d="M578 670 c-26 -27 -30 -36 -25 -68 7 -44 55 -92 93 -92 39 0 84 50
84 95 0 27 -8 44 -29 66 -40 40 -82 39 -123 -1z"/>
<path d="M263 633 c-78 -5 -86 -16 -73 -98 13 -82 28 -123 64 -175 38 -57 111
-130 129 -130 7 0 25 12 39 27 40 43 138 186 138 201 0 8 -11 28 -25 44 -14
16 -30 50 -36 75 -7 24 -17 46 -23 48 -21 6 -151 11 -213 8z"/>
<path d="M846 632 c-35 -6 -40 -12 -57 -56 -10 -27 -32 -63 -48 -80 l-31 -31
22 -35 c59 -98 141 -200 161 -200 25 0 107 84 144 148 45 77 79 231 54 246
-14 9 -203 15 -245 8z"/>
</g>
</svg>
