<?xml version="1.0" standalone="no"?>
<!DOCTYPE svg PUBLIC "-//W3C//DTD SVG 20010904//EN"
 "http://www.w3.org/TR/2001/REC-SVG-20010904/DTD/svg10.dtd">
<svg version="1.0" xmlns="http://www.w3.org/2000/svg"
 width="128.000000pt" height="128.000000pt" viewBox="10 -139 128.000000 128.000000"
 preserveAspectRatio="xMidYMid meet">
<metadata>
Created by potrace 1.10, written by Peter Selinger 2001-2011
</metadata>
<g transform="scale(0.1175,-0.1175)"
fill="#000000" stroke="none">
<path d="M572 1118 c-22 -40 -90 -154 -152 -252 -153 -243 -164 -269 -164
-381 -1 -77 3 -98 25 -145 39 -81 90 -134 167 -172 62 -31 73 -33 167 -33 81
1 109 5 148 23 66 30 138 101 173 169 26 52 29 68 29 153 0 89 -2 100 -36 171
-20 42 -81 145 -135 230 -54 85 -117 189 -140 232 l-41 79 -41 -74z m2 -223
c-45 -165 -75 -336 -83 -467 -6 -99 -11 -132 -24 -145 -15 -16 -18 -15 -43 8
-47 44 -76 114 -76 188 0 84 15 120 118 296 120 207 126 216 129 213 2 -2 -8
-43 -21 -93z"/>
</g>
</svg>
