<?xml version="1.0" standalone="no"?>
<!DOCTYPE svg PUBLIC "-//W3C//DTD SVG 20010904//EN"
 "http://www.w3.org/TR/2001/REC-SVG-20010904/DTD/svg10.dtd">
<svg version="1.0" xmlns="http://www.w3.org/2000/svg"
 width="128.000000pt" height="128.000000pt" viewBox="10 -139 128.000000 128.000000"
 preserveAspectRatio="xMidYMid meet">
<metadata>
Created by potrace 1.10, written by Peter Selinger 2001-2011
</metadata>
<g transform="scale(0.1175,-0.1175)"
fill="#000000" stroke="none">
<path d="M365 1063 c-70 -15 -132 -61 -160 -116 -28 -56 -39 -144 -26 -213 22
-120 76 -213 202 -348 81 -87 241 -216 268 -216 23 0 173 120 253 202 76 80
158 194 189 265 30 69 37 196 14 265 -22 69 -47 103 -98 133 -88 51 -205 41
-305 -26 -24 -16 -49 -29 -56 -29 -8 0 -37 15 -65 34 -65 44 -151 64 -216 49z
m195 -208 c41 -41 81 -75 90 -75 9 0 49 34 90 75 41 41 82 75 90 75 9 0 31
-15 49 -34 40 -41 39 -45 -58 -141 -39 -38 -71 -74 -71 -80 0 -6 34 -44 75
-85 41 -41 75 -79 75 -84 0 -16 -63 -76 -80 -76 -8 0 -47 32 -85 70 -38 39
-76 70 -85 70 -9 0 -47 -31 -85 -70 -38 -38 -76 -70 -85 -70 -19 0 -80 54 -80
71 0 7 34 47 75 90 41 42 75 81 75 87 0 5 -36 44 -80 86 -44 42 -80 84 -80 93
0 24 50 73 75 73 12 0 50 -29 95 -75z"/>
</g>
</svg>
