<?xml version="1.0" standalone="no"?>
<!DOCTYPE svg PUBLIC "-//W3C//DTD SVG 20010904//EN"
 "http://www.w3.org/TR/2001/REC-SVG-20010904/DTD/svg10.dtd">
<svg version="1.0" xmlns="http://www.w3.org/2000/svg"
 width="179.000000pt" height="179.000000pt" viewBox="10 -199 179.000000 179.000000"
 preserveAspectRatio="xMidYMid meet">
<metadata>
Created by potrace 1.15, written by Peter Selinger 2001-2017
</metadata>
<g transform="scale(0.1175,-0.1175)"
fill="#000000" stroke="none">
<path d="M450 1403 c-28 -11 -144 -86 -200 -130 -52 -40 -98 -98 -87 -110 3
-2 38 18 79 45 98 67 166 102 184 95 8 -3 37 -50 65 -104 31 -60 57 -99 66
-99 9 0 40 14 69 31 43 24 57 28 74 19 11 -6 20 -15 20 -21 0 -5 12 -14 27
-20 20 -7 24 -12 14 -22 -9 -9 -19 -7 -46 7 -33 18 -35 18 -62 1 -15 -10 -40
-29 -55 -43 -26 -24 -30 -24 -54 -11 -27 14 -84 84 -120 147 -10 17 -26 32
-35 32 -22 0 -104 -65 -154 -122 -42 -47 -91 -135 -81 -145 3 -3 51 38 107 91
55 53 105 96 110 96 5 0 44 -34 86 -75 43 -41 85 -78 95 -81 12 -3 31 5 53 24
35 31 72 48 82 38 4 -3 -24 -36 -60 -72 l-66 -67 -62 54 c-104 91 -118 101
-138 94 -47 -15 -151 -189 -151 -253 0 -45 12 -35 61 51 42 73 85 127 102 127
5 0 46 -25 91 -55 45 -30 86 -55 92 -55 5 0 36 24 67 54 61 58 92 75 110 57 6
-6 9 -12 6 -14 -58 -41 -83 -65 -104 -101 -14 -24 -32 -47 -40 -50 -16 -6 -62
9 -147 49 -32 14 -62 23 -68 20 -31 -19 -90 -191 -90 -262 0 -51 20 -56 31 -7
13 53 50 148 70 176 l20 28 52 -21 c66 -26 138 -49 154 -49 7 0 26 27 43 60
40 78 86 130 116 130 35 0 31 -41 -8 -86 l-33 -38 2 -111 c2 -105 21 -249 44
-338 9 -34 13 -38 32 -31 12 4 46 8 75 8 37 1 56 6 62 16 27 48 69 425 50 459
-5 10 -16 24 -25 31 -9 7 -23 27 -32 43 -13 26 -13 31 1 45 28 28 72 -16 137
-138 14 -25 32 -46 41 -48 9 -2 58 13 110 32 92 35 93 36 110 16 9 -11 28 -55
42 -98 15 -42 30 -84 35 -91 14 -22 25 31 17 84 -6 50 -50 161 -73 187 -15 17
-19 16 -68 -12 -29 -17 -71 -37 -94 -45 -51 -18 -65 -11 -111 56 -18 27 -43
56 -56 64 -13 9 -24 22 -24 30 0 32 41 12 97 -45 32 -33 63 -60 69 -60 6 0 38
18 72 40 34 21 76 47 93 56 l33 16 27 -33 c16 -19 47 -69 71 -111 23 -43 47
-78 52 -78 17 0 -2 81 -37 154 -33 70 -97 146 -122 146 -7 0 -29 -15 -49 -34
-64 -61 -123 -106 -137 -106 -8 0 -44 29 -79 65 -51 51 -60 65 -44 65 11 0 43
-16 70 -35 27 -19 54 -35 60 -35 7 0 48 37 93 82 78 79 81 81 106 68 24 -13
97 -86 158 -159 15 -19 30 -31 33 -28 13 13 -30 109 -69 153 -52 59 -133 124
-155 124 -10 0 -30 -20 -45 -44 -46 -74 -108 -146 -124 -146 -8 0 -33 15 -56
34 -53 42 -78 50 -103 31 -21 -16 -68 -21 -62 -6 2 5 24 25 50 45 l47 35 62
-42 c60 -41 61 -42 76 -22 8 11 35 61 59 111 24 49 46 93 50 97 9 9 97 -37
181 -95 89 -63 113 -60 53 6 -45 49 -242 186 -266 186 -8 0 -19 -19 -24 -42
-28 -109 -65 -203 -83 -206 -10 -2 -39 10 -66 27 -59 38 -72 39 -99 1 -21 -28
-62 -42 -62 -21 0 19 -31 20 -47 1 -22 -25 -34 -25 -56 1 -17 19 -20 20 -36 5
-25 -23 -37 -20 -63 14 -12 17 -29 30 -38 30 -8 0 -39 -16 -68 -36 -41 -27
-56 -33 -67 -24 -15 13 -70 158 -80 213 -7 38 -9 40 -35 30z"/>
</g>
</svg>
