<?xml version="1.0" standalone="no"?>
<!DOCTYPE svg PUBLIC "-//W3C//DTD SVG 20010904//EN"
 "http://www.w3.org/TR/2001/REC-SVG-20010904/DTD/svg10.dtd">
<svg version="1.0" xmlns="http://www.w3.org/2000/svg"
 width="128.000000pt" height="128.000000pt" viewBox="10 -139 128.000000 128.000000"
 preserveAspectRatio="xMidYMid meet">
<metadata>
Created by potrace 1.15, written by Peter Selinger 2001-2017
</metadata>
<g transform="scale(0.1175,-0.1175)"
fill="#000000" stroke="none">
<path d="M360 984 c-8 -8 -14 -34 -14 -57 -1 -38 1 -42 26 -45 41 -5 66 14 74
55 5 29 3 39 -11 50 -25 18 -60 17 -75 -3z"/>
<path d="M241 954 c-27 -34 -27 -70 0 -84 50 -27 90 18 73 84 -8 35 -46 35
-73 0z"/>
<path d="M486 927 c-24 -36 -43 -98 -51 -165 -6 -54 -5 -62 10 -62 28 0 72 56
105 137 l32 77 -22 18 c-30 24 -56 23 -74 -5z"/>
<path d="M602 868 c-5 -7 -22 -35 -36 -63 -15 -27 -35 -62 -44 -77 -13 -22
-14 -32 -6 -45 14 -23 41 -28 61 -12 17 15 123 155 123 164 0 8 -63 45 -76 45
-6 0 -16 -6 -22 -12z"/>
<path d="M250 822 c-94 -47 -87 -208 12 -267 38 -22 48 -44 55 -120 3 -36 12
-70 20 -76 7 -7 47 -12 89 -13 l76 -1 13 40 c15 50 71 161 85 170 26 16 70 90
70 117 0 15 -3 28 -7 28 -4 0 -24 -18 -44 -40 -21 -22 -46 -40 -58 -40 -11 0
-50 16 -87 35 -36 19 -78 35 -94 35 -68 0 -80 29 -22 57 32 15 37 23 40 56 l3
37 -58 0 c-35 0 -72 -7 -93 -18z"/>
<path d="M763 696 c-29 -40 -86 -129 -128 -197 l-76 -124 43 -8 c47 -9 485 -3
495 6 3 4 -36 68 -88 144 -137 204 -173 252 -184 252 -5 1 -33 -33 -62 -73z
m73 -23 c14 -14 16 -31 11 -101 -8 -139 -38 -130 -53 16 -9 98 3 123 42 85z
m18 -232 c23 -25 13 -41 -24 -41 -31 0 -47 25 -29 46 16 19 33 17 53 -5z"/>
</g>
</svg>
