<?xml version="1.0" standalone="no"?>
<!DOCTYPE svg PUBLIC "-//W3C//DTD SVG 20010904//EN"
 "http://www.w3.org/TR/2001/REC-SVG-20010904/DTD/svg10.dtd">
<svg version="1.0" xmlns="http://www.w3.org/2000/svg"
 width="128.000000pt" height="128.000000pt" viewBox="10 -139 128.000000 128.000000"
 preserveAspectRatio="xMidYMid meet">
<metadata>
Created by potrace 1.15, written by Peter Selinger 2001-2017
</metadata>
<g transform="scale(0.1175,-0.1175)"
fill="#000000" stroke="none">
<path d="M488 918 c-30 -55 -43 -67 -102 -100 -80 -44 -188 -130 -206 -163
-12 -22 -9 -29 33 -81 53 -64 61 -103 26 -128 -37 -26 -17 -44 57 -52 84 -9
278 2 282 16 2 6 15 24 28 39 13 16 24 31 24 33 0 3 -46 4 -102 4 -96 -1 -106
1 -152 28 -66 39 -136 104 -136 127 0 22 88 94 150 123 34 15 66 20 130 20 74
1 93 -3 145 -29 118 -58 115 -57 122 -39 4 11 -2 23 -18 36 -32 25 -115 68
-132 68 -20 0 -43 29 -81 100 l-33 62 -35 -64z"/>
<path d="M473 749 c-52 -26 -76 -61 -77 -115 -1 -53 27 -94 77 -113 56 -21
104 -7 156 45 24 24 41 47 38 51 -4 3 -24 -2 -46 -11 -35 -17 -41 -17 -69 -2
-57 29 -68 82 -26 115 15 12 36 21 48 21 21 1 21 1 2 15 -26 20 -52 18 -103
-6z"/>
<path d="M750 573 l-131 -198 38 -8 c36 -8 483 -1 491 8 5 5 -235 370 -254
385 -10 9 -39 -28 -144 -187z m156 96 c8 -13 6 -145 -2 -171 -9 -29 -22 -21
-33 20 -12 41 -15 145 -4 155 10 11 31 8 39 -4z m15 -225 c11 -14 10 -18 -6
-30 -25 -18 -44 -18 -51 1 -15 39 30 62 57 29z"/>
</g>
</svg>
