<?xml version="1.0" standalone="no"?>
<!DOCTYPE svg PUBLIC "-//W3C//DTD SVG 20010904//EN"
 "http://www.w3.org/TR/2001/REC-SVG-20010904/DTD/svg10.dtd">
<svg version="1.0" xmlns="http://www.w3.org/2000/svg"
 width="128.000000pt" height="128.000000pt" viewBox="10 -139 128.000000 128.000000"
 preserveAspectRatio="xMidYMid meet">
<metadata>
Created by potrace 1.15, written by Peter Selinger 2001-2017
</metadata>
<g transform="scale(0.1175,-0.1175)"
fill="#000000" stroke="none">
<path d="M578 1083 c-55 -45 -306 -271 -396 -358 -129 -123 -134 -145 -59
-237 88 -109 96 -137 52 -194 -32 -41 -31 -52 1 -64 101 -39 853 -38 924 0 26
14 25 23 -5 68 -14 20 -25 46 -25 58 0 22 33 73 108 164 23 29 42 62 42 76 0
34 -49 85 -185 192 -66 53 -165 134 -220 182 -108 94 -170 140 -190 140 -7 0
-28 -12 -47 -27z m133 -239 c29 -9 94 -37 144 -61 154 -78 245 -149 245 -192
0 -48 -109 -142 -225 -197 -187 -87 -307 -83 -504 14 -85 42 -188 133 -197
175 -6 25 0 35 45 77 78 74 333 198 407 200 17 0 55 -7 85 -16z"/>
<path d="M521 774 c-36 -26 -71 -110 -71 -173 0 -143 117 -229 258 -191 48 12
152 104 152 133 0 21 -18 21 -111 2 -111 -24 -112 -22 -104 96 6 83 5 103 -9
124 -20 30 -78 34 -115 9z"/>
</g>
</svg>
