<?xml version="1.0" standalone="no"?>
<!DOCTYPE svg PUBLIC "-//W3C//DTD SVG 20010904//EN"
 "http://www.w3.org/TR/2001/REC-SVG-20010904/DTD/svg10.dtd">
<svg version="1.0" xmlns="http://www.w3.org/2000/svg"
 width="65.000000pt" height="65.000000pt" viewBox="9 -74 65.000000 65.000000"
 preserveAspectRatio="xMidYMid meet">
<metadata>
Created by potrace 1.10, written by Peter Selinger 2001-2011
</metadata>
<g transform="scale(0.125,-0.125)"
fill="#000000" stroke="none">
<path d="M255 514 c-61 -33 -115 -99 -115 -140 0 -9 -18 -43 -40 -76 -43 -65
-50 -106 -22 -130 84 -75 388 54 490 207 62 94 30 147 -88 145 -36 -1 -94 1
-130 5 -50 4 -72 1 -95 -11z m126 -34 c19 -5 48 -23 64 -40 16 -16 32 -30 36
-30 14 0 19 32 8 51 -10 19 -9 19 10 9 12 -6 21 -19 21 -28 0 -28 -43 -80
-102 -124 -69 -52 -115 -75 -189 -94 -55 -14 -62 -14 -85 0 -26 18 -28 24 -15
45 7 11 10 9 16 -8 4 -15 15 -21 34 -21 48 0 181 52 235 92 18 14 17 16 -14
52 -34 39 -96 76 -127 76 -21 0 -6 16 22 23 33 8 48 7 86 -3z"/>
<path d="M485 264 c-45 -40 -146 -99 -187 -109 -34 -9 -36 -21 -5 -29 98 -26
208 43 241 152 10 31 -2 27 -49 -14z"/>
</g>
</svg>
