<?xml version="1.0" standalone="no"?>
<!DOCTYPE svg PUBLIC "-//W3C//DTD SVG 20010904//EN"
 "http://www.w3.org/TR/2001/REC-SVG-20010904/DTD/svg10.dtd">
<svg version="1.0" xmlns="http://www.w3.org/2000/svg"
 width="128.000000pt" height="128.000000pt" viewBox="10 -139 128.000000 128.000000"
 preserveAspectRatio="xMidYMid meet">
<metadata>
Created by potrace 1.10, written by Peter Selinger 2001-2011
</metadata>
<g transform="scale(0.1175,-0.1175)"
fill="#000000" stroke="none">
<path d="M575 1147 c-84 -43 -191 -67 -307 -67 l-96 0 -7 -86 c-21 -248 57
-449 249 -639 82 -82 203 -175 226 -175 31 0 211 151 288 240 71 84 142 219
169 320 18 67 24 304 9 328 -5 8 -38 12 -97 12 -109 0 -211 22 -299 63 -36 17
-67 32 -70 33 -3 1 -32 -12 -65 -29z m181 -262 c31 20 58 35 60 33 2 -2 -8
-27 -21 -55 l-24 -52 72 -3 72 -3 -58 -40 -59 -39 34 -28 c18 -15 36 -28 41
-28 4 0 7 -5 7 -11 0 -8 -15 -9 -45 -5 -25 4 -45 5 -45 1 0 -3 20 -46 45 -95
25 -50 43 -90 40 -90 -3 0 -50 29 -105 65 l-100 64 -11 -44 c-13 -53 -24 -51
-33 5 l-6 41 -83 -63 c-45 -35 -88 -67 -94 -71 -7 -5 3 29 23 75 53 123 53
114 -6 127 -28 6 -60 11 -70 11 -37 0 -20 17 45 45 36 15 65 31 65 36 0 5 -18
21 -40 35 -22 15 -40 29 -40 32 0 2 25 2 55 0 63 -5 62 -11 19 96 -13 33 -22
61 -20 63 2 2 29 -19 60 -48 31 -28 58 -50 60 -48 2 2 16 29 31 59 l28 55 24
-78 24 -77 55 35z"/>
</g>
</svg>
