<?xml version="1.0" standalone="no"?>
<!DOCTYPE svg PUBLIC "-//W3C//DTD SVG 20010904//EN"
 "http://www.w3.org/TR/2001/REC-SVG-20010904/DTD/svg10.dtd">
<svg version="1.0" xmlns="http://www.w3.org/2000/svg"
 width="110px" height="110px" viewBox="0 -112 110 110"
 preserveAspectRatio="xMidYMid meet">
<metadata>
Created by potrace 1.10, written by Peter Selinger 2001-2011
</metadata>
<g transform="scale(0.100000,-0.100000)"
fill="#000000" stroke="none">
<path d="M465 1054 c-49 -13 -131 -47 -159 -66 -41 -28 -86 -70 -86 -79 0 -5
37 8 83 28 68 29 98 36 172 40 106 6 152 -4 219 -49 27 -18 60 -39 73 -46 13
-7 23 -22 23 -33 0 -11 7 -43 16 -70 33 -99 -3 -193 -89 -239 -38 -20 -67 -53
-67 -75 0 -3 27 -5 61 -5 33 0 69 -5 80 -11 18 -9 26 -5 58 29 65 68 81 114
81 228 0 93 -2 102 -34 159 -64 116 -184 185 -331 191 -44 1 -89 1 -100 -2z"/>
<path d="M395 917 c-58 -19 -82 -34 -132 -80 -67 -62 -69 -69 -30 -126 l33
-49 49 55 c26 31 63 62 81 69 46 19 121 17 170 -5 l42 -19 37 38 c21 21 35 45
33 52 -3 7 -29 26 -58 42 -62 34 -161 44 -225 23z"/>
<path d="M580 680 c-88 -84 -162 -151 -164 -149 -2 2 -13 33 -24 69 l-19 65
-32 -69 c-18 -39 -35 -65 -40 -60 -5 5 -42 60 -84 122 l-75 114 -7 -136 c-4
-75 -9 -136 -12 -136 -2 0 -21 12 -40 27 -45 35 -51 45 124 -227 l139 -215
149 -3 149 -3 -24 26 -23 25 174 0 174 0 -40 24 c-22 13 -86 49 -143 80 l-103
58 58 61 58 62 -80 3 c-44 1 -85 4 -92 7 -8 2 15 70 67 201 44 109 78 200 75
202 -2 2 -76 -64 -165 -148z"/>
<path d="M1007 760 c-3 -14 -12 -63 -21 -109 -24 -135 -93 -244 -184 -290 -20
-10 -45 -28 -55 -39 -18 -19 -17 -20 18 -42 46 -28 72 -19 145 53 112 111 154
271 111 422 -8 30 -8 30 -14 5z"/>
<path d="M415 702 c-7 -5 -5 -23 5 -55 l15 -48 48 49 c40 40 45 50 32 56 -23
8 -88 7 -100 -2z"/>
</g>
</svg>
