<?xml version="1.0" standalone="no"?>
<!DOCTYPE svg PUBLIC "-//W3C//DTD SVG 20010904//EN"
 "http://www.w3.org/TR/2001/REC-SVG-20010904/DTD/svg10.dtd">
<svg version="1.0" xmlns="http://www.w3.org/2000/svg"
 width="128.000000pt" height="128.000000pt" viewBox="10 -129 128.000000 128.000000"
 preserveAspectRatio="xMidYMid meet">
<metadata>
Created by potrace 1.10, written by Peter Selinger 2001-2011
</metadata>
<g transform="scale(0.1175,-0.1175)"
fill="#000000" stroke="none">
<path d="M571 1125 c-41 -47 -76 -85 -78 -85 -3 0 -52 34 -110 76 -58 41 -107
73 -110 70 -3 -2 11 -71 31 -153 39 -163 39 -162 -29 -163 -22 -1 -57 -4 -78
-8 l-38 -7 66 -65 c36 -35 65 -67 65 -70 0 -3 -54 -37 -120 -75 -66 -39 -120
-72 -120 -75 0 -3 53 -25 118 -49 64 -25 120 -47 125 -51 4 -4 -17 -87 -47
-186 -30 -98 -53 -180 -51 -182 1 -2 84 47 184 108 176 107 182 109 190 88 5
-13 18 -43 28 -68 l20 -45 34 63 c19 34 39 62 45 62 6 0 100 -45 208 -101 109
-55 200 -99 202 -96 3 2 -25 82 -61 178 -36 95 -65 174 -65 175 0 1 19 5 43 9
23 3 57 9 75 12 l34 6 -39 41 c-21 22 -49 54 -63 69 l-24 28 93 93 92 93 -122
12 c-68 6 -124 13 -126 14 -1 2 9 47 22 102 14 54 23 100 21 102 -2 3 -54 -21
-115 -52 -111 -55 -111 -55 -120 -33 -15 39 -103 248 -105 248 0 0 -34 -38
-75 -85z m93 -235 c21 -44 39 -80 41 -80 1 0 19 7 38 15 61 25 69 22 52 -26
-26 -73 -25 -75 60 -69 41 3 75 3 75 0 0 -3 -21 -23 -46 -44 l-46 -38 38 -39
c29 -30 34 -39 21 -40 -9 -1 -21 -3 -27 -4 -5 -1 -23 -3 -40 -4 l-29 -1 38
-83 c64 -139 65 -137 -48 -61 l-101 67 -30 -28 c-16 -16 -32 -27 -34 -24 -2 2
-12 21 -22 41 l-19 37 -97 -75 c-54 -42 -98 -73 -98 -71 0 2 20 42 45 89 25
47 45 90 45 96 0 6 -31 18 -70 28 -38 10 -70 21 -70 24 0 4 27 19 60 35 87 41
88 46 35 93 -25 22 -45 42 -45 46 0 3 24 6 54 6 l54 0 -19 62 c-10 34 -17 64
-14 66 2 2 23 -10 48 -26 l44 -31 28 60 c16 32 32 59 35 59 4 0 24 -36 44 -80z"/>
</g>
</svg>
