<?xml version="1.0" standalone="no"?>
<!DOCTYPE svg PUBLIC "-//W3C//DTD SVG 20010904//EN"
 "http://www.w3.org/TR/2001/REC-SVG-20010904/DTD/svg10.dtd">
<svg version="1.0" xmlns="http://www.w3.org/2000/svg"
 width="128.000000pt" height="128.000000pt" viewBox="10 -139 128.000000 128.000000"
 preserveAspectRatio="xMidYMid meet">
<metadata>
Created by potrace 1.15, written by Peter Selinger 2001-2017
</metadata>
<g transform="scale(0.1175,-0.1175)"
fill="#000000" stroke="none">
<path d="M609 1098 c-23 -29 -55 -77 -71 -105 -17 -29 -31 -53 -32 -53 -1 0 0
32 2 71 5 91 -12 90 -47 -2 -29 -78 -28 -77 -45 -54 -7 10 -18 15 -24 11 -33
-20 -78 -279 -56 -318 5 -9 32 -34 60 -56 48 -37 52 -44 56 -92 7 -69 21 -82
45 -39 l18 34 2 -50 c8 -162 30 -201 40 -71 3 36 9 66 13 66 11 0 20 -64 20
-145 1 -85 13 -155 23 -138 4 6 14 64 22 129 8 64 17 119 20 122 3 3 6 -44 6
-104 1 -60 5 -122 9 -139 l7 -30 12 30 c7 17 16 83 20 147 4 65 10 121 14 124
14 14 21 -8 25 -72 5 -80 18 -67 27 26 8 78 13 100 25 100 5 0 13 -15 18 -32
l9 -33 12 55 c18 75 33 96 92 125 l50 26 -7 77 c-8 93 -38 216 -61 251 l-16
25 -10 -22 c-6 -12 -13 -22 -17 -22 -4 0 -17 26 -28 58 -40 107 -77 129 -47
27 9 -32 14 -59 12 -62 -8 -7 -44 36 -99 115 -28 39 -52 72 -54 72 -2 0 -22
-24 -45 -52z m-159 -342 c12 -14 35 -28 51 -31 35 -8 104 -57 119 -85 18 -34
-3 -50 -67 -50 -76 0 -121 23 -144 74 -25 55 -25 116 -1 116 10 0 29 -11 42
-24z m450 -30 c0 -60 -21 -96 -70 -121 -29 -15 -141 -21 -153 -9 -9 9 17 55
45 80 12 12 46 33 74 47 27 14 56 33 63 41 27 32 41 19 41 -38z"/>
</g>
</svg>
