<?xml version="1.0" standalone="no"?>
<!DOCTYPE svg PUBLIC "-//W3C//DTD SVG 20010904//EN"
 "http://www.w3.org/TR/2001/REC-SVG-20010904/DTD/svg10.dtd">
<svg version="1.0" xmlns="http://www.w3.org/2000/svg"
 width="128.000000pt" height="128.000000pt" viewBox="10 -139 128.000000 128.000000"
 preserveAspectRatio="xMidYMid meet">
<metadata>
Created by potrace 1.15, written by Peter Selinger 2001-2017
</metadata>
<g transform="scale(0.1175,-0.1175)"
fill="#000000" stroke="none">
<path d="M335 1095 c16 -40 36 -122 42 -179 8 -74 -5 -86 -91 -86 l-59 0 61
-56 c34 -31 62 -62 62 -69 0 -7 -47 -37 -105 -67 -58 -29 -105 -55 -105 -58 0
-3 38 -20 85 -38 47 -19 95 -42 107 -51 21 -18 21 -21 9 -77 -17 -74 -60 -206
-72 -219 -13 -13 -11 -25 5 -25 7 0 80 42 162 94 l149 93 22 -48 c12 -27 26
-49 31 -49 5 0 17 18 27 40 10 23 22 43 27 46 4 3 89 -36 188 -86 99 -50 180
-86 180 -80 0 6 -23 70 -50 143 -28 73 -49 141 -48 152 3 17 12 20 66 23 l63
3 -50 55 c-28 31 -51 62 -51 69 0 7 30 46 66 86 75 81 75 83 -26 94 -120 14
-130 28 -90 134 12 29 19 56 16 58 -2 3 -47 -18 -99 -47 l-96 -51 -36 73 c-45
89 -74 138 -83 137 -4 0 -29 -29 -56 -64 l-49 -64 -56 38 c-31 21 -78 51 -105
66 -43 25 -49 27 -41 10z m439 -238 c37 -24 58 -72 64 -143 7 -94 -3 -132 -42
-155 -33 -19 -41 -36 -61 -131 -5 -28 -6 -28 -89 -28 l-85 0 -7 58 c-6 52 -11
61 -55 101 l-49 44 0 79 c0 103 29 157 100 187 39 17 192 8 224 -12z"/>
<path d="M698 699 c-38 -22 -6 -108 40 -109 37 0 68 74 39 98 -20 17 -61 23
-79 11z"/>
<path d="M512 688 c-30 -30 4 -98 47 -98 39 0 66 71 39 98 -16 16 -70 16 -86
0z"/>
<path d="M625 580 c-9 -15 3 -30 24 -30 25 0 33 11 20 27 -13 15 -35 17 -44 3z"/>
</g>
</svg>
