<?xml version="1.0" standalone="no"?>
<!DOCTYPE svg PUBLIC "-//W3C//DTD SVG 20010904//EN"
 "http://www.w3.org/TR/2001/REC-SVG-20010904/DTD/svg10.dtd">
<svg version="1.0" xmlns="http://www.w3.org/2000/svg"
 width="128.000000pt" height="128.000000pt" viewBox="10 -139 128.000000 128.000000"
 preserveAspectRatio="xMidYMid meet">
<metadata>
Created by potrace 1.15, written by Peter Selinger 2001-2017
</metadata>
<g transform="scale(0.1175,-0.1175)"
fill="#000000" stroke="none">
<path d="M333 990 c-23 -9 -32 -40 -13 -40 5 0 17 -14 26 -32 34 -66 -1 -169
-93 -270 -94 -105 -158 -255 -120 -286 17 -15 124 -28 300 -38 l125 -7 20 39
c12 21 39 61 61 88 23 26 41 58 41 70 0 12 -30 57 -67 101 -36 44 -75 99 -85
121 -21 50 -26 166 -8 206 21 45 1 58 -89 57 -42 0 -86 -4 -98 -9z m85 -272
c17 -17 15 -80 -5 -108 -9 -14 -29 -40 -45 -58 -15 -17 -35 -57 -43 -87 -18
-59 -33 -67 -88 -46 -44 17 -39 36 42 158 101 153 114 166 139 141z"/>
<path d="M851 713 c-19 -26 -83 -119 -143 -207 l-108 -161 45 -8 c24 -4 152
-6 285 -5 l240 3 -125 199 c-130 207 -143 226 -154 226 -3 -1 -21 -22 -40 -47z
m60 -65 c13 -24 5 -176 -10 -191 -5 -5 -16 2 -25 14 -11 17 -16 46 -16 105 0
44 3 84 7 87 13 13 32 7 44 -15z m3 -240 c8 -13 7 -21 -2 -30 -17 -17 -46 1
-50 31 -3 18 1 22 19 19 12 -2 27 -11 33 -20z"/>
</g>
</svg>
