<?xml version="1.0" standalone="no"?>
<!DOCTYPE svg PUBLIC "-//W3C//DTD SVG 20010904//EN"
 "http://www.w3.org/TR/2001/REC-SVG-20010904/DTD/svg10.dtd">
<svg version="1.0" xmlns="http://www.w3.org/2000/svg"
 width="128.000000pt" height="128.000000pt" viewBox="10 -139 128.000000 128.000000"
 preserveAspectRatio="xMidYMid meet">
<metadata>
Created by potrace 1.10, written by Peter Selinger 2001-2011
</metadata>
<g transform="scale(0.1175,-0.1175)"
fill="#000000" stroke="none">
<path d="M417 1169 c-37 -57 -59 -125 -64 -199 -5 -68 -3 -84 20 -134 26 -55
120 -166 141 -166 6 0 29 15 51 34 l40 34 -43 46 c-23 25 -42 48 -42 51 0 3
55 5 121 5 l121 0 -14 -22 c-8 -13 -55 -57 -104 -98 -129 -108 -247 -229 -269
-275 -37 -80 -30 -196 20 -302 28 -61 53 -72 109 -49 20 8 36 17 36 19 0 2
-13 28 -30 58 -16 30 -30 57 -30 62 0 4 72 7 160 7 88 0 160 -3 160 -7 0 -5
-14 -32 -30 -62 -17 -30 -30 -56 -30 -58 0 -11 76 -34 94 -29 44 11 96 146 96
246 0 75 -41 157 -115 230 l-55 55 -42 -42 -42 -43 29 -30 29 -30 -92 0 c-51
0 -92 2 -92 5 0 2 61 56 135 120 213 182 252 245 242 382 -4 59 -13 91 -39
142 l-33 66 -43 -1 c-24 0 -50 -8 -58 -16 -14 -14 -13 -19 5 -49 12 -19 21
-37 21 -41 0 -5 -63 -8 -140 -8 -77 0 -140 3 -140 8 0 4 9 22 21 41 18 29 19
36 6 48 -8 8 -32 17 -55 20 -34 5 -42 2 -55 -18z m346 -197 c40 -2 47 -5 47
-22 0 -19 -7 -20 -170 -20 -170 0 -170 0 -170 23 0 22 2 22 123 21 67 0 143
-1 170 -2z m37 -601 c0 -5 3 -16 6 -25 5 -14 -13 -16 -166 -16 -153 0 -171 2
-166 16 3 9 6 20 6 25 0 5 70 9 160 9 90 0 160 -4 160 -9z"/>
</g>
</svg>
