<?xml version="1.0" standalone="no"?>
<!DOCTYPE svg PUBLIC "-//W3C//DTD SVG 20010904//EN"
 "http://www.w3.org/TR/2001/REC-SVG-20010904/DTD/svg10.dtd">
<svg version="1.0" xmlns="http://www.w3.org/2000/svg"
 width="128.000000pt" height="128.000000pt" viewBox="10 -139 128.000000 128.000000"
 preserveAspectRatio="xMidYMid meet">
<metadata>
Created by potrace 1.10, written by Peter Selinger 2001-2011
</metadata>
<g transform="scale(0.1175,-0.1175)"
fill="#000000" stroke="none">
<path d="M598 1120 c-73 -97 -85 -116 -70 -122 9 -4 38 -17 64 -27 l47 -20 3
-123 3 -123 82 140 c45 77 83 144 85 149 2 5 -24 19 -57 31 l-60 23 -5 93 -5
94 -87 -115z"/>
<path d="M212 878 c27 -62 53 -121 55 -130 8 -26 20 -22 72 21 l46 38 104 -59
c57 -32 105 -57 108 -55 4 5 -156 287 -164 287 -3 0 -28 -18 -55 -40 l-51 -40
-56 32 c-31 17 -65 37 -76 45 -11 7 -23 13 -27 13 -4 0 16 -51 44 -112z"/>
<path d="M875 918 c3 -13 6 -43 7 -67 l3 -44 -97 -56 c-53 -31 -100 -60 -104
-64 -4 -4 70 -7 165 -7 l172 0 -6 58 c-4 31 -8 61 -9 67 0 5 34 29 77 53 43
25 76 46 74 48 -5 5 -226 34 -260 34 -23 0 -27 -3 -22 -22z"/>
<path d="M265 593 c4 -32 8 -62 8 -67 1 -6 -34 -31 -77 -58 -48 -28 -74 -49
-65 -52 22 -7 258 -29 266 -25 5 2 7 11 6 19 -1 8 -5 36 -8 61 l-6 46 105 62
c58 34 106 63 106 66 0 3 -77 5 -171 5 l-171 0 7 -57z"/>
<path d="M680 634 c0 -6 104 -190 149 -265 l17 -28 49 40 c28 21 55 39 60 39
6 0 41 -18 79 -40 38 -22 71 -38 74 -36 5 6 -101 255 -109 256 -4 0 -29 -18
-57 -40 l-51 -41 -78 47 c-102 60 -133 76 -133 68z"/>
<path d="M548 474 l-88 -148 65 -24 65 -24 0 -96 0 -95 89 119 90 119 -64 24
-64 24 -3 124 -3 125 -87 -148z"/>
</g>
</svg>
