<?xml version="1.0" standalone="no"?>
<!DOCTYPE svg PUBLIC "-//W3C//DTD SVG 20010904//EN"
 "http://www.w3.org/TR/2001/REC-SVG-20010904/DTD/svg10.dtd">
<svg version="1.0" xmlns="http://www.w3.org/2000/svg"
 width="128.000000pt" height="128.000000pt" viewBox="10 -139 128.000000 128.000000"
 preserveAspectRatio="xMidYMid meet">
<metadata>
Created by potrace 1.10, written by Peter Selinger 2001-2011
</metadata>
<g transform="scale(0.1175,-0.1175)"
fill="#000000" stroke="none">
<path d="M578 1109 c-3 -9 0 -65 8 -125 17 -137 17 -144 1 -144 -12 0 -330
204 -382 245 -22 17 -45 20 -45 5 0 -5 18 -36 41 -67 76 -109 219 -331 219
-341 0 -20 -21 -23 -93 -13 -39 5 -98 13 -131 16 -56 6 -58 6 -45 -12 15 -21
132 -124 219 -192 30 -23 59 -49 63 -57 10 -18 -11 -26 -118 -50 -44 -9 -84
-19 -88 -21 -17 -10 18 -33 116 -81 134 -65 239 -100 334 -112 86 -12 131 -8
213 18 66 21 152 100 189 176 22 44 24 63 24 165 0 103 -4 127 -32 211 -18 52
-55 141 -83 198 -60 122 -76 128 -95 37 -21 -100 -33 -135 -47 -135 -7 0 -51
46 -98 103 -142 170 -164 192 -170 176z m436 -476 c22 -65 21 -170 -3 -226
-25 -58 -80 -119 -134 -148 -57 -32 -216 -33 -267 -3 -18 10 -34 23 -34 28 -1
6 26 15 59 22 84 16 122 32 128 54 4 17 -16 83 -54 177 -7 18 -10 35 -6 39 3
4 39 -7 79 -24 132 -57 146 -53 168 40 27 113 37 119 64 41z"/>
</g>
</svg>
