<?xml version="1.0" standalone="no"?>
<!DOCTYPE svg PUBLIC "-//W3C//DTD SVG 20010904//EN"
 "http://www.w3.org/TR/2001/REC-SVG-20010904/DTD/svg10.dtd">
<svg version="1.0" xmlns="http://www.w3.org/2000/svg"
 width="128.000000pt" height="128.000000pt" viewBox="10 -139 128.000000 128.000000"
 preserveAspectRatio="xMidYMid meet">
<metadata>
Created by potrace 1.15, written by Peter Selinger 2001-2017
</metadata>
<g transform="scale(0.1175,-0.1175)"
fill="#000000" stroke="none">
<path d="M568 1080 c-41 -12 -86 -48 -103 -81 -9 -16 -23 -76 -32 -135 -15
-96 -15 -108 0 -132 8 -15 18 -45 22 -67 4 -22 12 -48 17 -57 6 -13 5 -18 -5
-18 -18 0 -37 21 -37 40 0 9 -8 24 -18 33 -16 15 -21 14 -62 -5 -25 -12 -72
-24 -105 -27 l-60 -6 2 -50 c2 -63 13 -115 24 -115 5 0 9 -7 9 -15 0 -20 11
-35 91 -114 79 -80 94 -91 114 -91 8 0 15 -4 15 -9 0 -5 12 -11 28 -14 15 -3
47 -11 72 -17 51 -14 207 -7 224 10 5 5 20 10 33 10 13 0 23 5 23 10 0 6 9 10
20 10 11 0 20 5 20 10 0 6 6 10 14 10 17 0 136 118 136 135 0 7 6 18 14 24 8
7 18 27 22 44 3 18 11 37 16 44 5 6 8 33 6 60 l-3 48 -60 11 c-33 5 -73 16
-90 23 -69 29 -82 27 -105 -18 -22 -45 -46 -48 -30 -5 6 14 10 38 10 52 0 15
7 38 16 50 14 20 14 36 5 123 -6 55 -17 114 -25 132 -32 78 -133 123 -218 97z
m0 -322 c27 -8 31 -12 21 -24 -6 -8 -20 -14 -31 -14 -33 0 -88 28 -88 45 0 18
26 16 98 -7z m212 12 c0 -15 -61 -50 -87 -50 -25 0 -56 27 -47 41 3 5 8 7 12
5 4 -2 25 0 47 4 58 11 75 11 75 0z"/>
</g>
</svg>
