<?xml version="1.0" standalone="no"?>
<!DOCTYPE svg PUBLIC "-//W3C//DTD SVG 20010904//EN"
 "http://www.w3.org/TR/2001/REC-SVG-20010904/DTD/svg10.dtd">
<svg version="1.0" xmlns="http://www.w3.org/2000/svg"
 width="128.000000pt" height="128.000000pt" viewBox="10 -139 128.000000 128.000000"
 preserveAspectRatio="xMidYMid meet">
<metadata>
Created by potrace 1.10, written by Peter Selinger 2001-2011
</metadata>
<g transform="scale(0.1175,-0.1175)"
fill="#000000" stroke="none">
<path d="M568 1064 c-15 -8 -35 -28 -43 -44 -20 -39 -19 -139 1 -191 16 -39
16 -41 -2 -58 -10 -10 -44 -28 -75 -40 -30 -12 -70 -35 -87 -51 -31 -28 -32
-32 -32 -109 0 -47 -4 -81 -10 -81 -6 0 -10 35 -10 84 0 99 13 122 90 157 48
22 61 39 75 100 17 72 -44 159 -110 159 -85 0 -122 -50 -110 -150 14 -119 13
-124 -23 -140 -33 -14 -33 -16 -28 -60 19 -137 61 -235 130 -304 152 -152 450
-152 602 0 69 69 111 167 130 304 5 44 5 46 -28 60 -36 16 -37 21 -23 140 12
100 -25 150 -110 150 -73 0 -129 -93 -106 -176 15 -54 19 -59 74 -84 74 -35
87 -58 87 -156 0 -49 -4 -84 -10 -84 -6 0 -10 34 -10 81 0 78 -1 81 -32 110
-18 16 -59 39 -90 50 -31 12 -65 30 -74 40 -15 17 -15 21 0 59 20 51 21 152 1
190 -29 55 -117 77 -177 44z m80 -352 c2 -15 10 -22 25 -22 55 0 118 -73 89
-102 -12 -12 -32 -2 -32 17 0 17 -38 45 -62 45 -15 0 -18 -9 -18 -59 l0 -58
39 -7 c107 -17 107 -165 1 -182 -33 -5 -39 -11 -42 -33 -4 -35 -32 -34 -36 1
-2 20 -9 28 -23 28 -53 0 -119 74 -91 102 12 12 32 2 32 -17 0 -17 38 -45 62
-45 15 0 18 9 18 54 l0 53 -39 7 c-109 17 -109 175 0 192 28 5 39 11 39 24 0
37 33 38 38 2z"/>
<path d="M552 634 c-44 -31 -16 -104 40 -104 15 0 18 9 18 60 0 66 -13 76 -58
44z"/>
<path d="M650 435 l0 -57 32 6 c35 7 48 20 48 51 0 31 -13 44 -48 51 l-32 7 0
-58z"/>
</g>
</svg>
