<?xml version="1.0" standalone="no"?>
<!DOCTYPE svg PUBLIC "-//W3C//DTD SVG 20010904//EN"
 "http://www.w3.org/TR/2001/REC-SVG-20010904/DTD/svg10.dtd">
<svg version="1.0" xmlns="http://www.w3.org/2000/svg"
 width="128.000000pt" height="128.000000pt" viewBox="10 -139 128.000000 128.000000"
 preserveAspectRatio="xMidYMid meet">
<metadata>
Created by potrace 1.10, written by Peter Selinger 2001-2011
</metadata>
<g transform="scale(0.1175,-0.1175)"
fill="#000000" stroke="none">
<path d="M591 1030 c-71 -53 -110 -59 -188 -32 -85 30 -93 29 -93 -12 0 -47
-26 -116 -56 -147 -14 -15 -53 -39 -85 -54 -32 -14 -59 -28 -59 -30 0 -3 20
-34 45 -71 54 -78 58 -121 20 -202 -14 -30 -22 -58 -19 -63 3 -5 18 -9 33 -9
52 0 126 -29 158 -62 17 -18 40 -55 51 -83 11 -27 24 -51 29 -52 5 -2 29 12
53 31 64 50 109 63 173 46 29 -7 57 -17 64 -22 7 -5 22 -8 35 -6 19 3 24 11
31 57 4 30 14 68 22 84 8 17 15 34 15 39 0 8 -86 128 -99 138 -21 17 -83 122
-75 130 5 5 32 10 59 12 l50 3 3 84 c3 80 1 87 -26 125 -16 23 -39 62 -50 89
-11 26 -25 47 -29 47 -4 -1 -32 -19 -62 -40z m-126 -131 c32 -19 46 -40 92
-136 29 -62 53 -119 53 -126 0 -27 31 -57 61 -57 34 0 37 -12 8 -39 -28 -26
-21 -54 27 -109 35 -41 36 -44 19 -62 -32 -35 -85 -20 -85 23 0 11 -10 35 -21
54 -20 32 -24 34 -60 28 -43 -7 -51 5 -23 36 15 16 11 24 -54 106 -38 48 -84
112 -102 141 -29 48 -32 58 -26 105 4 28 10 55 13 60 8 13 54 2 98 -24z"/>
<path d="M845 1018 c-3 -7 -6 -87 -7 -178 l-3 -165 -32 -10 c-18 -5 -33 -13
-33 -18 0 -17 171 -247 184 -247 7 0 33 28 57 62 96 135 129 183 129 191 0 4
-10 7 -23 7 -44 0 -47 14 -47 191 0 143 -2 168 -16 173 -31 12 -204 7 -209 -6z"/>
</g>
</svg>
