<?xml version="1.0" standalone="no"?>
<!DOCTYPE svg PUBLIC "-//W3C//DTD SVG 20010904//EN"
 "http://www.w3.org/TR/2001/REC-SVG-20010904/DTD/svg10.dtd">
<svg version="1.0" xmlns="http://www.w3.org/2000/svg"
 width="128.000000pt" height="128.000000pt" viewBox="10 -139 128.000000 128.000000"
 preserveAspectRatio="xMidYMid meet">
<metadata>
Created by potrace 1.10, written by Peter Selinger 2001-2011
</metadata>
<g transform="scale(0.1175,-0.1175)"
fill="#000000" stroke="none">
<path d="M570 1129 c-85 -44 -171 -62 -292 -63 l-107 -1 -7 -74 c-7 -82 0
-195 17 -269 20 -84 104 -242 166 -313 69 -78 161 -162 237 -214 l55 -38 64
46 c178 127 319 301 370 455 34 102 50 225 42 312 -10 102 -2 95 -115 94
l-101 0 -82 -82 -82 -82 48 -89 c26 -48 47 -95 47 -102 0 -8 -47 -44 -104 -80
l-104 -67 -9 -113 -9 -114 -23 70 c-12 39 -25 98 -28 131 l-6 62 92 63 c50 35
91 69 91 74 0 6 -22 39 -50 74 l-49 63 26 52 c14 28 44 79 66 114 21 35 38 64
36 65 -23 13 -121 57 -127 56 -4 -1 -32 -14 -62 -30z"/>
</g>
</svg>
