<?xml version="1.0" standalone="no"?>
<!DOCTYPE svg PUBLIC "-//W3C//DTD SVG 20010904//EN"
 "http://www.w3.org/TR/2001/REC-SVG-20010904/DTD/svg10.dtd">
<svg version="1.0" xmlns="http://www.w3.org/2000/svg"
 width="128.000000pt" height="128.000000pt" viewBox="10 -139 128.000000 128.000000"
 preserveAspectRatio="xMidYMid meet">
<metadata>
Created by potrace 1.10, written by Peter Selinger 2001-2011
</metadata>
<g transform="scale(0.1175,-0.1175)"
fill="#000000" stroke="none">
<path d="M266 1172 c-3 -4 -23 -49 -45 -100 l-40 -93 104 -243 c57 -135 106
-253 109 -264 5 -16 -1 -24 -30 -39 -50 -24 -61 -44 -46 -78 12 -25 17 -27 55
-22 23 2 49 8 58 11 28 12 47 -50 41 -132 -8 -112 16 -124 141 -68 40 18 57
31 57 45 0 20 -39 66 -78 93 -18 12 -25 30 -31 72 -4 31 -6 56 -5 56 2 0 25
-21 51 -47 26 -25 72 -66 102 -89 l55 -43 30 22 c63 44 186 171 231 235 102
151 112 304 24 388 -28 27 -36 29 -107 29 -58 -1 -89 -6 -127 -23 l-49 -23
-56 23 c-42 18 -74 23 -137 23 l-83 0 -5 45 c-13 98 -11 94 -115 164 -55 36
-101 62 -104 58z m448 -363 c53 -19 56 -19 88 -3 21 12 56 18 96 18 57 1 66
-2 88 -27 94 -109 23 -285 -183 -454 l-43 -35 -48 40 c-165 139 -241 275 -212
383 7 23 24 55 40 71 35 35 93 38 174 7z"/>
</g>
</svg>
