<?xml version="1.0" standalone="no"?>
<!DOCTYPE svg PUBLIC "-//W3C//DTD SVG 20010904//EN"
 "http://www.w3.org/TR/2001/REC-SVG-20010904/DTD/svg10.dtd">
<svg version="1.0" xmlns="http://www.w3.org/2000/svg"
 width="128.000000pt" height="128.000000pt" viewBox="10 -139 128.000000 128.000000"
 preserveAspectRatio="xMidYMid meet">
<metadata>
Created by potrace 1.10, written by Peter Selinger 2001-2011
</metadata>
<g transform="scale(0.1175,-0.1175)"
fill="#000000" stroke="none">
<path d="M230 1117 c0 -12 9 -48 20 -80 11 -31 20 -64 20 -72 0 -9 6 -28 14
-43 7 -15 16 -39 20 -55 9 -39 -23 -66 -115 -97 -41 -13 -78 -28 -83 -32 -14
-12 10 -34 81 -74 75 -42 103 -64 103 -80 0 -7 -12 -25 -27 -42 -69 -73 -68
-73 -53 -82 8 -6 35 -10 60 -10 76 0 82 -18 51 -141 -27 -105 -29 -133 -11
-137 8 -1 26 8 40 20 60 54 121 90 143 84 12 -3 45 -33 72 -66 28 -33 55 -58
60 -57 6 2 20 25 33 52 65 140 77 160 100 163 13 2 30 -2 38 -9 28 -23 26 0
-5 45 -37 53 -77 87 -95 80 -7 -3 -25 -30 -40 -60 -22 -45 -31 -55 -49 -52
-13 2 -28 16 -37 36 -12 26 -19 32 -37 27 -13 -3 -35 -8 -50 -11 -25 -7 -26
-5 -20 22 4 16 9 39 13 51 5 17 1 22 -25 28 -43 9 -46 21 -16 60 25 33 26 55
4 55 -6 0 -26 12 -45 26 -39 30 -34 48 16 59 52 11 57 29 27 91 -28 57 -34 84
-18 84 13 0 95 -55 111 -75 20 -24 55 -19 68 10 13 29 24 31 42 10 34 -41 105
4 113 71 6 53 -3 69 -37 60 -35 -9 -65 9 -78 45 -14 40 -38 34 -61 -13 -21
-42 -41 -48 -78 -20 -13 9 -33 22 -44 28 -42 23 -70 40 -133 82 -73 48 -92 52
-92 19z"/>
<path d="M837 1004 c-4 -4 -7 -92 -7 -194 0 -200 -1 -205 -50 -212 -14 -1 -25
-8 -25 -15 0 -21 189 -278 204 -278 15 0 201 257 201 277 0 12 -10 18 -32 20
l-33 3 -5 200 -5 200 -121 3 c-66 1 -123 -1 -127 -4z"/>
</g>
</svg>
