<?xml version="1.0" standalone="no"?>
<!DOCTYPE svg PUBLIC "-//W3C//DTD SVG 20010904//EN"
 "http://www.w3.org/TR/2001/REC-SVG-20010904/DTD/svg10.dtd">
<svg version="1.0" xmlns="http://www.w3.org/2000/svg"
 width="128.000000pt" height="128.000000pt" viewBox="10 -139 128.000000 128.000000"
 preserveAspectRatio="xMidYMid meet">
<metadata>
Created by potrace 1.10, written by Peter Selinger 2001-2011
</metadata>
<g transform="scale(0.1175,-0.1175)" stroke="none">
<path d="M440 1121 c-75 -24 -127 -52 -178 -96 -73 -63 -69 -75 13 -34 239
121 473 72 566 -117 19 -38 24 -65 24 -121 0 -63 -3 -76 -30 -115 -39 -54 -97
-88 -153 -88 -47 0 -95 20 -111 47 -8 14 -10 8 -11 -27 0 -89 60 -144 160
-143 107 1 191 57 242 161 30 61 33 74 33 162 0 82 -4 103 -26 151 -70 148
-222 240 -397 238 -45 0 -100 -7 -132 -18z"/>
<path d="M427 989 c-126 -30 -231 -129 -272 -258 -28 -86 -18 -217 23 -304 60
-128 203 -243 327 -263 l40 -6 -61 41 c-89 60 -170 146 -207 221 -28 57 -32
74 -32 145 0 62 6 92 24 132 26 58 93 127 146 149 75 31 188 7 233 -51 30 -38
43 -90 31 -122 -13 -35 -4 -41 28 -17 73 55 88 117 49 198 -55 112 -190 168
-329 135z"/>
<path d="M1071 819 c-1 -20 -8 -75 -16 -123 -27 -153 -104 -270 -214 -323
-106 -51 -246 -33 -325 42 -33 32 -65 99 -66 135 0 79 56 160 111 160 39 0 37
13 -6 33 -122 58 -237 -39 -237 -200 -1 -202 228 -363 443 -313 169 39 305
183 339 358 14 71 8 167 -14 227 l-15 40 0 -36z"/>
</g>
</svg>
