<?xml version="1.0" standalone="no"?>
<!DOCTYPE svg PUBLIC "-//W3C//DTD SVG 20010904//EN"
 "http://www.w3.org/TR/2001/REC-SVG-20010904/DTD/svg10.dtd">
<svg version="1.0" xmlns="http://www.w3.org/2000/svg"
 width="128.000000pt" height="128.000000pt" viewBox="10 -139 128.000000 128.000000"
 preserveAspectRatio="xMidYMid meet">
<metadata>
Created by potrace 1.15, written by Peter Selinger 2001-2017
</metadata>
<g transform="scale(0.1175,-0.1175)"
fill="#000000" stroke="none">
<path d="M755 996 c-41 -18 -107 -73 -250 -205 -66 -62 -165 -147 -220 -189
-55 -42 -107 -86 -117 -97 -21 -26 -12 -44 66 -118 119 -114 258 -204 296
-192 16 5 47 63 65 125 4 14 16 42 27 63 28 55 63 67 205 67 114 0 121 1 189
34 68 32 114 74 114 102 0 21 -40 56 -56 50 -36 -14 -172 -18 -208 -6 -45 15
-86 67 -92 117 -6 51 6 69 34 52 16 -10 29 -10 58 -1 44 13 74 2 74 -28 0 -17
-7 -20 -49 -20 -57 0 -79 -17 -61 -49 22 -41 61 -49 150 -30 64 14 110 51 110
89 0 36 -63 115 -153 191 -61 51 -76 59 -111 59 -23 -1 -54 -7 -71 -14z"/>
</g>
</svg>
