<?xml version="1.0" standalone="no"?>
<!DOCTYPE svg PUBLIC "-//W3C//DTD SVG 20010904//EN"
 "http://www.w3.org/TR/2001/REC-SVG-20010904/DTD/svg10.dtd">
<svg version="1.0" xmlns="http://www.w3.org/2000/svg"
 width="128.000000pt" height="128.000000pt" viewBox="10 -139 128.000000 128.000000"
 preserveAspectRatio="xMidYMid meet">
<metadata>
Created by potrace 1.10, written by Peter Selinger 2001-2011
</metadata>
<g transform="scale(0.1175,-0.1175)"
fill="#000000" stroke="none">
<path d="M592 1127 c-6 -7 -12 -32 -14 -56 l-3 -43 -62 -21 c-114 -38 -215
-140 -244 -247 -17 -63 -24 -69 -82 -72 l-52 -3 0 -45 0 -45 59 -5 58 -5 18
-56 c38 -125 131 -214 272 -258 39 -13 50 -28 41 -60 -3 -11 -2 -32 1 -46 6
-22 12 -25 50 -25 41 0 45 2 51 30 4 16 4 38 0 49 -7 23 16 49 53 57 43 11
102 43 102 57 0 6 -11 25 -24 41 l-23 30 -36 -17 c-19 -9 -40 -17 -46 -17 -16
0 -33 39 -26 61 10 29 -12 49 -55 49 -41 0 -54 -16 -45 -53 3 -12 0 -30 -8
-41 -12 -16 -18 -17 -49 -7 -71 24 -168 130 -168 186 0 23 4 25 45 25 38 0 47
4 56 24 7 14 9 36 5 50 -6 24 -11 26 -56 26 -47 0 -50 2 -50 25 0 73 126 205
195 205 18 0 39 -46 30 -68 -8 -21 14 -42 44 -42 40 0 49 11 53 60 3 38 6 45
26 48 13 2 30 -2 37 -8 26 -21 45 -4 45 40 0 38 -3 42 -37 56 -63 24 -68 29
-71 70 -2 21 -10 45 -19 52 -22 16 -58 16 -71 -1z"/>
<path d="M858 913 c-3 -16 -4 -91 -3 -168 2 -159 -3 -185 -39 -185 -14 0 -27
-4 -30 -8 -8 -13 172 -257 192 -259 12 -2 44 36 105 122 48 69 87 129 87 134
0 5 -15 11 -32 13 l-33 3 -6 185 c-3 102 -6 186 -7 188 -1 1 -53 2 -116 2
l-113 0 -5 -27z"/>
<path d="M590 690 c-39 -39 -16 -100 37 -100 58 0 86 73 41 104 -30 21 -54 20
-78 -4z"/>
</g>
</svg>
