<?xml version="1.0" standalone="no"?>
<!DOCTYPE svg PUBLIC "-//W3C//DTD SVG 20010904//EN"
 "http://www.w3.org/TR/2001/REC-SVG-20010904/DTD/svg10.dtd">
<svg version="1.0" xmlns="http://www.w3.org/2000/svg"
 width="128.000000pt" height="128.000000pt" viewBox="10 -139 128.000000 128.000000"
 preserveAspectRatio="xMidYMid meet">
<metadata>
Created by potrace 1.15, written by Peter Selinger 2001-2017
</metadata>
<g transform="scale(0.1175,-0.1175)"
fill="#000000" stroke="none">
<path d="M316 1108 c-3 -13 -6 -61 -6 -107 0 -106 15 -135 185 -364 69 -93
125 -177 125 -188 0 -10 -9 -23 -20 -29 -21 -11 -29 -60 -10 -60 6 0 28 9 50
20 48 25 45 25 70 -2 28 -30 49 -70 74 -143 19 -54 24 -60 52 -63 37 -4 84 30
84 60 0 12 -22 44 -48 72 -27 28 -57 73 -67 100 l-19 49 42 36 c23 20 42 40
42 45 0 5 -22 6 -48 3 -26 -3 -53 -3 -59 1 -6 4 -30 54 -52 112 -56 144 -166
361 -204 404 -32 36 -117 76 -161 76 -16 0 -26 -7 -30 -22z"/>
</g>
</svg>
