<?xml version="1.0" standalone="no"?>
<!DOCTYPE svg PUBLIC "-//W3C//DTD SVG 20010904//EN"
 "http://www.w3.org/TR/2001/REC-SVG-20010904/DTD/svg10.dtd">
<svg version="1.0" xmlns="http://www.w3.org/2000/svg"
 width="128.000000pt" height="128.000000pt" viewBox="10 -139 128.000000 128.000000"
 preserveAspectRatio="xMidYMid meet">
<metadata>
Created by potrace 1.10, written by Peter Selinger 2001-2011
</metadata>
<g transform="scale(0.1175,-0.1175)"
fill="#000000" stroke="none">
<path d="M770 1124 c-14 -2 -65 -9 -114 -16 -111 -14 -138 -35 -183 -140 -17
-40 -46 -107 -64 -148 -17 -41 -34 -95 -37 -119 l-5 -43 61 7 c54 6 63 4 82
-15 17 -17 21 -29 15 -53 -9 -43 -17 -376 -10 -404 12 -48 41 -27 87 65 42 81
109 199 163 282 64 100 103 159 128 192 47 61 36 73 -61 73 -89 0 -102 7 -102
54 0 22 42 94 110 189 40 54 37 77 -10 78 -19 1 -46 0 -60 -2z"/>
</g>
</svg>
