<?xml version="1.0" standalone="no"?>
<!DOCTYPE svg PUBLIC "-//W3C//DTD SVG 20010904//EN"
 "http://www.w3.org/TR/2001/REC-SVG-20010904/DTD/svg10.dtd">
<svg version="1.0" xmlns="http://www.w3.org/2000/svg"
 width="128.000000pt" height="128.000000pt" viewBox="0 -129 128.000000 128.000000"
 preserveAspectRatio="xMidYMid meet">
<metadata>
Created by potrace 1.15, written by Peter Selinger 2001-2017
</metadata>
<g transform="scale(0.1000,-0.1000)"
fill="#000000" stroke="none">
<path d="M540 1226 c-19 -13 -46 -38 -59 -56 -22 -31 -23 -38 -19 -156 4 -113
6 -125 28 -149 l23 -25 -24 -26 c-42 -45 -103 -82 -164 -98 -46 -12 -67 -24
-92 -53 -69 -79 -68 -73 -71 -248 l-2 -160 28 -40 c32 -45 118 -87 319 -155
189 -63 254 -50 479 98 118 78 134 98 134 174 0 58 -38 229 -65 294 -14 35
-103 94 -141 94 -26 0 -107 53 -134 87 -27 35 -25 63 7 109 34 50 33 98 -3
191 -32 80 -46 99 -96 124 -51 26 -106 24 -148 -5z m123 -519 c10 -32 29 -64
47 -80 16 -15 30 -32 30 -38 0 -6 -13 -27 -30 -46 -16 -18 -30 -43 -30 -54 0
-11 -7 -34 -16 -50 -24 -46 -45 -34 -61 35 -7 32 -22 73 -33 91 -12 19 -20 50
-20 74 0 33 7 49 36 81 20 22 42 40 48 40 7 0 20 -24 29 -53z m-185 -324 c40
-52 52 -77 52 -109 0 -24 -3 -26 -30 -21 -16 4 -60 9 -97 13 -58 6 -71 12 -96
38 -72 78 -73 106 -3 106 24 0 59 6 77 14 40 17 56 10 97 -41z m518 25 c-4
-13 -12 -48 -18 -79 l-11 -56 -83 -6 c-91 -7 -157 0 -151 16 1 5 27 19 57 30
30 11 84 42 119 69 71 53 97 61 87 26z"/>
</g>
</svg>
