<?xml version="1.0" standalone="no"?>
<!DOCTYPE svg PUBLIC "-//W3C//DTD SVG 20010904//EN"
 "http://www.w3.org/TR/2001/REC-SVG-20010904/DTD/svg10.dtd">
<svg version="1.0" xmlns="http://www.w3.org/2000/svg"
 width="128.000000pt" height="128.000000pt" viewBox="10 -139 128.000000 128.000000"
 preserveAspectRatio="xMidYMid meet">
<metadata>
Created by potrace 1.15, written by Peter Selinger 2001-2017
</metadata>
<g transform="scale(0.1175,-0.1175)"
fill="#000000" stroke="none">
<path d="M500 976 c-94 -26 -133 -58 -128 -103 5 -41 72 -71 192 -85 180 -22
357 16 372 79 8 32 -3 52 -44 76 -69 41 -296 59 -392 33z m305 -64 c30 -6 40
-12 40 -27 0 -14 -10 -21 -40 -28 -46 -10 -301 -4 -328 8 -29 12 -16 39 23 46
49 9 257 9 305 1z"/>
<path d="M210 687 c0 -32 88 -87 142 -87 18 0 40 -5 48 -10 12 -9 9 -15 -20
-39 l-34 -29 37 -22 c29 -17 37 -28 37 -51 0 -30 3 -33 51 -43 17 -4 29 -14
33 -30 16 -62 106 -20 106 50 0 8 -8 31 -19 52 -10 20 -22 67 -25 104 -5 40
-14 72 -23 79 -8 8 -66 16 -141 20 -70 5 -142 11 -159 14 -24 4 -33 2 -33 -8z"/>
<path d="M1035 689 c-22 -5 -76 -8 -120 -8 -150 3 -153 1 -165 -99 -5 -39 -16
-85 -25 -101 -24 -47 -20 -96 11 -120 35 -28 49 -26 73 8 12 16 34 31 51 34
27 6 30 10 30 42 0 32 4 38 35 51 42 17 43 26 10 52 -41 33 -27 52 38 52 45 0
115 37 133 71 14 28 14 29 -8 28 -13 -1 -41 -5 -63 -10z"/>
</g>
</svg>
