<?xml version="1.0" standalone="no"?>
<!DOCTYPE svg PUBLIC "-//W3C//DTD SVG 20010904//EN"
 "http://www.w3.org/TR/2001/REC-SVG-20010904/DTD/svg10.dtd">
<svg version="1.0" xmlns="http://www.w3.org/2000/svg"
 width="128.000000pt" height="128.000000pt" viewBox="10 -139 128.000000 128.000000"
 preserveAspectRatio="xMidYMid meet">
<metadata>
Created by potrace 1.15, written by Peter Selinger 2001-2017
</metadata>
<g transform="scale(0.1175,-0.1175)"
fill="#000000" stroke="none">
<path d="M222 1124 c-12 -8 -22 -21 -22 -29 0 -8 25 -42 55 -77 30 -34 55 -68
55 -75 0 -6 -19 -22 -42 -35 -69 -39 -47 -55 80 -57 84 -1 116 11 107 40 -4
10 1 33 9 51 18 34 21 103 7 113 -6 3 -24 -8 -41 -25 -17 -16 -36 -30 -44 -30
-16 0 -49 36 -70 77 -19 37 -43 63 -59 63 -7 0 -23 -7 -35 -16z"/>
<path d="M969 1098 c-26 -53 -67 -98 -89 -98 -9 0 -27 11 -40 25 -13 14 -28
25 -33 25 -13 0 3 -193 17 -202 28 -19 216 -3 223 18 2 7 -17 24 -42 38 -25
15 -45 32 -45 38 0 6 25 40 55 75 58 69 67 96 36 113 -39 20 -60 12 -82 -32z"/>
<path d="M558 855 c-14 -8 -63 -23 -109 -34 -45 -10 -86 -25 -91 -33 -5 -7 -7
-56 -5 -108 4 -109 24 -158 103 -261 47 -61 128 -133 164 -144 10 -3 33 1 51
11 44 22 162 144 195 200 32 54 64 178 64 245 0 46 0 47 -49 68 -65 28 -228
71 -266 71 -16 -1 -42 -7 -57 -15z m172 -76 c41 -11 86 -27 99 -36 22 -14 23
-20 19 -87 -4 -55 -12 -85 -34 -126 -36 -67 -102 -140 -146 -164 -33 -18 -36
-18 -72 -1 -66 32 -153 168 -175 276 -17 81 2 119 59 119 10 0 37 9 61 20 56
25 96 25 189 -1z"/>
<path d="M593 706 c-34 -42 -89 -133 -97 -162 -5 -15 -1 -24 10 -28 28 -11 48
2 83 54 19 27 40 50 47 50 7 0 27 -20 44 -45 33 -47 68 -77 82 -69 17 10 7 60
-22 110 -32 56 -91 124 -108 124 -6 0 -23 -15 -39 -34z"/>
<path d="M796 340 c-20 -22 -36 -50 -36 -61 0 -30 62 -86 110 -100 22 -7 42
-10 44 -8 6 6 9 56 8 101 -2 39 -51 108 -77 108 -7 0 -29 -18 -49 -40z"/>
<path d="M382 335 c-31 -34 -51 -108 -38 -140 14 -38 136 4 165 58 16 30 6 53
-40 91 -40 34 -51 33 -87 -9z"/>
</g>
</svg>
