<?xml version="1.0" standalone="no"?>
<!DOCTYPE svg PUBLIC "-//W3C//DTD SVG 20010904//EN"
 "http://www.w3.org/TR/2001/REC-SVG-20010904/DTD/svg10.dtd">
<svg version="1.0" xmlns="http://www.w3.org/2000/svg"
 width="128.000000pt" height="128.000000pt" viewBox="10 -139 128.000000 128.000000"
 preserveAspectRatio="xMidYMid meet">
<metadata>
Created by potrace 1.15, written by Peter Selinger 2001-2017
</metadata>
<g transform="scale(0.1175,-0.1175)"
fill="#000000" stroke="none">
<path d="M562 1140 c-87 -40 -145 -52 -364 -75 l-58 -6 0 -132 c0 -73 5 -163
10 -202 19 -136 116 -282 304 -462 119 -114 151 -127 221 -92 60 30 232 192
291 274 110 155 156 330 139 530 l-7 84 -56 6 c-166 16 -235 29 -312 56 -116
42 -119 42 -168 19z m175 -260 c37 -24 46 -62 47 -217 l1 -146 -28 -21 c-34
-25 -167 -35 -228 -17 -66 20 -100 88 -63 126 21 20 54 14 106 -21 59 -38 108
-31 108 17 0 24 -5 30 -32 37 -46 12 -49 48 -9 95 36 40 38 52 12 67 -22 11
-57 1 -100 -29 -42 -29 -67 -34 -86 -15 -35 35 6 114 69 134 43 13 176 6 203
-10z"/>
</g>
</svg>
