<?xml version="1.0" standalone="no"?>
<!DOCTYPE svg PUBLIC "-//W3C//DTD SVG 20010904//EN"
 "http://www.w3.org/TR/2001/REC-SVG-20010904/DTD/svg10.dtd">
<svg version="1.0" xmlns="http://www.w3.org/2000/svg"
 width="300.000000pt" height="300.000000pt" viewBox="0 -270 300.000000 300.000000"
 preserveAspectRatio="xMidYMid meet">
<metadata>
Created by potrace 1.10, written by Peter Selinger 2001-2011
</metadata>
<g transform="scale(0.100000,-0.100000)"
fill="#000000" stroke="none">
<path d="M525 2413 c-86 -100 -128 -161 -122 -176 11 -25 1110 -1202 1122
-1202 12 0 227 230 869 934 133 145 241 267 241 272 0 13 -82 123 -139 186
l-52 57 -190 -139 c-104 -77 -242 -179 -308 -227 -65 -48 -121 -88 -125 -88
-3 0 -37 61 -75 135 -81 155 -80 162 12 167 57 3 57 3 55 33 -1 18 -13 39 -28
53 -25 21 -34 22 -191 22 l-164 0 -102 -205 c-57 -113 -107 -205 -112 -205 -7
0 -305 220 -593 437 l-31 24 -67 -78z"/>
<path d="M2573 2033 c-60 -65 -124 -134 -140 -153 l-31 -36 181 -165 c100 -91
201 -183 225 -203 l42 -38 0 99 c0 127 -23 260 -67 392 -30 92 -87 221 -97
221 -2 0 -53 -53 -113 -117z"/>
<path d="M331 2113 c-89 -190 -131 -353 -138 -535 -3 -76 -3 -138 1 -138 11 0
436 392 436 402 0 12 -261 292 -276 296 -6 1 -16 -10 -23 -25z"/>
<path d="M2265 1689 c-55 -61 -101 -113 -103 -117 -4 -13 579 -575 587 -566
27 29 91 260 91 326 0 35 -9 45 -222 240 -123 112 -230 208 -238 215 -12 9
-32 -8 -115 -98z"/>
<path d="M435 1580 c-145 -133 -231 -218 -234 -232 -8 -57 68 -346 94 -355 6
-2 140 127 299 286 l288 288 -103 112 c-56 61 -105 111 -108 111 -3 0 -109
-95 -236 -210z"/>
<path d="M1995 1394 c-66 -74 -122 -140 -123 -145 -4 -9 33 -51 337 -379 272
-293 261 -283 284 -263 34 30 160 205 192 265 l30 58 -300 300 -300 300 -120
-136z"/>
<path d="M622 1227 c-160 -160 -292 -299 -292 -307 0 -24 90 -164 166 -259
l67 -85 36 40 c20 22 148 161 286 309 306 331 285 307 285 316 0 9 -241 279
-249 279 -3 0 -138 -132 -299 -293z"/>
<path d="M1260 1088 c-35 -46 -168 -213 -294 -372 -179 -226 -227 -292 -219
-304 5 -9 43 -34 84 -57 305 -169 666 -230 965 -165 84 18 236 71 309 108 83
41 195 111 195 121 0 7 -468 611 -547 707 l-33 39 -97 -104 -98 -104 -100 107
-100 107 -65 -83z"/>
</g>
</svg>
