<?xml version="1.0" standalone="no"?>
<!DOCTYPE svg PUBLIC "-//W3C//DTD SVG 20010904//EN"
 "http://www.w3.org/TR/2001/REC-SVG-20010904/DTD/svg10.dtd">
<svg version="1.0" xmlns="http://www.w3.org/2000/svg"
 width="128.000000pt" height="128.000000pt" viewBox="10 -139 128.000000 128.000000"
 preserveAspectRatio="xMidYMid meet">
<metadata>
Created by potrace 1.15, written by Peter Selinger 2001-2017
</metadata>
<g transform="scale(0.1175,-0.1175)"
fill="#000000" stroke="none">
<path d="M606 1057 c-10 -40 -37 -157 -61 -260 -23 -104 -47 -193 -53 -199
-12 -12 -46 13 -187 138 -75 66 -114 94 -131 94 -4 0 0 -8 8 -17 36 -41 119
-265 104 -280 -3 -4 -36 8 -72 26 -37 17 -68 30 -70 28 -3 -2 20 -55 51 -118
30 -63 55 -120 55 -126 0 -7 -12 -13 -26 -13 l-26 0 22 -27 c12 -16 34 -47 51
-70 16 -24 36 -43 44 -43 9 0 38 -11 66 -25 27 -14 54 -23 59 -20 5 3 -6 29
-25 57 -30 43 -45 88 -30 88 2 0 28 -18 57 -40 64 -48 78 -50 78 -10 0 34 22
40 52 14 26 -24 42 -6 69 74 12 37 27 74 34 82 7 8 20 31 27 50 14 34 15 35
26 13 7 -12 17 -60 23 -105 17 -142 15 -139 53 -82 19 27 41 55 49 63 14 11
17 9 23 -14 6 -26 -4 -87 -21 -127 -5 -14 -2 -18 12 -18 10 0 24 5 31 12 9 9
12 8 12 -6 0 -16 6 -18 42 -12 53 9 49 6 105 79 26 34 53 66 60 70 20 12 16
34 -7 40 -28 7 -26 69 5 163 14 41 25 77 25 80 0 3 -38 -30 -85 -73 -47 -43
-91 -80 -97 -82 -14 -5 -6 61 33 253 17 81 28 150 26 153 -3 2 -31 -26 -63
-63 -111 -127 -137 -154 -149 -154 -7 0 -21 19 -30 43 -34 83 -135 388 -135
407 0 46 -18 23 -34 -43z"/>
<path d="M253 1085 c4 -22 9 -74 13 -115 4 -41 13 -86 20 -100 16 -32 164
-178 164 -163 0 6 5 46 11 87 l10 76 -112 127 c-110 125 -112 126 -106 88z"/>
<path d="M967 1034 c-28 -15 -52 -35 -57 -50 -19 -50 -7 -164 15 -142 16 16
105 164 105 174 0 7 3 19 6 28 9 23 -13 19 -69 -10z"/>
<path d="M1082 724 c-28 -19 -52 -65 -52 -99 0 -41 31 -28 57 24 13 25 27 49
33 55 14 14 12 36 -3 36 -7 0 -23 -7 -35 -16z"/>
</g>
</svg>
