<?xml version="1.0" standalone="no"?>
<!DOCTYPE svg PUBLIC "-//W3C//DTD SVG 20010904//EN"
 "http://www.w3.org/TR/2001/REC-SVG-20010904/DTD/svg10.dtd">
<svg version="1.0" xmlns="http://www.w3.org/2000/svg"
 width="128.000000pt" height="128.000000pt" viewBox="22 -155 128.000000 128.000000"
 preserveAspectRatio="xMidYMid meet">
<metadata>
Created by potrace 1.10, written by Peter Selinger 2001-2011
</metadata>
<g transform="scale(0.14,-0.14)"
fill="#000000" stroke="none">
<path d="M424 1065 c-33 -50 -16 -62 207 -142 112 -40 209 -73 214 -73 6 0 15
10 20 23 11 25 49 34 71 17 7 -7 14 -25 14 -41 0 -54 -66 -60 -172 -14 -15 6
-18 2 -18 -28 0 -19 -7 -40 -15 -47 -20 -17 -19 -49 3 -57 32 -11 52 -36 52
-64 0 -39 -24 -59 -73 -59 -62 0 -119 -36 -128 -80 -9 -43 -50 -80 -89 -80
-43 0 -90 44 -90 85 0 63 76 106 129 73 31 -19 109 35 127 87 19 54 19 54 -19
70 -62 26 -81 74 -46 118 12 16 19 31 15 34 -6 7 -106 43 -117 43 -3 0 -8 -30
-11 -67 -6 -84 -27 -125 -111 -224 -36 -42 -72 -90 -81 -107 -21 -41 -20 -94
2 -122 12 -14 101 -55 253 -115 128 -50 235 -91 237 -90 1 1 -5 18 -13 38 -35
84 -13 147 85 251 90 94 123 164 128 267 4 86 -12 138 -51 164 -33 21 -452
165 -482 165 -15 0 -31 -10 -41 -25z"/>
</g>
</svg>
