<?xml version="1.0" standalone="no"?>
<!DOCTYPE svg PUBLIC "-//W3C//DTD SVG 20010904//EN"
 "http://www.w3.org/TR/2001/REC-SVG-20010904/DTD/svg10.dtd">
<svg version="1.0" xmlns="http://www.w3.org/2000/svg"
 width="128.000000pt" height="128.000000pt" viewBox="22 -155 128.000000 128.000000"
 preserveAspectRatio="xMidYMid meet">
<metadata>
Created by potrace 1.10, written by Peter Selinger 2001-2011
</metadata>
<g transform="scale(0.14,-0.14)"
fill="#000000" stroke="none">
<path d="M697 1030 c-14 -33 -31 -60 -38 -60 -6 0 -34 11 -61 25 -28 14 -52
24 -54 22 -6 -6 97 -157 106 -157 5 0 2 16 -6 36 -17 41 -12 54 16 36 29 -18
37 -15 49 18 5 17 14 30 19 30 5 0 15 -13 22 -30 14 -33 21 -36 50 -18 28 18
32 6 15 -35 -16 -40 -3 -52 16 -14 6 12 29 46 51 75 21 28 34 52 29 52 -5 0
-31 -9 -57 -20 -26 -12 -53 -19 -59 -16 -6 2 -23 29 -36 60 -13 31 -26 56 -29
56 -3 0 -18 -27 -33 -60z"/>
<path d="M296 886 c-78 -73 -79 -74 -88 -137 l-8 -63 38 -39 c35 -34 46 -39
98 -43 43 -3 64 -1 78 10 18 14 18 16 -3 50 -25 39 -18 65 23 98 28 23 52 22
86 -2 26 -18 28 -19 42 -2 9 9 18 37 21 62 6 43 3 48 -36 93 l-42 47 -65 0
-65 -1 -79 -73z"/>
<path d="M879 852 c-46 -62 -89 -112 -95 -112 -6 0 -19 16 -30 35 -10 19 -23
35 -29 35 -6 0 -30 -32 -54 -71 l-44 -71 41 -41 41 -41 27 24 26 25 30 -37
c16 -21 34 -38 39 -38 13 0 274 220 276 234 1 6 -31 47 -71 90 l-73 79 -84
-111z"/>
<path d="M440 728 c-11 -12 -19 -28 -18 -35 2 -7 101 -113 220 -237 l217 -223
41 10 c37 10 40 14 40 47 0 32 -12 48 -177 208 -191 186 -267 252 -289 252 -7
0 -23 -10 -34 -22z"/>
<path d="M474 418 c-31 -51 -68 -108 -81 -126 -14 -18 -23 -36 -20 -39 6 -5
217 205 217 216 0 9 -39 41 -50 41 -5 0 -34 -42 -66 -92z"/>
</g>
</svg>
