<?xml version="1.0" standalone="no"?>
<!DOCTYPE svg PUBLIC "-//W3C//DTD SVG 20010904//EN"
 "http://www.w3.org/TR/2001/REC-SVG-20010904/DTD/svg10.dtd">
<svg version="1.0" xmlns="http://www.w3.org/2000/svg"
 width="128.000000pt" height="128.000000pt" viewBox="22 -155 128.000000 128.000000"
 preserveAspectRatio="xMidYMid meet">
<metadata>
Created by potrace 1.10, written by Peter Selinger 2001-2011
</metadata>
<g transform="scale(0.14,-0.14)"
fill="#000000" stroke="none">
<path d="M352 1080 c-7 -11 -19 -20 -27 -20 -23 0 -37 -45 -24 -76 5 -15 11
-25 13 -23 25 26 76 93 76 98 0 4 -6 15 -12 24 -12 16 -14 16 -26 -3z"/>
<path d="M422 1023 c-42 -42 -45 -83 -12 -149 35 -68 18 -107 -25 -60 -32 35
-45 33 -39 -6 3 -20 -3 -57 -15 -92 -12 -33 -21 -84 -21 -115 0 -49 6 -67 44
-131 24 -42 65 -99 90 -127 49 -54 172 -143 199 -143 45 0 207 140 263 227 74
115 89 179 59 250 -19 45 -19 94 0 119 23 31 17 68 -20 124 -36 53 -39 52 -49
-7 -3 -21 -22 -48 -51 -76 -64 -62 -62 -91 11 -192 l57 -77 -29 -55 c-33 -64
-131 -173 -197 -221 l-45 -32 -49 36 c-26 20 -63 51 -81 68 -43 40 -132 172
-132 196 0 10 28 56 62 101 34 46 73 105 86 132 23 43 24 51 13 87 -7 22 -26
56 -43 76 -17 19 -34 49 -37 67 l-7 32 -32 -32z"/>
<path d="M752 1010 c1 -16 -9 -49 -22 -73 -24 -45 -23 -75 3 -111 13 -17 15
-16 38 19 13 21 32 51 43 67 22 34 16 69 -19 104 -32 32 -44 30 -43 -6z"/>
<path d="M542 696 c-51 -74 -92 -138 -92 -143 0 -4 11 -21 23 -37 l23 -29 68
97 c37 53 72 96 79 96 7 0 36 -35 65 -78 86 -126 81 -121 98 -97 36 47 36 47
-53 176 -47 68 -88 130 -90 137 -11 28 -34 5 -121 -122z"/>
</g>
</svg>
