<?xml version="1.0" standalone="no"?>
<!DOCTYPE svg PUBLIC "-//W3C//DTD SVG 20010904//EN"
 "http://www.w3.org/TR/2001/REC-SVG-20010904/DTD/svg10.dtd">
<svg version="1.0" xmlns="http://www.w3.org/2000/svg"
 width="128.000000pt" height="128.000000pt" viewBox="22 -155 128.000000 128.000000"
 preserveAspectRatio="xMidYMid meet">
<metadata>
Created by potrace 1.10, written by Peter Selinger 2001-2011
</metadata>
<g transform="scale(0.14,-0.14)"
fill="#000000" stroke="none">
<path d="M285 1050 c-14 -22 -17 -119 -5 -154 6 -20 27 -58 46 -86 19 -27 34
-52 34 -55 0 -13 -27 -2 -52 22 l-28 27 0 -33 c0 -18 12 -55 27 -81 27 -49 27
-74 -1 -51 -19 16 -30 -2 -22 -35 22 -88 113 -225 194 -292 60 -50 127 -92
147 -92 53 0 215 145 274 244 59 98 87 210 45 175 -28 -23 -28 3 -1 51 40 72
34 148 -7 85 -9 -14 -23 -25 -31 -25 -20 0 -19 5 13 53 43 64 62 111 62 155 0
41 -17 102 -28 102 -4 0 -20 -21 -37 -48 -16 -26 -61 -77 -99 -113 -81 -79
-82 -72 12 -213 l66 -98 -28 -54 c-33 -63 -135 -177 -196 -219 -41 -29 -42
-29 -74 -11 -73 39 -236 234 -236 282 0 7 24 48 54 91 67 98 87 138 80 157 -3
8 -31 37 -62 64 -31 27 -73 75 -92 106 -36 57 -44 64 -55 46z"/>
<path d="M530 729 c-51 -74 -95 -141 -97 -149 -2 -8 7 -28 20 -44 l24 -29 69
96 c37 53 74 97 80 97 6 0 20 -12 29 -27 10 -16 41 -59 68 -97 l51 -69 23 29
c13 16 23 32 23 37 0 7 -139 214 -179 266 l-18 23 -93 -133z"/>
</g>
</svg>
