<?xml version="1.0" standalone="no"?>
<!DOCTYPE svg PUBLIC "-//W3C//DTD SVG 20010904//EN"
 "http://www.w3.org/TR/2001/REC-SVG-20010904/DTD/svg10.dtd">
<svg version="1.0" xmlns="http://www.w3.org/2000/svg"
 width="147.000000pt" height="160.000000pt" viewBox="-3 -130 160.000000 147.000000"
 preserveAspectRatio="xMidYMid meet">
<metadata>
Created by potrace 1.10, written by Peter Selinger 2001-2011
</metadata>
<g transform="scale(0.050000,-0.050000)"
fill="#000000" stroke="none">
<path d="M1594 2566 c-28 -86 -57 -218 -64 -295 l-14 -138 122 105 c67 58 122
121 122 140 0 34 -92 321 -108 337 -4 4 -31 -63 -58 -149z"/>
<path d="M842 2488 c-46 -128 -46 -133 -11 -210 44 -97 48 -97 105 3 l47 81
-43 129 c-52 155 -41 156 -98 -3z"/>
<path d="M1080 2034 l-290 -424 -14 250 c-24 405 -11 388 -136 182 -126 -207
-130 -210 -162 -102 -35 117 -38 113 -201 -275 -139 -329 -154 -355 -205 -361
-66 -8 -76 15 118 -291 188 -297 170 -288 240 -118 80 191 80 191 120 -54 19
-121 38 -221 42 -221 3 0 47 51 97 112 l92 113 34 -82 c45 -106 29 -111 254
89 106 95 198 168 203 162 6 -6 -34 -182 -88 -392 -55 -210 -91 -382 -81 -382
10 0 63 23 117 50 114 58 140 62 140 20 0 -42 32 -37 180 29 159 72 157 73 76
-82 -36 -70 -69 -134 -73 -142 -3 -8 134 -15 305 -15 341 0 348 3 232 89 -92
68 -109 31 145 314 189 210 189 199 4 253 l-151 45 241 212 c133 117 238 216
234 221 -4 4 -198 -4 -430 -17 -233 -13 -428 -18 -435 -12 -9 10 213 394 599
1035 l42 70 -49 -31 c-154 -97 -923 -523 -931 -515 -5 5 2 164 16 353 14 189
21 343 15 342 -5 0 -140 -191 -300 -425z"/>
<path d="M2121 1560 l-101 -140 261 0 261 0 158 125 c87 69 158 132 159 140 1
8 -142 15 -317 15 l-319 0 -102 -140z"/>
<path d="M2530 968 c-144 -108 -149 -118 -73 -144 56 -20 60 -17 140 108 97
152 90 155 -67 36z"/>
</g>
</svg>
