<?xml version="1.0" standalone="no"?>
<!DOCTYPE svg PUBLIC "-//W3C//DTD SVG 20010904//EN"
 "http://www.w3.org/TR/2001/REC-SVG-20010904/DTD/svg10.dtd">
<svg version="1.0" xmlns="http://www.w3.org/2000/svg"
 width="95.000000px" height="100.000000px" viewBox="0 -80 95.000000 100.000000"
 preserveAspectRatio="xMidYMid meet">
<metadata>
Created by potrace 1.10, written by Peter Selinger 2001-2011
</metadata>
<g transform="scale(0.100000,-0.100000)"
fill="#000000" stroke="none">
<path d="M560 610 c-88 -84 -162 -151 -164 -149 -2 2 -13 33 -24 69 l-19 65
-32 -69 c-18 -39 -35 -65 -40 -60 -5 5 -42 60 -84 122 l-75 114 -7 -136 c-4
-75 -9 -136 -12 -136 -2 0 -21 12 -40 27 -45 35 -51 45 124 -227 l139 -215
149 -3 149 -3 -24 26 -23 25 174 0 174 0 -40 24 c-22 13 -86 49 -143 80 l-103
58 58 61 58 62 -80 3 c-44 1 -85 4 -92 7 -8 2 15 70 67 201 44 109 78 200 75
202 -2 2 -76 -64 -165 -148z"/>
</g>
</svg>
