<?xml version="1.0" standalone="no"?>
<!DOCTYPE svg PUBLIC "-//W3C//DTD SVG 20010904//EN"
 "http://www.w3.org/TR/2001/REC-SVG-20010904/DTD/svg10.dtd">
<svg version="1.0" xmlns="http://www.w3.org/2000/svg"
 width="80.000000pt" height="79.000000pt" viewBox="0 -79 80.000000 79.000000"
 preserveAspectRatio="xMidYMid meet">
<metadata>
Created by potrace 1.10, written by Peter Selinger 2001-2011
</metadata>
<g transform="scale(0.100000,-0.100000)"
fill="#000000" stroke="none">
<path d="M542 665 c-16 -14 -32 -35 -36 -48 -5 -22 -14 -25 -93 -34 -75 -8
-89 -7 -97 6 -19 31 -60 61 -92 67 -49 9 -82 -2 -121 -41 -29 -29 -33 -39 -33
-85 0 -48 4 -56 40 -92 38 -38 42 -40 94 -36 l54 3 51 -63 c49 -62 50 -65 36
-92 -33 -63 -6 -154 55 -185 16 -8 52 -15 79 -15 42 0 56 5 86 31 48 43 62 97
40 156 -10 24 -25 49 -35 55 -17 11 -16 15 8 84 24 66 29 73 63 83 60 18 89
55 89 113 0 43 -4 54 -34 84 -29 29 -41 34 -79 34 -34 0 -53 -6 -75 -25z m-15
-164 l22 -28 -27 -71 c-23 -63 -30 -72 -52 -72 -14 0 -34 -3 -45 -6 -16 -4
-32 9 -71 58 -51 63 -51 64 -36 95 16 33 15 33 127 46 56 7 60 6 82 -22z"/>
</g>
</svg>
