<?xml version="1.0" standalone="no"?>
<!DOCTYPE svg PUBLIC "-//W3C//DTD SVG 20010904//EN"
 "http://www.w3.org/TR/2001/REC-SVG-20010904/DTD/svg10.dtd">
<svg version="1.0" xmlns="http://www.w3.org/2000/svg"
 width="65.000000pt" height="65.000000pt" viewBox="5 -69 65.000000 65.000000"
 preserveAspectRatio="xMidYMid meet">
<metadata>
Created by potrace 1.10, written by Peter Selinger 2001-2011
</metadata>
<g transform="scale(0.11, -0.11)">
<path d="M268 591 c-27 -24 -33 -36 -33 -69 0 -70 66 -116 129 -92 23 8 32 7
53 -10 14 -11 41 -20 59 -20 32 0 34 -2 34 -35 l0 -35 -63 0 c-62 0 -64 1
-160 70 -53 39 -99 70 -101 70 -8 0 -108 -171 -103 -176 3 -3 44 -34 92 -69
80 -58 88 -67 90 -100 5 -80 101 -120 159 -66 75 70 13 186 -89 167 -32 -6
-43 -2 -100 40 -36 27 -65 51 -65 55 0 4 8 16 18 28 l17 22 80 -55 80 -56 108
0 107 0 0 100 0 100 -50 0 c-61 0 -100 22 -100 57 0 34 -28 79 -57 92 -39 18
-71 13 -105 -18z m87 -71 c0 -18 -6 -26 -23 -28 -13 -2 -25 3 -28 12 -10 26 4
48 28 44 17 -2 23 -10 23 -28z m30 -390 c0 -18 -6 -26 -23 -28 -13 -2 -25 3
-28 12 -10 26 4 48 28 44 17 -2 23 -10 23 -28z"/>
</g>
</svg>
