<?xml version="1.0" standalone="no"?>
<!DOCTYPE svg PUBLIC "-//W3C//DTD SVG 20010904//EN"
 "http://www.w3.org/TR/2001/REC-SVG-20010904/DTD/svg10.dtd">
<svg version="1.0" xmlns="http://www.w3.org/2000/svg"
 width="65.000000pt" height="65.000000pt" viewBox="9 -74 65.000000 65.000000"
 preserveAspectRatio="xMidYMid meet">
<metadata>
Created by potrace 1.10, written by Peter Selinger 2001-2011
</metadata>
<g transform="scale(0.125,-0.125)">
<path d="M257 574 c-11 -11 -8 -44 3 -44 6 0 10 -29 10 -67 0 -65 -1 -68 -53
-137 -110 -146 -123 -178 -87 -211 63 -57 337 -57 400 0 37 34 25 62 -108 244
-28 39 -32 52 -32 108 0 38 4 63 11 63 6 0 9 10 7 23 -3 20 -9 22 -73 25 -39
1 -74 0 -78 -4z m67 -210 c18 -47 -5 -109 -54 -144 -32 -23 -41 -65 -18 -88 9
-9 9 -12 0 -12 -17 0 -92 31 -92 39 0 10 144 221 151 221 4 0 10 -7 13 -16z"/>
</g>
</svg>
