<?xml version="1.0" standalone="no"?>
<!DOCTYPE svg PUBLIC "-//W3C//DTD SVG 20010904//EN"
 "http://www.w3.org/TR/2001/REC-SVG-20010904/DTD/svg10.dtd">
<svg version="1.0" xmlns="http://www.w3.org/2000/svg"
 width="65.000000pt" height="65.000000pt" viewBox="9 -74 65.000000 65.000000"
 preserveAspectRatio="xMidYMid meet">
<metadata>
Created by potrace 1.10, written by Peter Selinger 2001-2011
</metadata>
<g transform="scale(0.125,-0.125)"
fill="#000000" stroke="none">
<path d="M205 566 c-25 -60 -20 -127 15 -174 32 -45 44 -49 74 -27 19 15 19
15 -4 40 l-23 25 63 0 64 0 -102 -98 -102 -98 0 -59 c0 -42 6 -70 20 -92 20
-34 34 -39 59 -24 11 7 11 13 -3 32 -9 13 -16 27 -16 31 0 5 36 8 80 8 44 0
80 -3 80 -8 0 -4 -7 -18 -16 -31 -14 -19 -14 -25 -3 -32 25 -15 39 -10 59 23
24 39 27 116 6 156 -8 15 -26 38 -40 51 -25 24 -26 24 -46 6 -14 -13 -17 -22
-10 -29 19 -19 10 -26 -30 -26 -22 0 -40 4 -40 9 0 5 31 34 70 66 38 31 79 72
90 90 24 39 26 110 5 161 -12 30 -19 35 -42 32 -28 -3 -30 -8 -18 -40 6 -16 0
-18 -65 -18 -65 0 -71 2 -65 18 12 32 10 37 -18 40 -23 3 -30 -2 -42 -32z
m213 -78 c-3 -9 -30 -13 -88 -13 -58 0 -85 4 -87 13 -4 9 18 12 87 12 69 0 91
-3 88 -12z m-8 -300 c0 -9 -23 -13 -80 -13 -57 0 -80 4 -80 13 0 8 23 12 80
12 57 0 80 -4 80 -12z"/>
</g>
</svg>
