<?xml version="1.0" standalone="no"?>
<!DOCTYPE svg PUBLIC "-//W3C//DTD SVG 20010904//EN"
 "http://www.w3.org/TR/2001/REC-SVG-20010904/DTD/svg10.dtd">
<svg version="1.0" xmlns="http://www.w3.org/2000/svg"
 width="128.000000pt" height="128.000000pt" viewBox="10 -139 128.000000 128.000000"
 preserveAspectRatio="xMidYMid meet">
<metadata>
Created by potrace 1.10, written by Peter Selinger 2001-2011
</metadata>
<g transform="scale(0.1175,-0.1175)"
fill="#000000" stroke="none">
<path d="M546 1109 c-32 -26 -70 -97 -92 -176 l-16 -58 -42 3 c-54 5 -121 -13
-147 -39 -10 -10 -19 -33 -19 -49 0 -34 30 -99 54 -119 9 -8 16 -18 16 -24 0
-6 -26 -38 -59 -71 -104 -109 -128 -195 -68 -240 39 -28 165 -28 254 1 l62 21
31 -54 c72 -128 170 -123 236 12 19 40 31 53 43 49 41 -12 129 -25 178 -25
180 0 191 121 26 270 l-61 54 26 39 c19 29 26 53 27 89 0 44 -4 53 -28 72 -23
17 -43 21 -103 21 l-74 0 -20 59 c-54 160 -145 227 -224 165z m120 -131 c25
-31 54 -87 54 -105 0 -5 -23 -16 -50 -26 -48 -17 -53 -17 -105 -1 -30 10 -55
22 -55 28 0 23 49 115 67 125 32 19 60 12 89 -21z m252 -154 c28 -19 29 -58 2
-101 l-20 -33 -44 27 c-38 23 -45 32 -49 67 -3 22 -3 44 -1 48 9 14 89 9 112
-8z m-488 -43 c0 -43 -4 -51 -32 -73 -55 -41 -56 -41 -83 1 -49 73 -20 121 73
121 l42 0 0 -49z m310 19 c0 -18 -3 -19 -22 -9 -22 12 -22 12 -3 20 11 4 21 8
23 8 1 1 2 -8 2 -19z m-202 2 c9 -6 5 -12 -14 -21 -30 -13 -39 -9 -31 14 7 16
25 19 45 7z m160 -62 l63 -30 -3 -77 -3 -78 -60 -36 -60 -37 -70 37 -70 36 -3
72 c-3 66 -1 73 20 87 40 25 102 56 113 56 5 0 38 -13 73 -30z m162 -94 c0 -2
-9 -11 -20 -21 -20 -18 -20 -17 -20 14 0 29 2 31 20 21 11 -6 20 -12 20 -14z
m-430 -18 c0 -30 -1 -31 -17 -16 -13 14 -14 20 -3 32 18 22 20 20 20 -16z
m517 -60 c54 -56 69 -93 48 -124 -18 -28 -82 -40 -146 -27 l-44 9 3 55 c2 50
6 57 45 91 23 21 44 38 47 38 3 0 25 -19 47 -42z m-509 -35 c2 -1 8 -21 13
-45 5 -24 12 -50 15 -59 10 -34 -151 -53 -194 -23 -38 27 -23 80 44 154 l36
39 41 -32 c23 -17 44 -33 45 -34z m104 -63 l32 -19 -29 -11 c-32 -12 -30 -13
-39 23 -8 32 -6 33 36 7z m205 -26 c-2 -2 -14 -1 -27 4 l-23 9 24 17 c23 16
24 16 27 -5 2 -11 2 -23 -1 -25z m-60 -40 c24 -9 43 -21 43 -26 0 -21 -42 -89
-65 -104 -20 -13 -28 -14 -52 -2 -27 13 -73 71 -73 93 0 10 74 53 95 54 5 1
29 -6 52 -15z"/>
</g>
</svg>
