<?xml version="1.0" standalone="no"?>
<!DOCTYPE svg PUBLIC "-//W3C//DTD SVG 20010904//EN"
 "http://www.w3.org/TR/2001/REC-SVG-20010904/DTD/svg10.dtd">
<svg version="1.0" xmlns="http://www.w3.org/2000/svg"
 width="65.000000pt" height="65.000000pt" viewBox="9 -74 65.000000 65.000000"
 preserveAspectRatio="xMidYMid meet">
<metadata>
Created by potrace 1.10, written by Peter Selinger 2001-2011
</metadata>
<g transform="scale(0.125,-0.125)">
<path d="M260 535 c0 -45 0 -45 35 -45 31 0 35 3 44 37 13 46 8 53 -40 53
l-39 0 0 -45z"/>
<path d="M167 563 c-4 -3 -7 -24 -7 -45 0 -34 3 -38 24 -38 45 0 56 10 56 51
0 38 -1 39 -33 39 -19 0 -37 -3 -40 -7z"/>
<path d="M363 543 c-3 -10 -12 -33 -19 -52 -8 -18 -14 -44 -14 -58 0 -13 -5
-33 -10 -44 -9 -16 -7 -21 15 -31 14 -6 27 -9 29 -7 2 2 22 41 45 86 l41 82
-27 20 c-32 26 -52 27 -60 4z"/>
<path d="M417 421 c-24 -43 -42 -83 -38 -89 3 -5 16 -14 28 -21 22 -11 26 -7
73 65 l50 77 -22 24 c-12 12 -27 23 -34 23 -6 0 -32 -36 -57 -79z"/>
<path d="M198 463 c-17 -3 -35 -18 -53 -44 -26 -40 -26 -41 -10 -94 12 -43 25
-62 61 -92 44 -37 45 -39 43 -93 -3 -50 -1 -55 22 -61 38 -11 118 -10 140 1
15 9 19 22 19 62 0 45 4 57 32 85 22 23 33 46 38 80 5 26 6 50 5 51 -2 2 -14
-12 -27 -32 -28 -44 -47 -45 -110 -4 -30 19 -62 31 -81 30 -49 -1 -52 9 -8 29
37 16 41 22 41 54 0 35 0 35 -42 34 -24 -1 -55 -4 -70 -6z"/>
</g>
</svg>
