<?xml version="1.0" standalone="no"?>
<!DOCTYPE svg PUBLIC "-//W3C//DTD SVG 20010904//EN"
 "http://www.w3.org/TR/2001/REC-SVG-20010904/DTD/svg10.dtd">
<svg version="1.0" xmlns="http://www.w3.org/2000/svg"
 width="65.000000pt" height="65.000000pt" viewBox="9 -74 65.000000 65.000000"
 preserveAspectRatio="xMidYMid meet">
<g transform="scale(0.125,-0.125)"
fill="#000000" stroke="none">
<path d="M298 506 c-25 -50 -33 -57 -102 -90 -52 -25 -86 -50 -111 -81 -42
-51 -41 -64 9 -118 l34 -38 -25 -44 -25 -45 246 0 c135 0 246 2 246 5 0 3 -9
24 -20 46 l-21 40 41 46 c22 25 40 50 40 56 0 6 -26 36 -57 67 -40 40 -74 63
-110 76 -47 17 -54 23 -79 76 -15 32 -30 58 -34 58 -3 0 -18 -24 -32 -54z
m147 -130 c28 -13 65 -40 84 -60 l35 -36 -30 -31 c-76 -81 -202 -112 -301 -74
-44 17 -133 88 -133 106 0 17 67 73 115 95 69 33 161 33 230 0z"/>
<path d="M278 374 c-30 -16 -58 -61 -58 -94 0 -61 70 -118 130 -105 28 6 73
47 83 78 8 21 3 21 -29 1 -31 -21 -68 -7 -86 30 -9 20 -8 30 7 52 9 14 26 29
38 32 20 5 20 6 1 13 -29 12 -56 10 -86 -7z"/>
</g>
</svg>
