<?xml version="1.0" standalone="no"?>
<!DOCTYPE svg PUBLIC "-//W3C//DTD SVG 20010904//EN"
 "http://www.w3.org/TR/2001/REC-SVG-20010904/DTD/svg10.dtd">
<svg version="1.0" xmlns="http://www.w3.org/2000/svg"
 width="92.000000pt" height="91.000000pt" viewBox="0 -91.0 92.000000 91.000000"
 preserveAspectRatio="xMidYMid meet">
<metadata>
Created by potrace 1.10, written by Peter Selinger 2001-2011
</metadata>
<g transform="scale(0.050000,-0.050000)"
fill="#000000" stroke="none">
<path d="M885 1710 c-36 -15 -97 -52 -136 -82 -65 -50 -77 -52 -147 -31 -162
49 -262 -6 -262 -144 0 -64 84 -173 134 -173 34 0 33 -5 -12 -184 -21 -82 -45
-223 -53 -313 -8 -90 -18 -163 -22 -163 -146 0 -214 288 -115 486 l53 104 -61
-57 c-288 -272 -248 -698 74 -795 81 -24 88 -33 112 -153 43 -213 330 -178
330 40 l0 87 143 35 c79 18 218 69 310 112 l167 78 0 -65 c0 -148 -145 -266
-358 -291 -144 -17 -57 -44 145 -45 326 -2 488 148 468 431 l-10 139 77 74
c176 167 -10 400 -213 268 -48 -32 -51 -31 -186 97 -76 71 -188 160 -250 197
-127 77 -130 96 -26 136 131 49 325 -48 405 -203 49 -93 53 -51 8 70 -104 279
-366 436 -575 345z m90 -688 c63 -44 142 -101 174 -128 l60 -49 -125 -63
c-355 -179 -358 -178 -324 111 33 270 21 263 215 129z"/>
</g>
</svg>
