<?xml version="1.0" standalone="no"?>
<!DOCTYPE svg PUBLIC "-//W3C//DTD SVG 1.1//EN" "http://www.w3.org/Graphics/SVG/1.1/DTD/svg11.dtd" >
<svg xmlns="http://www.w3.org/2000/svg" xmlns:xlink="http://www.w3.org/1999/xlink" version="1.1">
<metadata></metadata>
<defs>
<font id="hanzelnormal" horiz-adv-x="994" >
<font-face units-per-em="2048" ascent="1638" descent="-410" />
<missing-glyph horiz-adv-x="768" />
<glyph horiz-adv-x="0" />
<glyph unicode="&#xd;" horiz-adv-x="768" />
<glyph unicode=" "  horiz-adv-x="768" />
<glyph unicode="&#x09;" horiz-adv-x="768" />
<glyph unicode="&#xa0;" horiz-adv-x="768" />
<glyph unicode="!" horiz-adv-x="621" d="M159 369v1073h300v-1073h-300zM162 0v258h297v-258h-297z" />
<glyph unicode="&#x22;" horiz-adv-x="658" d="M78 860v549h186v-549h-186zM393 860v549h186v-549h-186z" />
<glyph unicode="#" horiz-adv-x="1528" d="M43 398l74 197h274l82 237h-288l71 197l289 -1l143 408h213l-141 -408h236l143 408h215l-143 -408h274l-74 -196h-270l-82 -238h283l-70 -196h-283l-143 -408h-215l143 408h-235l-146 -408h-213l142 408h-279zM602 592h244l84 240h-242z" />
<glyph unicode="$" horiz-adv-x="1493" d="M82 1002q0 227 121 336q121 106 379 106h98v131h112v-131h533v-261h-533v-345h163q247 0 352 -92q102 -94 102 -316q0 -221 -121 -325.5t-379 -104.5h-117v-142h-112v142h-540v256h540v326h-149q-224 0 -336 104q-113 105 -113 316zM383 1004q0 -80 49 -123 q50 -43 138 -43h110v345h-67q-111 0 -170.5 -46.5t-59.5 -132.5zM792 256h84q121 0 174 41q29 23 44 53q14 31 14 78q0 82 -47 119q-47 35 -164 35h-105v-326z" />
<glyph unicode="%" horiz-adv-x="1829" d="M43 1053q0 201 91.5 297t285.5 96q193 0 287 -94q91 -96 91 -299q0 -205 -91 -299q-94 -94 -293 -94q-191 0 -281 96t-90 297zM250 1053q0 -111 43 -168q41 -57 129 -57q84 0 127 55t43 170q0 111 -41 170q-43 57 -129 57q-84 0 -127 -55q-45 -57 -45 -172zM553 -2 l555 1442h154l-555 -1442h-154zM1032 379q0 201 94.5 297t284.5 96q197 0 289 -96q90 -96 90 -297t-92 -297t-287 -96q-188 0 -282 98q-97 99 -97 295zM1241 379q0 -108 43 -166q41 -57 129 -57t131 55q41 55 41 168q0 115 -41 172q-43 55 -131 55q-84 0 -127 -55 q-45 -57 -45 -172z" />
<glyph unicode="&#x26;" horiz-adv-x="1600" d="M110 1059q0 180 116 283q112 100 315 100h481v-269h-405q-99 0 -156 -44.5t-57 -116.5q0 -84 47 -127q45 -46 133 -46h98v-247h-94q-72 0 -121 -45q-49 -47 -49 -125q0 -90 64 -139q61 -51 165 -51q164 0 263 90q96 88 139 270h-201v247h690v-247h-174 q-71 -319 -250 -469q-180 -149 -483 -149q-244 0 -381.5 105.5t-137.5 287.5q0 112 48 194q45 80 143 144q-94 57 -143 149q-50 90 -50 205z" />
<glyph unicode="'" horiz-adv-x="342" d="M78 860v549h186v-549h-186z" />
<glyph unicode="(" horiz-adv-x="690" d="M113 592q0 203 80 420q78 217 233 430h189q-60 -98 -107 -203q-47 -104 -76 -209q-59 -202 -59 -438q0 -113 15 -221q14 -111 44 -217q58 -207 183 -410h-189q-153 211 -233 430q-80 217 -80 418z" />
<glyph unicode=")" horiz-adv-x="690" d="M78 -256q57 94 105 198q45 103 75 210q60 203 60 440q0 236 -58 440q-59 205 -182 410h186q148 -207 234 -432q78 -217 78 -418q0 -102 -18.5 -205.5t-59.5 -214.5q-80 -217 -234 -428h-186z" />
<glyph unicode="*" d="M148 971l184 109l-184 106l82 145l184 -106v217h166v-217l184 106l82 -145l-184 -106l184 -109l-82 -141l-184 106v-217h-166v217l-184 -106z" />
<glyph unicode="+" horiz-adv-x="1655" d="M246 502v194h483v500h196v-500h484v-194h-484v-502h-196v502h-483z" />
<glyph unicode="," horiz-adv-x="393" d="M78 0v252h237v-182q0 -89 -30 -144q-27 -59 -96 -115v189h-111z" />
<glyph unicode="-" horiz-adv-x="768" d="M49 418v249h668v-249h-668z" />
<glyph unicode="." horiz-adv-x="393" d="M78 0v252h237v-252h-237z" />
<glyph unicode="/" horiz-adv-x="832" d="M-8 -185l700 1643h150l-705 -1643h-145z" />
<glyph unicode="0" horiz-adv-x="1536" d="M56 719q0 377 174 559q174 180 538 180q365 0 539 -182t174 -557q0 -373 -174 -555q-176 -184 -539 -184q-362 0 -536 180q-176 178 -176 559zM373 719q0 -258 96 -379t299 -121t299 123q97 123 97 377q0 258 -97 381q-98 121 -299 121q-203 0 -299 -121 q-96 -123 -96 -381z" />
<glyph unicode="1" horiz-adv-x="525" d="M106 0v1442h314v-1442h-314z" />
<glyph unicode="2" horiz-adv-x="1354" d="M55 0v432q0 230 115 326q113 96 377 96h193q131 0 184 39q51 37 51 129t-52 133q-51 39 -184 39h-684v248h816q104 0 159 -12q54 -8 101 -37q88 -51 135 -146q45 -96 45 -229q0 -205 -110 -311q-113 -109 -320 -109h-270q-123 0 -181 -47q-53 -49 -53 -160v-143h926v-248 h-1248z" />
<glyph unicode="3" horiz-adv-x="1256" d="M27 0v248h588q120 0 176 41q56 45 56 135q0 88 -56 133q-58 43 -176 43h-475v248h467q121 0 176 41t55 131q0 88 -55.5 131t-176.5 43h-579v248h684q237 0 354 -92t117 -293q0 -102 -47 -182t-145 -152q102 -55 149 -137q45 -82 45 -203q0 -184 -115 -282 q-114 -101 -327 -101h-715z" />
<glyph unicode="4" horiz-adv-x="1536" d="M62 262v281l837 901h381v-934h195v-248h-195v-262h-299v262h-919zM404 510h577v625z" />
<glyph unicode="5" horiz-adv-x="1362" d="M63 0v248h692q119 0 168 43q48 41 48 135q0 96 -49 139q-49 44 -166 44h-693v833h1187v-248h-871v-340h512q203 0 320 -110q112 -117 112 -318q0 -209 -127 -317.5t-372 -108.5h-761z" />
<glyph unicode="6" horiz-adv-x="1444" d="M60 705q0 379 186 559q184 178 575 178h508v-248l-516 1q-213 0 -308 -86q-99 -86 -99 -275h508q252 0 374 -99q121 -98 121 -303q0 -219 -162 -333q-161 -117 -473 -117q-368 0 -540 174q-174 174 -174 549zM406 586q0 -190 92 -276.5t289 -86.5q145 0 217 46 q67 47 67 147q0 84 -43 127q-45 43 -131 43h-491z" />
<glyph unicode="7" horiz-adv-x="1262" d="M0 1194v248h1264v-248l-856 -1194h-381l887 1194h-914z" />
<glyph unicode="8" horiz-adv-x="1465" d="M51 385q0 125 52 207q49 82 155 131q-96 68 -143 156q-47 86 -47 188q0 189 115 283q114 92 354 92h385q233 0 352 -90q117 -92 117 -281q0 -104 -47 -192t-142 -156q103 -43 156 -127q51 -86 51 -213q0 -180 -112 -280q-115 -103 -330 -103h-471q-215 0 -330 103 q-115 100 -115 282zM389 424q0 -92 58 -133q55 -43 174 -43h219q123 0 178 41q55 45 55 135q0 88 -55 133q-57 43 -178 43h-219q-117 0 -174.5 -43t-57.5 -133zM391 1020q0 -88 56 -129q53 -43 178 -43h215q123 0 178 41q53 41 53 131t-55 133q-57 41 -176 41h-215 q-51 0 -94 -6q-45 -6 -84 -37q-56 -41 -56 -131z" />
<glyph unicode="9" horiz-adv-x="1444" d="M35 1008q0 223 160 338q158 112 473 112q371 0 543 -176q172 -178 172 -547q0 -376 -183.5 -555.5t-576.5 -179.5h-510v248l518 1q205 0 300 86q51 45 78.5 113.5t27.5 160.5h-508q-252 0 -373 98q-121 96 -121 301zM371 1024q0 -84 43 -127q41 -43 133 -43h490 q0 193 -95 277q-84 82 -301 82q-143 0 -207 -43q-63 -45 -63 -146z" />
<glyph unicode=":" horiz-adv-x="422" d="M90 0v252h237v-252h-237zM90 539v250h237v-250h-237z" />
<glyph unicode=";" horiz-adv-x="422" d="M90 0v252h237v-182q0 -83 -30 -144q-31 -63 -96 -115v189h-111zM90 539v250h237v-250h-237z" />
<glyph unicode="&#x3c;" horiz-adv-x="1655" d="M256 502v195l1143 473v-215l-866 -357l866 -356v-215z" />
<glyph unicode="=" horiz-adv-x="1655" d="M246 291v194h1163v-194h-1163zM246 713v195h1163v-195h-1163z" />
<glyph unicode="&#x3e;" horiz-adv-x="1655" d="M256 27v215l869 356l-869 357v215l1143 -473v-195z" />
<glyph unicode="?" horiz-adv-x="1377" d="M49 1194v248h764q150 0 215 -12q66 -8 113 -37q88 -49 133 -146q45 -96 45 -231q0 -203 -110 -311q-113 -109 -319 -109h-252q-129 0 -181 -45q-51 -51 -51 -160v-36h-326v75q0 219 119 321.5t375 102.5h174q133 0 184 37q49 37 49 129t-51 133t-182 41h-699zM82 0v256 h324v-256h-324z" />
<glyph unicode="@" horiz-adv-x="1987" d="M86 510q0 158 54 311q51 152 149 271q143 176 344 268q199 90 451 90q170 0 311 -45t246 -125q133 -102 196.5 -235t63.5 -295q0 -164 -63 -299q-66 -137 -183 -234q-61 -49 -149 -86q-84 -26 -164 -26q-103 0 -156 41t-53 120q-56 -86 -125 -122q-72 -37 -164 -37 q-156 0 -233 86q-80 84 -80 248q0 229 135 391q135 159 334 159q77 0 132.5 -30.5t96.5 -98.5l51 97h172l-141 -586l-6 -20l-2 -19q0 -31 22 -53q17 -10 33 -12q14 -5 37 -5q39 0 78 21q39 16 78 55q84 78 127 182q43 105 43 232q0 235 -181 387q-180 149 -463 149 q-139 0 -256 -32q-53 -15 -106 -39q-55 -27 -106 -62q-166 -112 -254.5 -280t-88.5 -365q0 -299 201 -481q101 -91 234 -136t303 -45q155 0 307 49q72 23 143 58q72 35 135 82l78 -115q-143 -111 -313 -168q-172 -59 -346 -59q-184 0 -340 49q-158 47 -281 139 q-145 113 -223 273t-78 352zM738 434q0 -90 38 -135q39 -47 115 -47q82 0 147.5 61.5t90.5 159.5l51 213q-4 41 -16 70q-15 27 -39 51q-48 43 -113 43q-113 0 -193 -121q-81 -120 -81 -295z" />
<glyph unicode="A" horiz-adv-x="1436" d="M-47 0l602 1442h320l608 -1442h-334l-131 342h-620l-127 -342h-318zM496 600h424l-217 553z" />
<glyph unicode="B" horiz-adv-x="1499" d="M148 0v1442h733q131 0 223 -16.5t141 -51.5q78 -47 121 -127q41 -79 41 -182q0 -121 -51 -203q-54 -84 -162 -141q114 -51 166 -127q49 -78 49 -201q0 -202 -116 -296q-117 -97 -361 -97h-784zM447 256h445q102 0 149 39q44 39 44 129q0 88 -46 129q-48 41 -148 41h-444 v-338zM447 850h441q106 0 147 39q48 41 48 127q0 84 -49 127q-49 38 -147 38h-440v-331z" />
<glyph unicode="C" horiz-adv-x="1301" d="M57 695q0 380 164 565q164 182 508 182h500v-248h-494q-186 0 -268 -119q-82 -118 -82 -393q0 -235 78 -332.5t272 -97.5h494v-252h-508q-172 0 -264 29q-94 27 -180 98q-109 86 -165 230q-55 141 -55 338z" />
<glyph unicode="D" horiz-adv-x="1532" d="M148 0v1442h653q342 0 508 -182q164 -183 164 -565q0 -197 -55 -338q-29 -74 -68 -129.5t-96 -100.5q-86 -67 -181 -98q-98 -29 -264 -29h-661zM447 252h348q199 0 274.5 100.5t75.5 368.5q0 262 -74 367q-75 102 -276 102h-348v-938z" />
<glyph unicode="E" horiz-adv-x="1342" d="M58 695q0 380 163 565q164 182 508 182h500v-252h-494q-159 0 -245 -82q-43 -43 -68 -104q-24 -64 -24 -148l831 -2v-250h-833q0 -188 78.5 -270t260.5 -82h494v-252h-508q-172 0 -264 29q-94 27 -180 98q-109 86 -164 230q-55 141 -55 338z" />
<glyph unicode="F" horiz-adv-x="1348" d="M137 0v662q0 280 33 407q31 127 115 209q82 82 219 123q135 41 334 41h457v-252h-482q-190 0 -282 -82q-95 -84 -95 -269h859v-249h-859v-590h-299z" />
<glyph unicode="G" horiz-adv-x="1475" d="M57 695q0 380 166 565q164 182 506 182h645v-248h-645q-172 0 -254 -114q-84 -117 -84 -371q0 -234 82 -340q80 -109 256 -109h338v340h-401v254h708v-854h-645q-172 0 -274 29q-90 29 -178 98q-109 86 -165 230q-55 141 -55 338z" />
<glyph unicode="H" horiz-adv-x="1444" d="M148 0v1442h299v-586h551v586h299v-1442h-299v602h-551v-602h-299z" />
<glyph unicode="I" horiz-adv-x="613" d="M149 0v1442h314v-1442h-314z" />
<glyph unicode="J" horiz-adv-x="1110" d="M-8 0v239h352q191 0 260 83q67 80 67 330v790h312v-858q0 -84 -6 -143.5t-24 -114.5q-31 -98 -101 -176q-69 -80 -170 -117q-104 -33 -297 -33h-393z" />
<glyph unicode="K" horiz-adv-x="1333" d="M148 0v1442h299v-692l563 692h358l-571 -704l577 -738h-383l-544 717v-717h-299z" />
<glyph unicode="L" horiz-adv-x="1106" d="M113 584v858h301v-848q0 -61 2 -106q3 -45 8 -72q15 -53 39 -82q39 -47 105 -74q67 -21 172 -21h352v-239h-379q-201 0 -297 35q-96 33 -168 111q-74 77 -104.5 173.5t-30.5 264.5z" />
<glyph unicode="M" horiz-adv-x="1901" d="M147 0v1442h441l365 -1106l362 1106h438v-1442h-293l25 1123l-367 -1123h-317l-377 1135l28 -1135h-305z" />
<glyph unicode="N" horiz-adv-x="1544" d="M147 0v1442h380l583 -1036l-14 1036h307v-1442h-348l-615 1090l14 -1090h-307z" />
<glyph unicode="O" horiz-adv-x="1536" d="M55 735q0 371 177 553q174 181 536 181q363 0 537 -185q174 -184 174 -563q0 -381 -174 -565q-176 -186 -537 -186q-368 0 -540 186q-173 184 -173 579zM383 733q0 -264 92 -389q93 -125 293 -125q197 0 291 125q94 123 94 377t-94 379q-94 123 -291 123 q-192 0 -289 -123q-96 -123 -96 -367z" />
<glyph unicode="P" horiz-adv-x="1475" d="M148 0v1442h651q164 0 264 -18q101 -19 154 -56q96 -61 147 -161q49 -101 49 -236q0 -131 -39 -221q-44 -96 -124 -154q-39 -26 -74 -43q-35 -16 -88 -28q-98 -21 -276 -21h-365v-504h-299zM447 760h367q139 0 204 53q63 52 63 158q0 115 -65 163.5t-221 48.5h-348v-423z " />
<glyph unicode="Q" horiz-adv-x="1536" d="M55 721q0 383 175 565q172 183 538 183q363 0 537 -185q174 -184 174 -563q0 -160 -30 -287q-31 -129 -92 -217l214 -216h-358l-49 49q-84 -41 -177 -60q-92 -20 -219 -20q-366 0 -538 184q-175 182 -175 567zM383 721q0 -258 94 -379q93 -123 291 -123q197 0 291 125 q94 123 94 377t-94 379q-94 123 -291 123q-194 0 -289 -123q-96 -125 -96 -379z" />
<glyph unicode="R" horiz-adv-x="1491" d="M148 0v1442h739q258 0 379 -104q119 -107 119 -330q0 -162 -74 -268q-73 -107 -215 -138l356 -602h-338l-313 565h-354v-565h-299zM447 821h369q147 0 207 44q59 40 59 139q0 96 -58 139q-59 40 -209 40h-368v-362z" />
<glyph unicode="S" horiz-adv-x="1499" d="M67 1000q0 227 122 336q120 106 379 106h786v-259h-741q-123 0 -177 -42q-55 -45 -55 -145q0 -76 47 -117q51 -39 142 -39h397q248 0 352 -94q103 -97 103 -316q0 -221 -119 -325q-121 -105 -379 -105h-799v256h752q129 0 182 39q51 37 51 125q0 86 -49 129 q-49 37 -164 37h-354q-246 0 -360 100q-116 101 -116 314z" />
<glyph unicode="T" horiz-adv-x="1231" d="M-2 1188v251h1235v-251h-465v-1188h-309v1188h-461z" />
<glyph unicode="U" horiz-adv-x="1526" d="M144 570v872h297v-864q0 -199 73 -279q72 -82 248 -82t250 80q72 78 72 281v864h299v-872q0 -142 -18 -240q-21 -98 -66 -147q-82 -101 -213 -150t-324 -49q-190 0 -319 47q-131 47 -220 152q-40 53 -58 141q-21 88 -21 246z" />
<glyph unicode="V" horiz-adv-x="1393" d="M-63 1442h340l428 -1075l440 1075h320l-596 -1442h-312z" />
<glyph unicode="W" horiz-adv-x="2198" d="M-14 1442h321l330 -1108l279 1108h354l319 -1108l308 1108h309l-442 -1442h-367l-305 1075l-266 -1075h-365z" />
<glyph unicode="X" horiz-adv-x="1282" d="M-30 0l500 721l-484 721h352l293 -457l293 457h347l-459 -700l491 -742h-358l-302 502l-317 -502h-356z" />
<glyph unicode="Y" horiz-adv-x="1233" d="M-82 1442h338l353 -551l356 551h348l-551 -805v-637h-299v637z" />
<glyph unicode="Z" horiz-adv-x="1458" d="M112 0v256l816 927h-816v259h1205v-259l-803 -927h803v-256h-1205z" />
<glyph unicode="[" horiz-adv-x="690" d="M154 -256v1698h485v-225h-246v-1250h246v-223h-485z" />
<glyph unicode="\" horiz-adv-x="832" d="M-10 1458h152l700 -1643h-147z" />
<glyph unicode="]" horiz-adv-x="690" d="M49 -33h250v1250h-250v225h487v-1698h-487v223z" />
<glyph unicode="^" horiz-adv-x="1987" d="M403 881l468 551h243l467 -551h-227l-360 364l-363 -364h-228z" />
<glyph unicode="_" d="M0 -273h994v-200h-994v200z" />
<glyph unicode="`" d="M174 1463h287l193 -279h-139z" />
<glyph unicode="a" horiz-adv-x="1262" d="M72 305q0 181 96 258q96 78 322 78h364v27q0 92 -55 133q-57 39 -197 39h-460v217h565q215 0 323 -98.5t108 -296.5v-662h-743q-154 0 -238 80q-85 78 -85 225zM359 314q0 -56 27.5 -78.5t121.5 -22.5h346v217h-325q-97 0 -133 -24q-37 -29 -37 -92z" />
<glyph unicode="b" horiz-adv-x="1213" d="M121 0v1442h276v-385h238q155 0 254 -37q96 -39 162 -125q55 -71 86 -162q27 -94 27 -190q0 -254 -134 -397q-133 -146 -376 -146h-533zM397 225h191q156 0 221 68q66 66 66 227q0 168 -72 238q-68 72 -238 72h-168v-605z" />
<glyph unicode="c" horiz-adv-x="1047" d="M60 525q0 118 41 225q39 104 112 182q70 64 162 94q92 31 234 31h374v-227h-293q-198 0 -268 -70q-76 -70 -76 -235q0 -95 31 -158q31 -66 92 -107q23 -10 37 -16.5t39 -10.5t53 -6q29 -2 92 -2h293v-225h-374q-138 0 -236 29q-88 31 -158 98q-69 68 -112 175.5 t-43 222.5z" />
<glyph unicode="d" horiz-adv-x="1211" d="M47 543q0 111 29 190q27 88 86 162q68 86 164 125q94 37 250 37h237v385h274v-1442h-530q-240 0 -375 144q-135 141 -135 399zM338 520q0 -157 64 -227q67 -68 223 -68h188v605h-168q-168 0 -237 -70q-70 -72 -70 -240z" />
<glyph unicode="e" horiz-adv-x="1047" d="M59 529q0 258 135.5 393t391.5 135h403v-219h-364q-150 0 -203 -43q-56 -45 -56 -156h623v-221h-623q0 -111 50 -154q49 -45 207 -45h366v-219h-403q-260 0 -393.5 133t-133.5 396z" />
<glyph unicode="f" horiz-adv-x="778" d="M17 848v209h196v109q0 163 62 219q57 57 227 57h260v-205h-131q-70 0 -98 -22q-31 -23 -31 -72v-86h260v-209h-260v-848h-289v848h-196z" />
<glyph unicode="g" horiz-adv-x="1213" d="M49 527q0 120 39 229q45 109 115 175.5t158 96.5q86 29 237 29h504v-1018q0 -217 -96 -320q-98 -102 -301 -102h-541v213h494q78 0 123 39q43 39 43 112v19h-225q-178 0 -250 27q-74 24 -143 90q-76 72 -116.5 181.5t-40.5 228.5zM338 527q0 -168 74 -240q78 -68 268 -68 h144v613h-144h-80q-35 -2 -71 -10q-39 -8 -68 -25q-65 -41 -94 -100q-29 -62 -29 -170z" />
<glyph unicode="h" horiz-adv-x="1196" d="M119 0v1442h274v-385h246q230 0 334 -90q104 -92 104 -297v-670h-278v639q0 109 -41 148t-143 39h-222v-826h-274z" />
<glyph unicode="i" horiz-adv-x="529" d="M119 0v1057h290v-1057h-290zM119 1177v265h290v-265h-290z" />
<glyph unicode="j" horiz-adv-x="529" d="M-140 -162h123q70 0 103 49t33 175v995h290v-1006q0 -227 -89.5 -330.5t-278.5 -103.5h-181v221zM119 1177v265h290v-265h-290z" />
<glyph unicode="k" horiz-adv-x="1196" d="M127 0v1442h276v-891l445 506h350l-485 -516l485 -541h-372l-423 514v-514h-276z" />
<glyph unicode="l" horiz-adv-x="520" d="M115 0v1442h289v-1442h-289z" />
<glyph unicode="m" horiz-adv-x="1743" d="M119 0v1057h1061q227 0 332 -90q104 -92 104 -297v-670h-278v635q0 113 -35 154q-41 37 -146 37h-154v-826h-282v826h-324v-826h-278z" />
<glyph unicode="n" horiz-adv-x="1192" d="M119 0v1057h520q236 0 338 -90q100 -90 100 -297v-670h-276v638q0 116 -37 153q-39 35 -145 35h-224v-826h-276z" />
<glyph unicode="o" horiz-adv-x="1211" d="M49 529q0 245 152 397q149 149 405 149q252 0 404 -147q149 -150 149 -399q0 -250 -149 -398q-152 -149 -404 -149q-253 0 -405 148.5t-152 398.5zM340 529q0 -152 72 -236q70 -84 192 -84q125 0 197 84q70 84 70 236q0 153 -72 233q-70 86 -195 86q-122 0 -192 -84 q-72 -84 -72 -235z" />
<glyph unicode="p" horiz-adv-x="1213" d="M121 -383v1440h533q239 0 374 -141q136 -144 136 -402q0 -104 -27 -192q-33 -90 -86 -158q-66 -86 -162.5 -125t-253.5 -39h-238v-383h-276zM397 225h168q168 0 240 74q70 68 70 238q0 162 -64 227q-65 66 -223 66h-191v-605z" />
<glyph unicode="q" horiz-adv-x="1213" d="M47 514q0 254 136 400q135 143 374 143h532v-1440h-274v383h-238q-159 0 -252 39q-95 37 -163 125q-57 70 -86 160t-29 190zM338 537q0 -168 72 -240t235 -72h170v605h-190q-162 0 -223 -68q-64 -63 -64 -225z" />
<glyph unicode="r" horiz-adv-x="934" d="M119 0v1057h465q166 0 227 -59q68 -60 68 -207v-176h-264v137q0 59 -21 82q-22 20 -100 20h-99v-854h-276z" />
<glyph unicode="s" horiz-adv-x="1180" d="M86 725q0 174 90 254q90 78 279 78h594v-219h-488q-116 0 -153 -21q-37 -20 -37 -75q0 -52 33 -74q30 -23 98 -23h250q172 0 262 -80q90 -79 90 -233q0 -149 -80 -240.5t-207 -91.5h-714v219h583q78 0 113 27q35 23 35 78t-35 80q-37 22 -113 22h-239q-209 0 -285 68 q-76 65 -76 231z" />
<glyph unicode="t" horiz-adv-x="824" d="M17 848v209h194v385h276v-385h291v-209h-291v-428q0 -119 40 -164q38 -45 139 -45h112v-211h-251q-154 0 -234 84q-82 84 -82 248v516h-194z" />
<glyph unicode="u" horiz-adv-x="1196" d="M113 387v670h274v-647q0 -105 37 -139q35 -38 144 -38h223v824h276v-1057h-520q-229 0 -332 92q-102 93 -102 295z" />
<glyph unicode="v" horiz-adv-x="1213" d="M2 1057h310l290 -750l308 750h299l-465 -1057h-299z" />
<glyph unicode="w" horiz-adv-x="1735" d="M-30 1057h290l232 -739l227 739h295l231 -739l232 739h285l-355 -1057h-319l-228 723l-219 -723h-305z" />
<glyph unicode="x" horiz-adv-x="1100" d="M4 0l387 529l-387 528h320l225 -317l229 317h318l-387 -537l381 -520h-321l-220 307l-223 -307h-322z" />
<glyph unicode="y" horiz-adv-x="1196" d="M113 406v651h272v-631q0 -114 35 -153.5t148 -39.5h223v824h276v-1028q0 -205 -96 -312q-100 -100 -297 -100h-542v213h495q76 0 121 39q43 39 43 112v19h-243q-234 0 -336 92q-99 97 -99 314z" />
<glyph unicode="z" horiz-adv-x="1159" d="M88 0v225l621 605h-621v227h983v-227l-620 -605h620v-225h-983z" />
<glyph unicode="{" d="M154 418v205l20 -2h19q116 0 168 57q49 57 49 191v245q0 146 22 199q23 53 78 88q47 25 113 37q63 12 160 12l36 -2h37v-205h-24l-21 2q-96 0 -131 -38q-37 -39 -37 -158l1 -238q0 -82 -8 -127q-11 -45 -33.5 -75.5t-61.5 -51.5q-41 -22 -98 -39q115 -24 158 -86 q43 -55 43 -204l-1 -236q0 -117 35 -156t133 -39h21l24 2v-205l-37 -1h-36q-95 0 -162 14q-70 12 -111 32q-57 35 -78 92q-22 58 -22 195v246q0 131 -49 191q-52 57 -168 57l-19 -2h-20z" />
<glyph unicode="|" d="M398 -473v2007h200v-2007h-200z" />
<glyph unicode="}" d="M140 -201l24 -2h21q96 0 130.5 37t34.5 158v234q0 145 45 206q43 62 158 86q-115 27 -158 91q-45 61 -45 202v240q0 121 -34 156q-31 38 -131 38l-21 -2h-24v205h65q107 0 170 -12q64 -12 113 -39t75 -88q22 -62 22 -195v-247q0 -132 49.5 -189.5t168.5 -57.5h18l21 3 v-205h-35q-119 0 -172 -55q-50 -56 -50 -191v-246q0 -139 -20 -195q-22 -57 -79 -92q-50 -22 -113.5 -34t-159.5 -12h-37l-36 1v205z" />
<glyph unicode="~" horiz-adv-x="1655" d="M172 410v217q107 72 199 104q45 19 90 27q43 8 88 8q115 0 281 -55l59 -21q150 -53 232 -53q86 0 172 37q86 35 192 113v-217q-106 -72 -195 -103q-90 -33 -174 -33h-53q-24 7 -37 9l-88 22l-69 25q-213 73 -322 73q-33 0 -74 -6q-43 -6 -100 -30q-84 -33 -201 -117z" />
<glyph unicode="&#xa1;" horiz-adv-x="621" d="M159 0v1069h300v-1069h-300zM162 1181v261h299v-261h-299z" />
<glyph unicode="&#xa2;" horiz-adv-x="815" d="M29 733q0 205 113 322q113 114 315 114v126h113v-126h211v-184h-211v-502h211v-184h-211v-129h-113v129h-14q-192 0 -303 117t-111 317zM262 733q0 -116 48 -176q47 -59 147 -74v502q-100 -12 -147.5 -73.5t-47.5 -178.5z" />
<glyph unicode="&#xa3;" horiz-adv-x="1354" d="M56 0v248h256v375h-256v209h256v98q0 176 26 264q21 84 84 148q51 51 123 75q72 25 225 25h51h363v-248h-344q-141 0 -186 -41q-45 -43 -45 -198v-123h350v-209h-350v-375h694v-248h-1247z" />
<glyph unicode="&#xa4;" horiz-adv-x="1204" d="M66 428l197 203q-37 53 -55 113q-19 57 -19 123q0 65 19 124q6 27 20 55.5t35 57.5l-197 201l102 104l199 -198q24 19 49 33q25 12 59 24q60 18 127 18q66 0 129 -18q62 -20 111 -57l197 198l102 -104l-196 -201q16 -22 31 -51q14 -31 24 -62q18 -59 18 -124 q0 -64 -18 -123q-20 -62 -55 -113l196 -203l-102 -100l-197 199q-25 -19 -53.5 -33.5t-59.5 -24.5q-55 -18 -125 -18q-69 0 -129 18q-24 6 -51.5 20.5t-56.5 37.5l-199 -199zM336 867q0 -109 78 -191q82 -78 190 -78q111 0 191 80q78 78 78 189q0 110 -80 192 q-82 80 -189 80q-106 0 -186 -80q-82 -82 -82 -192z" />
<glyph unicode="&#xa5;" horiz-adv-x="1233" d="M-82 1442h338l353 -551l356 551h348l-332 -494h244v-116h-324l-92 -131h416v-117h-463v-584h-299v584h-448v117h409l-88 131h-321v116h239z" />
<glyph unicode="&#xa6;" d="M398 -342v742h200v-742h-200zM398 662v741h200v-741h-200z" />
<glyph unicode="&#xa7;" d="M27 570q0 86 33 145q37 57 103 90q-64 35 -97 103q-32 65 -32 157q0 182 99 281q101 96 289 96h461v-238h-356q-123 0 -164 -26q-41 -29 -41 -94q0 -52 39 -82.5t107 -30.5h145q166 0 256 -76t90 -211q0 -80 -31 -137q-30 -59 -88 -94q60 -35 90.5 -105.5t30.5 -167.5 q0 -176 -99 -272q-100 -98 -290 -98h-475v238l377 -1q127 0 162 27q36 23 36 88q0 55 -33 86q-35 29 -112 29h-146q-164 0 -258 78q-96 77 -96 215zM302 606q0 -45 36 -69q15 -10 45 -17q31 -6 68 -6h147q51 27 76 62q23 33 23 69q0 52 -35 74q-37 21 -111 21h-147 q-49 -20 -74 -56q-28 -35 -28 -78z" />
<glyph unicode="&#xa8;" d="M207 1194v256h235v-256h-235zM551 1194v256h235v-256h-235z" />
<glyph unicode="&#xa9;" horiz-adv-x="1655" d="M109 719q0 148 56 279q52 131 154.5 236.5t231.5 160.5t275 55q147 0 280 -55q133 -57 235.5 -160.5t156.5 -234.5q51 -131 51 -281q0 -76 -12 -143q-13 -70 -41 -135q-54 -132 -156.5 -234t-237.5 -160q-135 -57 -276 -57q-142 0 -271 55q-129 56 -233.5 160t-156.5 240 q-56 133 -56 274zM226 721q0 -121 45 -231.5t133 -196.5q86 -88 196 -134q111 -47 228 -47q125 0 231 47q107 42 199 134q82 82 129 197q45 112 45 231q0 121 -45 234q-47 112 -131 196t-195 131q-113 47 -233 47q-127 0 -232.5 -45t-189.5 -131q-86 -86 -133 -198 q-47 -115 -47 -234zM439 715q0 201 106 322q107 118 285 118q149 0 243 -75q52 -41 77.5 -89.5t25.5 -111.5h-182q-11 69 -54 108q-43 37 -114 37q-86 0 -138 -80q-51 -82 -51 -223q0 -143 50.5 -219t146.5 -76q74 0 114 41q39 35 52 117h186q0 -129 -102.5 -215t-255.5 -86 q-181 0 -285 117q-104 114 -104 315z" />
<glyph unicode="&#xaa;" horiz-adv-x="946" d="M53 914q0 123 74 180q72 57 242 57h270v17q0 65 -41 94q-41 26 -147 26h-344v154h424q159 0 241 -70q82 -69 82 -208v-463h-557q-114 0 -178 57q-66 55 -66 156zM269 920q0 -39 22 -53q21 -17 90 -17h260v154h-243q-74 0 -101 -21q-28 -14 -28 -63z" />
<glyph unicode="&#xab;" horiz-adv-x="1252" d="M51 529l340 348h297l-352 -348l342 -349h-303zM525 529l340 348h294l-350 -348l342 -349h-303z" />
<glyph unicode="&#xac;" horiz-adv-x="1655" d="M246 656v192h1163v-493h-194v301h-969z" />
<glyph unicode="&#xad;" horiz-adv-x="768" d="M49 418v249h668v-249h-668z" />
<glyph unicode="&#xae;" horiz-adv-x="1655" d="M109 719q0 100 27 193q24 92 77 186q94 164 258 258t355 94q153 0 284 -55q131 -57 234 -164q100 -106 154 -233q51 -129 51 -279q0 -78 -12 -145q-13 -70 -41 -138q-58 -135 -158 -235q-103 -100 -234 -156q-133 -55 -278 -55q-146 0 -275 57q-131 56 -233.5 161.5 t-154.5 234.5q-54 129 -54 276zM226 721q0 -115 43 -225q43 -113 131 -201q86 -88 197.5 -136.5t228.5 -48.5q120 0 229 45q106 46 197 132q88 84 135 197q45 110 45 225q0 123 -41 235q-43 111 -133 203t-199 137q-108 45 -231 45q-121 0 -230 -45q-108 -45 -188 -129 q-84 -80 -133 -200q-51 -121 -51 -234zM529 330v808h313q168 0 256 -58q85 -60 85 -175q0 -77 -42 -133q-45 -57 -131 -82l178 -360h-217l-152 332h-96v-332h-194zM723 778h96q84 0 125 27q39 27 39 88q0 64 -43 90q-41 31 -131 31h-86v-236z" />
<glyph unicode="&#xaf;" d="M207 1245v158h580v-158h-580z" />
<glyph unicode="&#xb0;" horiz-adv-x="654" d="M35 1137q0 125 86 213q86 86 207 86q119 0 207 -88t88 -211t-86 -209q-88 -88 -211 -88t-207 84t-84 213zM157 1139q0 -70 50 -121q49 -53 121 -53q70 0 121 53q49 53 49 121t-49 119q-51 51 -121 51t-119 -49q-52 -51 -52 -121z" />
<glyph unicode="&#xb1;" horiz-adv-x="1655" d="M246 -2v194h1163v-194h-1163zM246 684v194h483v320h196v-320h484v-194h-484v-317h-196v317h-483z" />
<glyph unicode="&#xb2;" horiz-adv-x="893" d="M37 576v262q0 135 76 194q76 57 250 57h127q84 0 119 23q32 21 32 76t-30 80q-33 22 -121 22h-453v152h537h55q23 0 58.5 -8t60.5 -23q55 -28 86 -86.5t31 -138.5q0 -121 -72 -184q-72 -66 -213 -66h-176q-84 0 -121 -31q-35 -24 -35 -94v-86h612v-149h-823z" />
<glyph unicode="&#xb3;" horiz-adv-x="828" d="M17 576v149h389q82 0 117 24.5t35 82.5q0 53 -37 78q-12 8 -31 14q-37 12 -84 12h-315l-1 147h310q79 0 118 27q38 25 38 78q0 51 -38.5 78t-117.5 27h-383v149h452q156 0 234 -55q78 -58 78 -176q0 -60 -31 -107q-30 -49 -96 -94q68 -35 97.5 -82t29.5 -121 q0 -108 -78 -170q-78 -61 -213 -61h-473z" />
<glyph unicode="&#xb4;" d="M340 1184l193 279h286l-340 -279h-139z" />
<glyph unicode="&#xb5;" horiz-adv-x="1213" d="M-62 -428l261 1497h280l-74 -426l-22 -147l-8 -115q0 -90 41 -135q39 -46 125 -46q94 0 150.5 81.5t89.5 283.5l88 504h280l-188 -1069h-260l18 114q-39 -73 -90 -112q-51 -35 -119 -35q-61 0 -112 30q-54 29 -95 89l-88 -514h-277z" />
<glyph unicode="&#xb6;" d="M41 1108q0 154 104.5 248t274.5 94h535v-108h-111v-1342h-147v1342h-152v-1342h-149v768q-154 0 -254 99q-101 96 -101 241z" />
<glyph unicode="&#xb7;" horiz-adv-x="393" d="M43 756q0 61 45 109q45 45 109 45q63 0 106 -45q43 -41 43 -109q0 -37 -8 -59.5t-35 -49.5q-43 -45 -106 -45q-60 0 -107 47q-47 48 -47 107z" />
<glyph unicode="&#xb8;" d="M277 -275q78 -23 145 -31q68 -10 105 -10q41 0 57 15q16 12 20 49q0 31 -26 45q-29 12 -84 12h-31l-20 -2v207h108v-92h14q103 0 158 -43q55 -45 55 -129q0 -90 -59 -137q-61 -50 -172 -50q-53 0 -125 12q-78 11 -86 13q-41 12 -59 18v123z" />
<glyph unicode="&#xb9;" horiz-adv-x="344" d="M70 576v866h207v-866h-207z" />
<glyph unicode="&#xba;" horiz-adv-x="908" d="M39 1069q0 174 115 279q112 104 301 104q192 0 305 -102q111 -105 111 -281q0 -174 -113 -276q-115 -105 -303 -105q-189 0 -301 103q-115 102 -115 278zM254 1069q0 -100 53 -159q52 -62 146 -62q92 0 147 60q54 57 54 161q0 107 -52.5 165.5t-148.5 58.5 q-94 0 -146.5 -60.5t-52.5 -163.5z" />
<glyph unicode="&#xbb;" horiz-adv-x="1252" d="M51 180l353 351l-342 346h301l325 -346l-344 -351h-293zM525 180l352 351l-342 346h301l323 -346l-340 -351h-294z" />
<glyph unicode="&#xbc;" horiz-adv-x="1628" d="M66 633v807h198v-807h-198zM144 -2l553 1442h149l-553 -1442h-149zM701 148v155l528 506h239v-524h121v-137h-121v-148h-188v148h-579zM916 285h364v350z" />
<glyph unicode="&#xbd;" horiz-adv-x="1514" d="M66 633v807h198v-807h-198zM144 -2l553 1442h149l-553 -1442h-149zM697 0v244q0 125 71 180q72 55 238 55h121q84 0 116 23q33 20 33 70q0 55 -31 75q-30 21 -118 21h-430v139h514q65 0 102 -6t59 -20q58 -29 86 -82q29 -54 29 -129q0 -113 -70 -172q-69 -62 -202 -62 h-170q-76 0 -113 -27q-33 -28 -33 -90v-80h584v-139h-786z" />
<glyph unicode="&#xbe;" horiz-adv-x="2089" d="M17 633v137h370q74 0 111 25q35 22 35 74q0 51 -35 75q-37 23 -111 23h-301v140l295 -1q78 0 113 25q35 22 35 71q0 48 -35 76q-39 23 -113 23h-364v139h432q149 0 221 -53.5t72 -161.5q0 -53 -29 -104q-14 -21 -33.5 -39.5t-54.5 -42.5q61 -33 90 -76q27 -45 27 -115 q0 -106 -72 -160q-68 -55 -203 -55h-450zM604 -2l553 1442h152l-555 -1442h-150zM1161 148v155l529 506h239v-524h121v-137h-121v-148h-188v148h-580zM1377 285h364v350z" />
<glyph unicode="&#xbf;" horiz-adv-x="1377" d="M60 424q0 203 111 314q110 108 319 108h250q65 0 110 10q45 11 70 35q51 45 51 160v35h326v-76q0 -219 -115.5 -320.5t-377.5 -101.5h-172q-132 0 -183 -39q-53 -41 -53 -129q0 -92 49 -133q49 -37 186 -37h696v-250h-762h-36h-31h-25q-88 0 -127 10q-61 13 -108 37 q-90 56 -133 150q-45 92 -45 227zM971 1186v256h326v-256h-326z" />
<glyph unicode="&#xc0;" horiz-adv-x="1436" d="M-47 0l602 1442h320l608 -1442h-334l-131 342h-620l-127 -342h-318zM391 1856h287l193 -279h-142zM496 600h424l-217 553z" />
<glyph unicode="&#xc1;" horiz-adv-x="1436" d="M-47 0l602 1442h320l608 -1442h-334l-131 342h-620l-127 -342h-318zM496 600h424l-217 553zM555 1577l195 279h284l-339 -279h-140z" />
<glyph unicode="&#xc2;" horiz-adv-x="1436" d="M-47 0l602 1442h320l608 -1442h-334l-131 342h-620l-127 -342h-318zM406 1577l192 279h230l192 -279h-137l-170 148l-168 -148h-139zM496 600h424l-217 553z" />
<glyph unicode="&#xc3;" horiz-adv-x="1436" d="M-47 0l602 1442h320l608 -1442h-334l-131 342h-620l-127 -342h-318zM402 1589q20 109 71 168q52 60 125 60l37 -2l33 -6l125 -33l24 -4l25 -2q31 0 55 18q23 19 31 55h96q-8 -53 -26.5 -96t-44.5 -76q-54 -59 -134 -59l-30 2l-29 6l-131 33l-20 4l-21 2q-35 0 -57 -18 q-21 -13 -31 -52h-98zM496 600h424l-217 553z" />
<glyph unicode="&#xc4;" horiz-adv-x="1436" d="M-47 0l602 1442h320l608 -1442h-334l-131 342h-620l-127 -342h-318zM424 1587v256h235v-256h-235zM496 600h423l-216 553zM766 1587v256h237v-256h-237z" />
<glyph unicode="&#xc5;" horiz-adv-x="1436" d="M-47 0l602 1442h320l608 -1442h-334l-131 342h-620l-127 -342h-318zM493 1710q0 95 66 160q64 64 156 64q90 0 155.5 -66t65.5 -158q0 -96 -65.5 -161.5t-155.5 -65.5q-94 0 -158 66q-64 63 -64 161zM495 600h425l-217 553zM631 1706q0 -35 23 -59q26 -23 61 -23 q33 0 57 23q23 20 27 59q0 37 -23.5 62t-60.5 25t-59 -25q-25 -27 -25 -62z" />
<glyph unicode="&#xc6;" horiz-adv-x="2218" d="M-43 0l604 1442h326l127 -350q86 184 231 268q144 82 381 82h478v-252h-491q-160 0 -246 -82q-43 -43 -68 -104q-24 -64 -24 -148l829 -2v-250h-831q0 -190 79 -270q80 -82 261 -82h491v-252h-483q-135 0 -232 19q-51 8 -86 20q-37 12 -69 35q-29 16 -56.5 41t-59.5 61 q-51 68 -98 166h-618l-127 -342h-318zM500 600h451l-203 553h-41z" />
<glyph unicode="&#xc7;" horiz-adv-x="1301" d="M57 695q0 380 164 565q164 182 508 182h500v-248h-494q-186 0 -268 -119q-82 -118 -82 -393q0 -235 78 -332.5t272 -97.5h494v-252h-508q-172 0 -264 29q-94 27 -180 98q-109 86 -165 230q-55 141 -55 338zM471 -275q78 -23 146 -31q67 -10 106 -10q41 0 58 17 q18 12 18 47q0 31 -25 45q-26 12 -86 12h-30l-19 -2v207h106v-92h15q102 0 158.5 -45t56.5 -127q0 -88 -61.5 -137.5t-171.5 -49.5q-54 0 -125 12q-78 11 -86 13q-41 12 -60 18v123z" />
<glyph unicode="&#xc8;" horiz-adv-x="1342" d="M58 695q0 380 163 565q164 182 508 182h500v-252h-494q-159 0 -245 -82q-43 -43 -68 -104q-24 -64 -24 -148l831 -2v-250h-833q0 -188 78.5 -270t260.5 -82h494v-252h-508q-172 0 -264 29q-94 27 -180 98q-109 86 -164 230q-55 141 -55 338zM439 1856h286l193 -279h-140z " />
<glyph unicode="&#xc9;" horiz-adv-x="1342" d="M58 695q0 380 163 565q164 182 508 182h500v-252h-494q-159 0 -245 -82q-43 -43 -68 -104q-24 -64 -24 -148l831 -2v-250h-833q0 -188 78.5 -270t260.5 -82h494v-252h-508q-172 0 -264 29q-94 27 -180 98q-109 86 -164 230q-55 141 -55 338zM602 1577l195 279h287 l-340 -279h-142z" />
<glyph unicode="&#xca;" horiz-adv-x="1342" d="M58 695q0 380 163 565q164 182 508 182h500v-252h-494q-159 0 -245 -82q-43 -43 -68 -104q-24 -64 -24 -148l831 -2v-250h-833q0 -188 78.5 -270t260.5 -82h494v-252h-508q-172 0 -264 29q-94 27 -180 98q-109 86 -164 230q-55 141 -55 338zM453 1577l192 279h232 l190 -279h-137l-170 148l-168 -148h-139z" />
<glyph unicode="&#xcb;" horiz-adv-x="1342" d="M58 695q0 380 163 565q164 182 508 182h500v-252h-494q-159 0 -245 -82q-43 -43 -68 -104q-24 -64 -24 -148l831 -2v-250h-833q0 -188 78.5 -270t260.5 -82h494v-252h-508q-172 0 -264 29q-94 27 -180 98q-109 86 -164 230q-55 141 -55 338zM469 1587v256h237v-256h-237z M813 1587v256h237v-256h-237z" />
<glyph unicode="&#xcc;" horiz-adv-x="613" d="M-17 1856h288l192 -279h-139zM149 0v1442h314v-1442h-314z" />
<glyph unicode="&#xcd;" horiz-adv-x="613" d="M148 1577l194 279h287l-340 -279h-141zM149 0v1442h314v-1442h-314z" />
<glyph unicode="&#xce;" horiz-adv-x="613" d="M-2 1577l193 279h231l191 -279h-140l-168 148l-168 -148h-139zM149 0v1442h314v-1442h-314z" />
<glyph unicode="&#xcf;" horiz-adv-x="613" d="M17 1587v256h235v-256h-235zM149 0v1442h314v-1442h-314zM359 1587v256h237v-256h-237z" />
<glyph unicode="&#xd0;" horiz-adv-x="1549" d="M17 656v153h149v633h653q342 0 508 -180q166 -182 166 -567q0 -197 -53 -338q-55 -144 -166 -230q-88 -69 -184 -98t-264 -29h-660v656h-149zM465 252h356q199 0 275 98q73 99 73 371q0 266 -73 369q-76 100 -275 100h-356v-381h336v-153h-336v-404z" />
<glyph unicode="&#xd1;" horiz-adv-x="1544" d="M147 0v1442h380l583 -1036l-14 1036h307v-1442h-348l-615 1090l14 -1090h-307zM461 1589q10 60 27.5 99t46.5 71q47 58 125 58l35 -2l32 -6l127 -33l25 -4l22 -2q31 0 56 18q22 19 30 55h99q-19 -110 -72 -170q-55 -61 -135 -61l-29 2l-29 6l-133 33l-20 4l-21 2 q-34 0 -57 -16q-22 -19 -31 -54h-98z" />
<glyph unicode="&#xd2;" horiz-adv-x="1536" d="M55 735q0 371 177 553q174 181 536 181q363 0 537 -185q174 -184 174 -563q0 -381 -174 -565q-176 -186 -537 -186q-368 0 -540 186q-173 184 -173 579zM383 733q0 -264 92 -389q93 -125 293 -125q197 0 291 125q94 123 94 377t-94 379q-94 123 -291 123 q-192 0 -289 -123q-96 -123 -96 -367zM443 1856h284l195 -279h-139z" />
<glyph unicode="&#xd3;" horiz-adv-x="1536" d="M55 735q0 371 177 553q174 181 536 181q363 0 537 -185q174 -184 174 -563q0 -381 -174 -565q-176 -186 -537 -186q-368 0 -540 186q-173 184 -173 579zM383 733q0 -264 92 -389q93 -125 293 -125q197 0 291 125q94 123 94 377t-94 379q-94 123 -291 123 q-192 0 -289 -123q-96 -123 -96 -367zM606 1577l195 279h285l-338 -279h-142z" />
<glyph unicode="&#xd4;" horiz-adv-x="1536" d="M55 735q0 371 177 553q174 181 536 181q363 0 537 -185q174 -184 174 -563q0 -381 -174 -565q-176 -186 -537 -186q-368 0 -540 186q-173 184 -173 579zM383 733q0 -264 92 -389q93 -125 293 -125q197 0 291 125q94 123 94 377t-94 379q-94 123 -291 123 q-192 0 -289 -123q-96 -123 -96 -367zM457 1577l192 279h232l190 -279h-137l-170 148l-168 -148h-139z" />
<glyph unicode="&#xd5;" horiz-adv-x="1536" d="M55 735q0 371 177 553q174 181 536 181q363 0 537 -185q174 -184 174 -563q0 -381 -174 -565q-176 -186 -537 -186q-368 0 -540 186q-173 184 -173 579zM383 733q0 -264 92 -389q93 -125 293 -125q197 0 291 125q94 123 94 377t-94 379q-94 123 -291 123 q-192 0 -289 -123q-96 -123 -96 -367zM453 1589q24 115 72 170q26 29 57 43q29 15 70 15l34 -2l33 -6l125 -33l25 -4l24 -2q31 0 55 18q23 19 31 55h98q-18 -110 -71 -170q-55 -61 -135 -61l-31 2l-29 6l-131 33l-20 4l-21 2q-33 0 -55 -14q-23 -17 -33 -56h-98z" />
<glyph unicode="&#xd6;" horiz-adv-x="1536" d="M55 735q0 371 177 553q174 181 536 181q363 0 537 -185q174 -184 174 -563q0 -381 -174 -565q-176 -186 -537 -186q-368 0 -540 186q-173 184 -173 579zM383 733q0 -264 92 -389q93 -125 293 -125q197 0 291 125q94 123 94 377t-94 379q-94 123 -291 123 q-192 0 -289 -123q-96 -123 -96 -367zM473 1587v256h237v-256h-237zM817 1587v256h237v-256h-237z" />
<glyph unicode="&#xd7;" horiz-adv-x="1655" d="M268 158l436 440l-436 445l136 135l436 -440l438 440l135 -135l-434 -445l434 -440l-135 -137l-438 442l-436 -442z" />
<glyph unicode="&#xd8;" horiz-adv-x="1536" d="M45 -19l163 202q-76 92 -113 225q-39 133 -39 313q0 383 172 565t540 182q60 0 122.5 -6t117.5 -16q110 -25 184 -70l74 82h191l-146 -178q80 -73 125 -223q43 -152 43 -336q0 -381 -174 -565q-176 -186 -537 -186q-147 0 -250.5 25.5t-199.5 87.5l-78 -101zM359 735 q0 -90 14 -163q8 -54 14 -78.5t27 -71.5l602 754q-47 33 -115 53q-30 8 -61 12t-72 4q-207 0 -307 -124q-102 -127 -102 -386zM502 289q39 -45 109 -70q69 -24 157 -24q207 0 309 131q101 129 101 395q0 111 -17 182q-12 78 -49 150z" />
<glyph unicode="&#xd9;" horiz-adv-x="1526" d="M144 570v872h297v-864q0 -199 73 -279q72 -82 248 -82t250 80q72 78 72 281v864h299v-872q0 -142 -18 -240q-21 -98 -66 -147q-82 -101 -213 -150t-324 -49q-190 0 -319 47q-131 47 -220 152q-40 53 -58 141q-21 88 -21 246zM441 1856h286l193 -279h-139z" />
<glyph unicode="&#xda;" horiz-adv-x="1526" d="M144 570v872h297v-864q0 -199 73 -279q72 -82 248 -82t250 80q72 78 72 281v864h299v-872q0 -142 -18 -240q-21 -98 -66 -147q-82 -101 -213 -150t-324 -49q-190 0 -319 47q-131 47 -220 152q-40 53 -58 141q-21 88 -21 246zM604 1577l195 279h285l-338 -279h-142z" />
<glyph unicode="&#xdb;" horiz-adv-x="1526" d="M144 570v872h297v-864q0 -199 73 -279q72 -82 248 -82t250 80q72 78 72 281v864h299v-872q0 -142 -18 -240q-21 -98 -66 -147q-82 -101 -213 -150t-324 -49q-190 0 -319 47q-131 47 -220 152q-40 53 -58 141q-21 88 -21 246zM455 1577l192 279h232l190 -279h-137 l-170 148l-168 -148h-139z" />
<glyph unicode="&#xdc;" horiz-adv-x="1526" d="M144 570v872h297v-864q0 -199 73 -279q72 -82 248 -82t250 80q72 78 72 281v864h299v-872q0 -142 -18 -240q-21 -98 -66 -147q-82 -101 -213 -150t-324 -49q-190 0 -319 47q-131 47 -220 152q-40 53 -58 141q-21 88 -21 246zM471 1587v256h237v-256h-237zM815 1587v256 h237v-256h-237z" />
<glyph unicode="&#xdd;" horiz-adv-x="1233" d="M-82 1442h338l353 -551l356 551h348l-551 -805v-637h-299v637zM459 1577l193 279h286l-340 -279h-139z" />
<glyph unicode="&#xde;" horiz-adv-x="1481" d="M148 0v1442h299v-276h352q168 0 266 -14q96 -17 152 -50q96 -55 147 -143q49 -90 49 -213q0 -121 -39 -201q-22 -45 -51 -76q-28 -33 -73 -61q-76 -45 -166 -63q-93 -21 -273 -21h-364v-324h-299zM447 580h366q131 0 201 43q67 41 67 125q0 86 -63 125t-223 39h-348v-332 z" />
<glyph unicode="&#xdf;" horiz-adv-x="1370" d="M17 850v207h196v109q0 163 62 219q57 57 227 57h285q182 0 276 -74.5t94 -228.5q0 -74 -24 -127q-25 -55 -78 -86l-217 -131l-27 -21l-8 -12l8 -8l31 -14l195 -82q127 -58 176 -129q55 -74 55 -187q0 -162 -82 -252q-84 -90 -225 -90h-365v219h242q80 0 121 31 q41 29 41 88q0 43 -25 80q-27 35 -86 59l-178 78q-92 43 -123 82q-33 37 -33 105q0 65 23 104q12 19 45 45q31 27 78 57l125 80l16 9q59 34 59 98q0 57 -30 80q-33 22 -162 22h-78q-72 0 -100 -20q-29 -23 -29 -74v-1143h-289v850h-196z" />
<glyph unicode="&#xe0;" horiz-adv-x="1262" d="M72 305q0 181 96 258q96 78 322 78h364v27q0 92 -55 133q-57 39 -197 39h-460v217h565q215 0 323 -98.5t108 -296.5v-662h-743q-154 0 -238 80q-85 78 -85 225zM289 1463h285l194 -279h-139zM359 314q0 -56 27.5 -78.5t121.5 -22.5h346v217h-325q-97 0 -133 -24 q-37 -29 -37 -92z" />
<glyph unicode="&#xe1;" horiz-adv-x="1262" d="M72 305q0 181 96 258q96 78 322 78h364v27q0 92 -55 133q-57 39 -197 39h-460v217h565q215 0 323 -98.5t108 -296.5v-662h-743q-154 0 -238 80q-85 78 -85 225zM359 314q0 -56 27.5 -78.5t121.5 -22.5h346v217h-325q-97 0 -133 -24q-37 -29 -37 -92zM453 1184l192 279 h287l-338 -279h-141z" />
<glyph unicode="&#xe2;" horiz-adv-x="1262" d="M72 305q0 181 96 258q96 78 322 78h364v27q0 92 -55 133q-57 39 -197 39h-460v217h565q215 0 323 -98.5t108 -296.5v-662h-743q-154 0 -238 80q-85 78 -85 225zM303 1184l193 279h229l193 -279h-140l-167 147l-170 -147h-138zM359 314q0 -56 27.5 -78.5t121.5 -22.5h346 v217h-325q-97 0 -133 -24q-37 -29 -37 -92z" />
<glyph unicode="&#xe3;" horiz-adv-x="1262" d="M72 305q0 181 96 258q96 78 322 78h364v27q0 92 -55 133q-57 39 -197 39h-460v217h565q215 0 323 -98.5t108 -296.5v-662h-743q-154 0 -238 80q-85 78 -85 225zM299 1196q21 109 72 170q27 29 57 43q29 15 70 15l35 -2l32 -7l125 -32l25 -4l25 -2q32 0 53 20q20 14 33 53 h96q-19 -110 -72 -170q-55 -61 -133 -61l-31 2l-28 6l-133 33l-19 4l-20 2q-33 0 -60 -16q-18 -17 -30 -54h-97zM359 314q0 -56 27.5 -78.5t121.5 -22.5h346v217h-325q-97 0 -133 -24q-37 -29 -37 -92z" />
<glyph unicode="&#xe4;" horiz-adv-x="1262" d="M72 305q0 181 96 258q96 78 322 78h364v27q0 92 -55 133q-57 39 -197 39h-460v217h565q215 0 323 -98q109 -99 109 -297v-662h-743q-154 0 -238 80q-86 78 -86 225zM320 1194v256h237v-256h-237zM359 314q0 -56 27.5 -78.5t121.5 -22.5h346v217h-325q-97 0 -133 -24 q-37 -29 -37 -92zM664 1194v256h235v-256h-235z" />
<glyph unicode="&#xe5;" horiz-adv-x="1260" d="M72 305q0 181 96 258q96 78 322 78h364v27q0 92 -55 133q-57 39 -197 39h-460v217h565q215 0 323 -98.5t108 -296.5v-662h-743q-154 0 -238 80q-85 78 -85 225zM359 314q0 -56 27.5 -78.5t121.5 -22.5h346v217h-325q-97 0 -133 -24q-37 -29 -37 -92zM401 1348 q0 90 66 158q64 65 156 65q90 0 155 -65q66 -68 66 -158q0 -96 -66 -160q-65 -66 -155 -66t-156 66t-66 160zM538 1346q0 -33 25 -62q29 -25 62 -25t57 25q25 25 25 62t-23 59q-22 23 -59 27q-37 0 -62 -27q-25 -22 -25 -59z" />
<glyph unicode="&#xe6;" horiz-adv-x="1802" d="M69 305q0 181 99 258q96 78 321 78h346v27q0 94 -52 133q-56 39 -195 39h-449l1 217h542q109 0 180 -26q72 -27 121 -82q58 53 138 82q77 26 196 26h430v-217h-381q-145 0 -200 -43q-29 -23 -43.5 -59.5t-14.5 -96.5h639v-211h-643q0 -118 53 -164q54 -47 207 -47h383 v-219h-467q-119 0 -190 27q-74 26 -121 90v-117h-573q-156 0 -240 80q-87 78 -87 225zM358 318q0 -54 29 -76q27 -23 119 -23h331l1 211h-309q-97 0 -133 -24q-38 -29 -38 -88z" />
<glyph unicode="&#xe7;" horiz-adv-x="1047" d="M60 525q0 118 41 225q39 104 112 182q70 64 162 94q92 31 234 31h374v-227h-293q-198 0 -268 -70q-76 -70 -76 -235q0 -95 31 -158q31 -66 92 -107q23 -10 37 -16.5t39 -10.5t53 -6q29 -2 92 -2h293v-225h-374q-138 0 -236 29q-88 31 -158 98q-69 68 -112 175.5 t-43 222.5zM305 -275q78 -23 123 -29t72 -8q25 -4 55 -4q41 0 58 17q16 10 20 47q0 31 -27 45q-28 12 -86 12h-28l-21 -2v207h106v-92h17q104 0 159 -43q54 -45 54 -129q0 -88 -59 -137q-62 -50 -174 -50q-52 0 -115 10q-66 11 -86 15q-23 4 -68 18v123z" />
<glyph unicode="&#xe8;" horiz-adv-x="1047" d="M59 529q0 258 135.5 393t391.5 135h403v-219h-364q-150 0 -203 -43q-56 -45 -56 -156h623v-221h-623q0 -111 50 -154q49 -45 207 -45h366v-219h-403q-260 0 -393.5 133t-133.5 396zM291 1463h285l192 -279h-137z" />
<glyph unicode="&#xe9;" horiz-adv-x="1047" d="M59 529q0 258 135.5 393t391.5 135h403v-219h-364q-150 0 -203 -43q-56 -45 -56 -156h623v-221h-623q0 -111 50 -154q49 -45 207 -45h366v-219h-403q-260 0 -393.5 133t-133.5 396zM454 1184l193 279h287l-338 -279h-142z" />
<glyph unicode="&#xea;" horiz-adv-x="1047" d="M59 529q0 258 135.5 393t391.5 135h403v-219h-364q-150 0 -203 -43q-56 -45 -56 -156h623v-221h-623q0 -111 50 -154q49 -45 207 -45h366v-219h-403q-260 0 -393.5 133t-133.5 396zM305 1184l193 279h229l193 -279h-139l-168 147l-170 -147h-138z" />
<glyph unicode="&#xeb;" horiz-adv-x="1047" d="M60 529q0 258 135 393t391 135h403v-219h-364q-150 0 -203 -43q-55 -45 -55 -156h622v-221h-622q0 -111 49 -154q49 -45 207 -45h366v-219h-403q-260 0 -393 133t-133 396zM322 1194v256h237v-256h-237zM666 1194v256h235v-256h-235z" />
<glyph unicode="&#xec;" horiz-adv-x="529" d="M-58 1463h286l194 -279h-141zM119 0v1057h290v-1057h-290z" />
<glyph unicode="&#xed;" horiz-adv-x="529" d="M107 1184l192 279h287l-340 -279h-139zM119 0v1057h290v-1057h-290z" />
<glyph unicode="&#xee;" horiz-adv-x="529" d="M-43 1184l191 279h231l193 -279h-140l-168 147l-170 -147h-137zM119 0v1057h290v-1057h-290z" />
<glyph unicode="&#xef;" horiz-adv-x="529" d="M-27 1194v256h238v-256h-238zM119 0v1057h290v-1057h-290zM317 1194v256h238v-256h-238z" />
<glyph unicode="&#xf0;" horiz-adv-x="1213" d="M49 500q0 221 139.5 368.5t344.5 147.5q45 0 94 -10q47 -12 96 -35q-41 74 -84 125q-45 49 -86 76l-356 -90l-31 122l264 68l-217 170h297l90 -51l80 -53l357 90l30 -123l-260 -66q168 -141 260 -327.5t92 -386.5q0 -252 -147 -398q-150 -145 -406 -145q-251 0 -403 141 q-154 141 -154 377zM340 500q0 -135 69.5 -211t194.5 -76q127 0 197 78q70 76 70 209q0 137 -72 211q-68 76 -195 76q-120 0 -194 -76q-70 -80 -70 -211z" />
<glyph unicode="&#xf1;" horiz-adv-x="1192" d="M119 0v1057h520q236 0 338 -90q100 -90 100 -297v-670h-276v638q0 116 -37 153q-39 35 -145 35h-224v-826h-276zM252 1196q25 111 76 170q49 58 123 58l35 -2l32 -7l125 -32l27 -4l25 -2q30 0 53 20q22 18 30 53h99q-19 -108 -72 -170q-55 -61 -135 -61l-29 2l-28 6 l-134 33l-18 4l-22 2q-31 0 -58 -16q-22 -19 -31 -54h-98z" />
<glyph unicode="&#xf2;" horiz-adv-x="1211" d="M49 529q0 245 152 397q149 149 405 149q252 0 404 -147q149 -150 149 -399q0 -250 -149 -398q-152 -149 -404 -149q-253 0 -405 148.5t-152 398.5zM285 1463h285l194 -279h-139zM340 529q0 -152 72 -236q70 -84 192 -84q125 0 197 84q70 84 70 236q0 153 -72 233 q-70 86 -195 86q-122 0 -192 -84q-72 -84 -72 -235z" />
<glyph unicode="&#xf3;" horiz-adv-x="1211" d="M49 529q0 245 152 397q149 149 405 149q252 0 404 -147q149 -150 149 -399q0 -250 -149 -398q-152 -149 -404 -149q-253 0 -405 148.5t-152 398.5zM340 529q0 -152 72 -236q70 -84 192 -84q125 0 197 84q70 84 70 236q0 153 -72 233q-70 86 -195 86q-122 0 -192 -84 q-72 -84 -72 -235zM449 1184l192 279h287l-338 -279h-141z" />
<glyph unicode="&#xf4;" horiz-adv-x="1211" d="M49 529q0 245 152 397q149 149 405 149q252 0 404 -147q149 -150 149 -399q0 -250 -149 -398q-152 -149 -404 -149q-253 0 -405 148.5t-152 398.5zM299 1184l193 279h231l191 -279h-139l-169 147l-170 -147h-137zM340 529q0 -152 72 -236q70 -84 192 -84q125 0 197 84 q70 84 70 236q0 153 -72 233q-70 86 -195 86q-122 0 -192 -84q-72 -84 -72 -235z" />
<glyph unicode="&#xf5;" horiz-adv-x="1211" d="M49 529q0 245 152 397q149 149 405 149q252 0 404 -147q149 -150 149 -399q0 -250 -149 -398q-152 -149 -404 -149q-253 0 -405 148.5t-152 398.5zM295 1196q21 109 72 170q26 29 57 43q29 15 70 15l35 -2l32 -7l125 -32l25 -4l24 -2q33 0 53.5 18t32.5 55h99 q-22 -112 -74 -172q-53 -59 -133 -59l-31 2l-28 6l-134 33l-18 4l-20 2q-35 0 -56 -14q-22 -17 -35 -56h-96zM340 529q0 -152 72 -236q70 -84 192 -84q125 0 197 84q70 84 70 236q0 153 -72 233q-70 86 -195 86q-122 0 -192 -84q-72 -84 -72 -235z" />
<glyph unicode="&#xf6;" horiz-adv-x="1211" d="M49 529q0 245 152 397q149 149 405 149q252 0 404 -147q149 -150 149 -399q0 -250 -149 -398q-152 -149 -404 -149q-253 0 -405 148.5t-152 398.5zM316 1194v256h237v-256h-237zM341 529q0 -152 70.5 -236t192.5 -84q125 0 197 84q70 84 70 236q0 153 -72 233 q-70 86 -195 86q-122 0 -192.5 -84t-70.5 -235zM660 1194v256h237v-256h-237z" />
<glyph unicode="&#xf7;" horiz-adv-x="1655" d="M246 502v194h1163v-194h-1163zM682 213q0 37 8 60q9 20 35 45q45 45 103 45q55 0 102 -45t47 -105q0 -57 -43 -100q-45 -45 -106 -45q-62 0 -103 41q-43 37 -43 104zM682 983q0 37 8 60q9 20 35 47q47 43 103 43q55 0 102 -45t47 -105q0 -59 -43 -102q-45 -45 -106 -45 q-60 0 -103 43q-43 41 -43 104z" />
<glyph unicode="&#xf8;" horiz-adv-x="1213" d="M49 529q0 245 152 397q149 149 405 149q80 0 156 -18t150 -57l63 75h176l-130 -157q71 -88 106 -180q32 -95 32 -209q0 -250 -147 -398q-150 -149 -406 -149q-90 0 -167 21q-78 18 -134 51l-61 -72h-174l130 149q-36 43 -65 90q-29 45 -49 97q-37 96 -37 211zM327 529 q0 -21 2 -37q0 -17 9 -64q6 -49 31 -86l393 477q-35 21 -72.5 31t-56.5 12h-29q-127 0 -200 -88q-77 -90 -77 -245zM457 240q29 -21 68 -33q38 -14 79 -14q131 0 205 90t74 246v51q-6 35 -8 53q-2 16 -6 31q-4 12 -15 49z" />
<glyph unicode="&#xf9;" horiz-adv-x="1196" d="M113 387v670h274v-647q0 -105 37 -139q35 -38 144 -38h223v824h276v-1057h-520q-229 0 -332 92q-102 93 -102 295zM275 1463h284l195 -279h-141z" />
<glyph unicode="&#xfa;" horiz-adv-x="1196" d="M113 387v670h274v-647q0 -105 37 -139q35 -38 144 -38h223v824h276v-1057h-520q-229 0 -332 92q-102 93 -102 295zM439 1184l192 279h287l-340 -279h-139z" />
<glyph unicode="&#xfb;" horiz-adv-x="1196" d="M113 387v670h274v-647q0 -105 37 -139q35 -38 144 -38h223v824h276v-1057h-520q-229 0 -332 92q-102 93 -102 295zM289 1184l190 279h232l193 -279h-139l-169 147l-170 -147h-137z" />
<glyph unicode="&#xfc;" horiz-adv-x="1196" d="M113 387v670h274v-647q0 -105 37 -139q35 -38 144 -38h223v824h276v-1057h-520q-229 0 -332 92q-102 93 -102 295zM305 1194v256h237v-256h-237zM649 1194v256h238v-256h-238z" />
<glyph unicode="&#xfd;" horiz-adv-x="1196" d="M113 406v651h272v-631q0 -114 35 -153.5t148 -39.5h223v824h276v-1028q0 -205 -96 -312q-100 -100 -297 -100h-542v213h495q76 0 121 39q43 39 43 112v19h-243q-234 0 -336 92q-99 97 -99 314zM441 1184l192 279h287l-340 -279h-139z" />
<glyph unicode="&#xfe;" horiz-adv-x="1213" d="M115 -383v1825h283v-385h256q240 0 375 -141q135 -144 135 -402q0 -104 -27 -192q-32 -90 -86 -158q-65 -86 -161.5 -125t-253.5 -39h-238v-383h-283zM398 225h167q168 0 240 74q70 68 70 238q0 162 -64 227q-65 66 -223 66h-190v-605z" />
<glyph unicode="&#xff;" horiz-adv-x="1196" d="M113 406v651h272v-631q0 -114 35 -153.5t148 -39.5h223v824h276v-1028q0 -205 -96 -312q-100 -100 -297 -100h-542v213h495q76 0 121 39q43 39 43 112v19h-244q-233 0 -336 92q-98 97 -98 314zM307 1194v256h238v-256h-238zM652 1194v256h237v-256h-237z" />
<glyph unicode="&#x152;" horiz-adv-x="2388" d="M56 721q0 383 174 565q172 182 538 182q166 0 291 -40q123 -43 248 -144q80 82 194 121q115 37 273 37h500v-252h-494q-158 0 -244 -82q-43 -41 -67 -106q-27 -66 -27 -146l832 -2v-250h-834q0 -190 80 -270q80 -82 260 -82h494v-251h-508q-162 0 -273 36 q-112 37 -186 119q-62 -45 -129 -82q-70 -37 -133 -59q-140 -45 -277 -45q-366 0 -538 184q-174 182 -174 567zM373 721q0 -262 96 -385t299 -123q199 0 297 125q99 125 99 383q0 260 -95.5 383t-300.5 123t-299 -125q-96 -117 -96 -381z" />
<glyph unicode="&#x153;" horiz-adv-x="1827" d="M49 529q0 245 152 397q149 149 405 149q125 0 220 -38q92 -39 170 -123q53 78 139 110.5t231 32.5h404v-219h-367q-147 0 -203 -43q-55 -45 -55 -156h625v-221h-625q0 -111 51 -154q49 -45 205 -45h369v-218h-404q-153 0 -233 31.5t-135 109.5q-90 -80 -197 -121 q-53 -20 -102 -31q-52 -10 -113 -10q-236 0 -385 153q-152 154 -152 396zM340 529q0 -152 72 -236q70 -84 194 -84q125 0 195 84q70 82 70 236q0 151 -70 235q-70 85 -195 85q-120 0 -192 -87q-74 -86 -74 -233z" />
<glyph unicode="&#x178;" horiz-adv-x="1233" d="M-82 1442h338l353 -551l356 551h348l-551 -805v-637h-299v637zM326 1587v256h237v-256h-237zM670 1587v256h235v-256h-235z" />
<glyph unicode="&#x2c6;" d="M188 1184l193 279h232l192 -279h-139l-168 147l-170 -147h-140z" />
<glyph unicode="&#x2dc;" d="M184 1196q25 115 72 170q53 58 127 58l35 -2l33 -7l125 -32l24 -4l27 -2q31 0 53 20q23 18 31 53h98q-18 -108 -71 -170q-56 -61 -136 -61l-30 2l-27 6l-133 33l-21 4l-18 2q-33 0 -59 -16q-23 -19 -31 -54h-99z" />
<glyph unicode="&#x2000;" horiz-adv-x="967" />
<glyph unicode="&#x2001;" horiz-adv-x="1934" />
<glyph unicode="&#x2002;" horiz-adv-x="967" />
<glyph unicode="&#x2003;" horiz-adv-x="1934" />
<glyph unicode="&#x2004;" horiz-adv-x="644" />
<glyph unicode="&#x2005;" horiz-adv-x="483" />
<glyph unicode="&#x2006;" horiz-adv-x="322" />
<glyph unicode="&#x2007;" horiz-adv-x="322" />
<glyph unicode="&#x2008;" horiz-adv-x="241" />
<glyph unicode="&#x2009;" horiz-adv-x="386" />
<glyph unicode="&#x200a;" horiz-adv-x="107" />
<glyph unicode="&#x2010;" horiz-adv-x="768" d="M49 418v249h668v-249h-668z" />
<glyph unicode="&#x2011;" horiz-adv-x="768" d="M49 418v249h668v-249h-668z" />
<glyph unicode="&#x2012;" horiz-adv-x="768" d="M49 418v249h668v-249h-668z" />
<glyph unicode="&#x2013;" d="M0 418v249h994v-249h-994z" />
<glyph unicode="&#x2014;" horiz-adv-x="1987" d="M0 418v249h1987v-249h-1987z" />
<glyph unicode="&#x2018;" horiz-adv-x="393" d="M78 1256v186h235v-252h-108v-188q-65 51 -96 111.5t-31 142.5z" />
<glyph unicode="&#x2019;" horiz-adv-x="393" d="M78 1190v252h237v-186q0 -86 -30 -142q-12 -28 -25 -43q-20 -28 -71 -69v188h-111z" />
<glyph unicode="&#x201a;" horiz-adv-x="393" d="M78 0v252h235v-182q0 -89 -30 -144q-27 -59 -96 -115v189h-109z" />
<glyph unicode="&#x201c;" horiz-adv-x="731" d="M78 1256v186h235v-252h-108v-188q-65 51 -96 111.5t-31 142.5zM416 1256v186h236v-252h-109v-188q-64 49 -98 112q-29 62 -29 142z" />
<glyph unicode="&#x201d;" horiz-adv-x="731" d="M78 1190v252h235v-186q0 -86 -30 -142q-12 -28 -25 -43q-20 -28 -71 -69v188h-109zM416 1190v252h236v-186q0 -78 -29 -142q-31 -57 -98 -112v188h-109z" />
<glyph unicode="&#x201e;" horiz-adv-x="731" d="M78 0v252h235v-182q0 -89 -30 -144q-27 -59 -96 -115v189h-109zM416 0v252h236v-182q0 -83 -31 -144q-31 -63 -96 -115v189h-109z" />
<glyph unicode="&#x2022;" horiz-adv-x="1172" d="M299 748q0 121 84 205t203 84q117 0 203 -84q84 -86 84 -205q0 -121 -84 -205q-86 -86 -205 -86q-121 0 -203 84t-82 207z" />
<glyph unicode="&#x2026;" horiz-adv-x="1987" d="M213 0v252h237v-252h-237zM875 0v252h237v-252h-237zM1536 0v252h239v-252h-239z" />
<glyph unicode="&#x202f;" horiz-adv-x="386" />
<glyph unicode="&#x2039;" horiz-adv-x="791" d="M51 529l340 348h297l-352 -348l342 -349h-303z" />
<glyph unicode="&#x203a;" horiz-adv-x="791" d="M49 180l353 351l-342 346h303l325 -346l-344 -351h-295z" />
<glyph unicode="&#x205f;" horiz-adv-x="483" />
<glyph unicode="&#x2122;" horiz-adv-x="1655" d="M201 1323v110h471v-110h-164v-426h-143v426h-164zM778 897v536h191l123 -325l121 325h190v-536h-131v402l-149 -402h-60l-154 402v-402h-131z" />
<glyph unicode="&#x25fc;" horiz-adv-x="1055" d="M0 0v1055h1055v-1055h-1055z" />
</font>
</defs>
</svg>
