<?xml version="1.0" standalone="no"?>
<!DOCTYPE svg PUBLIC "-//W3C//DTD SVG 20010904//EN"
 "http://www.w3.org/TR/2001/REC-SVG-20010904/DTD/svg10.dtd">
<svg version="1.0" xmlns="http://www.w3.org/2000/svg"
 width="32.000000pt" height="32.000000pt" viewBox="0 0 480.000000 480.000000"
 preserveAspectRatio="xMidYMid meet">
<metadata>
Created by potrace 1.13, written by Peter Selinger 2001-2015
</metadata>
<g transform="translate(0.000000,480.000000) scale(0.100000,-0.100000)"
fill="#000000" stroke="none">
<path d="M2049 3948 l-345 -753 -45 -7 c-24 -5 -388 -60 -809 -123 -421 -63
-780 -117 -799 -121 l-34 -6 504 -506 c277 -279 544 -548 593 -598 l88 -92
-127 -786 c-70 -433 -125 -790 -122 -793 3 -2 330 151 726 340 l721 346 716
-345 c394 -190 718 -343 721 -340 3 3 -47 364 -112 802 l-118 796 583 583 583
583 -34 7 c-19 3 -398 61 -843 129 l-809 122 -340 757 c-188 416 -344 757
-347 757 -3 0 -161 -339 -351 -752z m456 -813 c116 -24 228 -86 316 -174 250
-251 250 -641 0 -892 -198 -198 -476 -243 -731 -118 -166 82 -297 251 -335
434 -93 444 306 843 750 750z m133 -1429 c425 -93 764 -394 900 -801 16 -46
62 -321 62 -367 0 -8 -77 27 -355 162 -93 45 -282 136 -420 202 -137 66 -289
140 -337 164 l-88 43 -202 -98 c-112 -54 -324 -155 -471 -226 -147 -70 -325
-156 -395 -190 l-127 -62 -3 27 c-5 41 35 272 59 343 102 303 323 558 607 701
93 47 225 90 322 106 41 6 82 13 90 15 37 9 292 -5 358 -19z"/>
</g>
</svg>
